<?xml version="1.0" standalone="no"?>
<!DOCTYPE svg PUBLIC "-//W3C//DTD SVG 20010904//EN"
 "http://www.w3.org/TR/2001/REC-SVG-20010904/DTD/svg10.dtd">
<svg version="1.0" xmlns="http://www.w3.org/2000/svg"
 width="260.000000pt" height="260.000000pt" viewBox="0 0 260.000000 260.000000"
 preserveAspectRatio="xMidYMid meet">
<metadata>
Created by potrace 1.11, written by Peter Selinger 2001-2013
</metadata>
<g transform="translate(0.000000,260.000000) scale(0.100000,-0.100000)"
fill="#000000" stroke="none">
<path d="M1100 2585 c-269 -43 -503 -160 -702 -353 -307 -298 -445 -705 -382
-1129 82 -557 531 -1006 1085 -1087 637 -94 1236 274 1434 879 129 394 61 829
-182 1167 -74 103 -227 250 -334 321 -268 178 -604 251 -919 202z m360 -159
c182 -28 377 -108 519 -214 l64 -47 -7 -90 c-7 -100 -25 -191 -57 -277 l-21
-58 -38 30 c-21 17 -69 45 -107 63 -64 30 -75 32 -173 31 -84 0 -116 -4 -161
-22 -83 -33 -164 -88 -270 -185 -112 -102 -173 -141 -255 -162 -100 -25 -193
6 -277 93 -33 33 -41 52 -57 123 -22 99 -46 262 -55 374 l-7 80 64 48 c236
176 551 256 838 213z m-1009 -828 c128 -532 391 -947 749 -1180 176 -115 156
-117 164 18 15 234 81 372 283 596 43 47 125 138 182 202 216 239 344 462 376
656 4 25 11 51 15 58 16 31 133 -197 174 -341 78 -272 51 -550 -79 -812 -65
-131 -126 -215 -233 -316 -185 -178 -411 -282 -673 -311 -196 -22 -407 16
-596 107 -121 58 -199 111 -295 204 -107 101 -168 185 -233 316 -130 262 -157
540 -80 812 28 98 97 248 147 320 l32 47 17 -122 c10 -66 32 -181 50 -254z
m1278 62 c45 -21 100 -62 114 -86 10 -18 -46 -91 -194 -253 -162 -176 -224
-247 -280 -321 -56 -74 -128 -209 -154 -287 -20 -65 -22 -64 -126 44 -87 90
-148 169 -209 268 -42 68 -120 227 -134 272 -7 21 -5 21 26 12 18 -6 71 -10
118 -11 150 0 279 60 440 209 106 97 138 120 209 149 69 29 132 30 190 4z"/>
</g>
</svg>
