<svg xmlns="http://www.w3.org/2000/svg" viewBox="0 0 257.9 32.19"><defs><style>.cls-1{fill:#f8f7f7;}</style></defs><g id="Layer_2" data-name="Layer 2"><g id="Layer_1-2" data-name="Layer 1"><path class="cls-1" d="M27.56,4.81l-.33-.32a16.06,16.06,0,0,0-22.31,0l-.32.32a16.1,16.1,0,1,0,23,0ZM16.09,2a14,14,0,0,1,9.14,3.36,11.4,11.4,0,0,1-1,5.33A5.7,5.7,0,0,0,21,9.07a4.87,4.87,0,0,0-.66,0c-1.78,0-3.61.92-5.43,2.74A5.75,5.75,0,0,1,11,13.82l-.32,0A4.42,4.42,0,0,1,7.89,12,32.81,32.81,0,0,1,7,5.37,14,14,0,0,1,16.09,2ZM23,12.82a35.74,35.74,0,0,1-3.13,3.68c-2.17,2.32-4.24,4.53-5,7.62A19.43,19.43,0,0,1,9.07,15.8a5.55,5.55,0,0,0,1.38.33,5.63,5.63,0,0,0,.58,0,7.93,7.93,0,0,0,5.51-2.74c1.36-1.35,2.63-2.05,3.77-2.05l.36,0A3.74,3.74,0,0,1,23,12.82ZM16.09,30.19A14.11,14.11,0,0,1,4.76,7.7c.5,4.6,2.48,14.57,10.36,19.48l.61.39,1.09.68L16.88,27l0-.72c.14-3.32,2.32-5.66,4.64-8.14,2.51-2.69,5.31-5.69,5.91-10.34A14.09,14.09,0,0,1,16.09,30.19Z"/><path class="cls-1" d="M52,9.52H44.82v4.56h7v2.59h-7v5.67H52v2.59H42.07v-18H52Z"/><path class="cls-1" d="M55.84,24.93,59.62,5.58l6.26,14,6.31-14L75.6,24.93H72.79L71,14.08,65.72,25.77,60.53,14.06,58.64,24.93Z"/><path class="cls-1" d="M80.19,24.93,84,5.58l6.26,14,6.32-14L100,24.93H97.14L95.31,14.08,90.07,25.77,84.89,14.06,83,24.93Z"/><path class="cls-1" d="M115,9.52h-7.18v4.56h7v2.59h-7v5.67H115v2.59h-9.94v-18H115Z"/><path class="cls-1" d="M121.88,6.93V22.34h5.29v2.59h-8v-18Z"/><path class="cls-1" d="M134.27,6.93v18h-2.75v-18Z"/><path class="cls-1" d="M149.2,9.52H142v4.56h7v2.59h-7v5.67h7.18v2.59h-9.93v-18h9.93Z"/><path class="cls-1" d="M169.53,10.92a2.81,2.81,0,0,0-.81-1.13,2.87,2.87,0,0,0-1.94-.65c-1.68,0-2.54,1-2.54,2.16,0,.54.19,1.49,1.94,2.19l1.81.73c3.32,1.35,4.24,3.24,4.24,5.29a5.55,5.55,0,0,1-5.8,5.78,5.29,5.29,0,0,1-4.24-1.81A5.8,5.8,0,0,1,160.68,20l2.72-.6a3.93,3.93,0,0,0,.76,2.3,2.83,2.83,0,0,0,2.35,1.08,2.9,2.9,0,0,0,3-3c0-1.83-1.41-2.59-2.59-3.07l-1.73-.73c-1.49-.62-3.67-1.86-3.67-4.56,0-2.43,1.89-4.75,5.26-4.75a5.37,5.37,0,0,1,3.62,1.21,6,6,0,0,1,1.37,1.81Z"/><path class="cls-1" d="M181,9.52V24.93H178.2V9.52h-4.13V6.93h11V9.52Z"/><path class="cls-1" d="M192.08,6.93A8.09,8.09,0,0,1,196.83,8,5,5,0,0,1,199,12.22a4.94,4.94,0,0,1-4,5l5.62,7.69h-3.32l-5.16-7.36h-.48v7.36h-2.76v-18Zm-.46,8.26h.86c.76,0,3.83-.08,3.83-2.94,0-2.54-2.4-2.78-3.75-2.78h-.94Z"/><path class="cls-1" d="M215.21,20.59h-7.69l-2,4.34h-3l9-19,8.53,19.05h-3ZM214.11,18l-2.68-6.1L208.65,18Z"/><path class="cls-1" d="M223.29,24.93V5.72L236.35,19.4V6.93h2.76V26L226,12.36V24.93Z"/><path class="cls-1" d="M247.75,6.93c2.51,0,4.7.27,6.69,1.75A8.92,8.92,0,0,1,257.9,16a8.59,8.59,0,0,1-3.62,7.26c-2.1,1.48-4.07,1.72-6.58,1.72H244v-18Zm-1,15.41h1.19a7.75,7.75,0,0,0,4.78-1.27A6.34,6.34,0,0,0,255.15,16a6.45,6.45,0,0,0-2.43-5.19,8.12,8.12,0,0,0-4.81-1.24h-1.19Z"/></g></g></svg>