<?xml version="1.0" encoding="utf-8"?>
<!-- Generator: Adobe Illustrator 16.0.4, SVG Export Plug-In . SVG Version: 6.00 Build 0)  -->
<!DOCTYPE svg PUBLIC "-//W3C//DTD SVG 1.1//EN" "http://www.w3.org/Graphics/SVG/1.1/DTD/svg11.dtd">
<svg version="1.1" id="Layer_1" xmlns="http://www.w3.org/2000/svg" xmlns:xlink="http://www.w3.org/1999/xlink" x="0px" y="0px"
	 width="209.764px" height="85.04px" viewBox="0 0 209.764 85.04" enable-background="new 0 0 209.764 85.04" xml:space="preserve">
<g>
	<g>
		<defs>
			<rect id="SVGID_1_" x="0" width="209.764" height="85.04"/>
		</defs>
		<clipPath id="SVGID_2_">
			<use xlink:href="#SVGID_1_"  overflow="visible"/>
		</clipPath>
		<path clip-path="url(#SVGID_2_)" d="M32.933,37.489v-0.545c0.862,0.034,1.594,0.051,2.196,0.051c0.426,0,1.188-0.011,2.289-0.034
			c1.101-0.022,1.844-0.034,2.229-0.034c0.414,0,0.793,0.005,1.137,0.013c0.344,0.008,0.654,0.024,0.933,0.047
			c-0.142,0.482-0.233,1.341-0.273,2.579h-0.535c-0.052-0.687-0.122-1.215-0.214-1.583c-0.295-0.102-0.659-0.178-1.093-0.226
			c-0.435-0.048-0.938-0.072-1.511-0.072c-0.574,0-1.166,0.033-1.779,0.102c-0.034,0.306-0.057,0.593-0.067,0.859
			c-0.007,0.154-0.021,0.803-0.043,1.949v1.89c0.635,0.017,1.196,0.025,1.686,0.025c0.72,0,1.296-0.037,1.727-0.11
			c0.165-0.029,0.271-0.075,0.319-0.14c0.049-0.066,0.102-0.306,0.158-0.72l0.068-0.528h0.535l-0.059,1.941l0.059,2.084h-0.535
			l-0.06-0.543c-0.062-0.619-0.107-0.951-0.137-0.996c-0.045-0.08-0.153-0.14-0.323-0.18c-0.324-0.074-1.056-0.111-2.196-0.111
			c-0.402,0-0.816,0.012-1.242,0.035v1.719c0,0.771,0.012,1.523,0.033,2.256c0.013,0.539,0.051,0.859,0.115,0.962
			c0.065,0.103,0.171,0.178,0.319,0.228c0.147,0.047,0.556,0.077,1.226,0.088v0.545c-0.72-0.045-1.438-0.068-2.152-0.068
			c-0.643,0-1.578,0.023-2.81,0.068v-0.545c0.669-0.011,1.078-0.041,1.227-0.088c0.146-0.05,0.249-0.115,0.306-0.201
			c0.068-0.113,0.111-0.389,0.128-0.826c0.005-0.119,0.017-0.924,0.034-2.416v-3.941c0-0.771-0.009-1.527-0.026-2.264
			c-0.017-0.539-0.058-0.858-0.123-0.957c-0.065-0.1-0.17-0.173-0.315-0.222C34.018,37.53,33.608,37.5,32.933,37.489"/>
	</g>
	<g>
		<defs>
			<rect id="SVGID_3_" x="0" width="209.764" height="85.04"/>
		</defs>
		<clipPath id="SVGID_4_">
			<use xlink:href="#SVGID_3_"  overflow="visible"/>
		</clipPath>
		<path clip-path="url(#SVGID_4_)" d="M43.105,43.073c0-0.898,0.136-1.726,0.404-2.486c0.27-0.761,0.717-1.444,1.341-2.051
			c0.624-0.608,1.331-1.066,2.119-1.375c0.789-0.31,1.691-0.464,2.707-0.464c0.936,0,1.787,0.132,2.553,0.396
			c0.767,0.264,1.396,0.612,1.885,1.047c0.491,0.434,0.879,0.909,1.162,1.425c0.217,0.386,0.388,0.84,0.517,1.362
			c0.126,0.522,0.189,1.081,0.189,1.677c0,1.912-0.642,3.503-1.927,4.775c-1.285,1.271-2.907,1.904-4.865,1.904
			c-0.89,0-1.722-0.144-2.493-0.434c-0.771-0.289-1.425-0.719-1.958-1.29c-0.532-0.569-0.938-1.263-1.217-2.076
			C43.245,44.67,43.105,43.868,43.105,43.073 M44.876,42.366c0,0.539,0.053,1.085,0.161,1.642c0.107,0.556,0.243,1.035,0.408,1.439
			c0.272,0.68,0.629,1.252,1.068,1.715c0.44,0.463,0.93,0.803,1.472,1.021s1.143,0.327,1.801,0.327c0.914,0,1.708-0.223,2.383-0.668
			c0.676-0.445,1.179-1.072,1.512-1.881c0.331-0.81,0.497-1.74,0.497-2.797c0-0.9-0.119-1.732-0.357-2.493
			c-0.147-0.466-0.344-0.887-0.588-1.264c-0.242-0.377-0.533-0.706-0.872-0.988c-0.338-0.28-0.775-0.517-1.314-0.71
			s-1.121-0.29-1.745-0.29c-0.902,0-1.694,0.201-2.374,0.605c-0.681,0.403-1.194,0.986-1.536,1.749
			C45.047,40.537,44.876,41.401,44.876,42.366 M47.965,34.016c0.261,0,0.479,0.089,0.66,0.268c0.178,0.179,0.268,0.399,0.268,0.66
			c0,0.255-0.091,0.473-0.272,0.655c-0.183,0.182-0.4,0.272-0.655,0.272c-0.256,0-0.474-0.09-0.655-0.272s-0.272-0.4-0.272-0.655
			c0-0.261,0.091-0.481,0.272-0.66C47.491,34.105,47.709,34.016,47.965,34.016 M51.48,34.016c0.255,0,0.475,0.089,0.655,0.268
			c0.182,0.179,0.273,0.399,0.273,0.66c0,0.255-0.092,0.473-0.273,0.655c-0.181,0.182-0.4,0.272-0.655,0.272
			s-0.474-0.09-0.654-0.272c-0.183-0.182-0.273-0.4-0.273-0.655c0-0.261,0.09-0.481,0.269-0.66
			C51,34.105,51.219,34.016,51.48,34.016"/>
	</g>
	<g>
		<defs>
			<rect id="SVGID_5_" x="0" width="209.764" height="85.04"/>
		</defs>
		<clipPath id="SVGID_6_">
			<use xlink:href="#SVGID_5_"  overflow="visible"/>
		</clipPath>
		<path clip-path="url(#SVGID_6_)" d="M57.21,37.489v-0.545c0.222,0.005,0.559,0.014,1.013,0.025l1.634,0.043
			c0.324,0,0.826-0.011,1.507-0.034c0.886-0.034,1.399-0.051,1.54-0.051c1.084,0,1.874,0.097,2.37,0.29
			c0.497,0.192,0.882,0.506,1.154,0.94c0.272,0.434,0.408,0.906,0.408,1.417c0,0.477-0.127,0.95-0.382,1.421
			c-0.257,0.472-0.626,0.863-1.112,1.175c-0.484,0.312-1.115,0.553-1.893,0.723c0.142,0.199,0.477,0.643,1.004,1.328l2.145,2.826
			c0.613,0.789,0.97,1.229,1.072,1.318c0.052,0.041,0.103,0.068,0.154,0.086c0.085,0.028,0.271,0.043,0.562,0.043v0.545
			c-0.431-0.035-0.809-0.052-1.133-0.052c-0.335,0-0.746,0.017-1.233,0.052c-0.37-0.427-0.988-1.258-1.855-2.494
			c-0.482-0.687-0.908-1.26-1.277-1.721c-0.595-0.76-1.163-1.449-1.702-2.067l0.085-0.256c0.295,0.017,0.52,0.026,0.672,0.026
			c1.033,0,1.816-0.244,2.351-0.732c0.533-0.489,0.8-1.132,0.8-1.932c0-0.698-0.23-1.253-0.69-1.665
			c-0.46-0.411-1.153-0.617-2.085-0.617c-0.584,0-1.157,0.089-1.719,0.264c-0.022,0.307-0.04,0.593-0.052,0.86
			c-0.005,0.079-0.025,0.905-0.06,2.477v3.778c0,0.771,0.013,1.523,0.034,2.256c0.013,0.539,0.05,0.859,0.115,0.962
			s0.172,0.178,0.319,0.228c0.147,0.047,0.556,0.077,1.226,0.088v0.545c-0.806-0.045-1.546-0.068-2.221-0.068
			c-0.545,0-1.461,0.023-2.75,0.068v-0.545c0.669-0.011,1.078-0.041,1.226-0.088c0.148-0.05,0.25-0.115,0.307-0.201
			c0.068-0.113,0.11-0.389,0.128-0.826c0.006-0.119,0.017-0.924,0.033-2.416v-3.941c0-0.771-0.008-1.527-0.025-2.264
			c-0.018-0.539-0.059-0.858-0.123-0.957c-0.066-0.1-0.17-0.173-0.315-0.222C58.295,37.53,57.886,37.5,57.21,37.489"/>
	</g>
	<g>
		<defs>
			<rect id="SVGID_7_" x="0" width="209.764" height="85.04"/>
		</defs>
		<clipPath id="SVGID_8_">
			<use xlink:href="#SVGID_7_"  overflow="visible"/>
		</clipPath>
		<path clip-path="url(#SVGID_8_)" d="M69.896,48.622c0.091-0.545,0.146-1.427,0.162-2.646h0.579
			c0.028,0.829,0.074,1.316,0.14,1.469c0.065,0.15,0.224,0.311,0.474,0.48c0.249,0.17,0.583,0.322,1.003,0.455
			c0.421,0.134,0.826,0.199,1.218,0.199c0.573,0,1.101-0.131,1.583-0.396s0.834-0.608,1.055-1.039
			c0.223-0.429,0.332-0.886,0.332-1.375c0-0.374-0.055-0.696-0.166-0.97c-0.109-0.271-0.278-0.492-0.506-0.659
			c-0.227-0.167-0.508-0.286-0.843-0.353c-0.21-0.035-0.63-0.092-1.259-0.172c-0.63-0.078-1.167-0.166-1.609-0.264
			c-0.59-0.182-1.023-0.394-1.302-0.638s-0.504-0.565-0.677-0.962c-0.174-0.397-0.261-0.825-0.261-1.285
			c0-0.669,0.176-1.301,0.524-1.894c0.348-0.593,0.865-1.054,1.549-1.383c0.685-0.329,1.425-0.493,2.227-0.493
			c0.481,0,1.008,0.063,1.577,0.194c0.571,0.129,1.104,0.317,1.597,0.563c-0.079,0.357-0.137,0.691-0.17,1
			c-0.034,0.309-0.06,0.765-0.077,1.366h-0.578c-0.017-0.873-0.043-1.35-0.077-1.43c-0.141-0.204-0.335-0.388-0.578-0.553
			c-0.585-0.329-1.194-0.494-1.831-0.494c-0.821,0-1.479,0.251-1.97,0.753c-0.491,0.502-0.736,1.152-0.736,1.952
			c0,0.482,0.088,0.855,0.265,1.118c0.175,0.264,0.489,0.475,0.943,0.634c0.312,0.108,0.823,0.209,1.533,0.302
			c0.709,0.094,1.347,0.194,1.915,0.302c0.533,0.159,0.927,0.347,1.183,0.566c0.256,0.218,0.466,0.505,0.63,0.859
			c0.165,0.354,0.246,0.771,0.246,1.246c0,1.129-0.468,2.111-1.403,2.951c-0.938,0.84-2.148,1.26-3.634,1.26
			C71.828,49.286,70.81,49.063,69.896,48.622"/>
	</g>
	<g>
		<defs>
			<rect id="SVGID_9_" x="0" width="209.764" height="85.04"/>
		</defs>
		<clipPath id="SVGID_10_">
			<use xlink:href="#SVGID_9_"  overflow="visible"/>
		</clipPath>
		<path clip-path="url(#SVGID_10_)" d="M84.348,49.124c-0.17-0.494-0.525-1.447-1.063-2.859l-2.895-7.158
			c-0.306-0.76-0.497-1.2-0.57-1.319c-0.051-0.074-0.122-0.128-0.213-0.162c-0.124-0.056-0.437-0.102-0.936-0.136v-0.545
			c1.027,0.046,1.784,0.069,2.272,0.069c0.459,0,1.239-0.023,2.341-0.069v0.605c-0.692,0.011-1.095,0.025-1.204,0.042
			c-0.111,0.017-0.188,0.05-0.231,0.098c-0.042,0.048-0.062,0.103-0.062,0.166c0,0.062,0.04,0.21,0.118,0.443
			c0.244,0.754,0.457,1.362,0.64,1.821l2.664,6.723l2.221-5.574c0.323-0.8,0.633-1.671,0.928-2.613
			c0.124-0.403,0.188-0.652,0.188-0.749c0-0.136-0.073-0.227-0.222-0.272c-0.113-0.04-0.55-0.088-1.311-0.145v-0.545
			c0.857,0.034,1.501,0.052,1.932,0.052c0.443,0,1.053-0.018,1.83-0.052v0.545c-0.431,0.017-0.688,0.046-0.774,0.085
			c-0.085,0.04-0.164,0.119-0.238,0.238c-0.051,0.085-0.261,0.545-0.63,1.379l-2.655,6.537l-0.655,1.679
			c-0.137,0.334-0.246,0.623-0.332,0.866c-0.086,0.244-0.179,0.528-0.28,0.853h-0.86V49.124z"/>
	</g>
	<g>
		<defs>
			<rect id="SVGID_11_" x="0" width="209.764" height="85.04"/>
		</defs>
		<clipPath id="SVGID_12_">
			<use xlink:href="#SVGID_11_"  overflow="visible"/>
		</clipPath>
		<path clip-path="url(#SVGID_12_)" d="M89.025,49.04v-0.58c0.448-0.006,0.729-0.022,0.839-0.055c0.11-0.031,0.213-0.091,0.307-0.18
			c0.093-0.088,0.229-0.314,0.404-0.686c0.102-0.209,0.472-1.006,1.106-2.392l2.128-4.8c0.232-0.528,0.729-1.703,1.489-3.524h0.553
			l3.634,8.537c0.592,1.384,0.982,2.253,1.176,2.604c0.107,0.199,0.225,0.328,0.354,0.393c0.127,0.062,0.415,0.096,0.863,0.102v0.58
			c-0.885-0.058-1.503-0.086-1.855-0.086l-2.741,0.086v-0.58c0.637-0.01,1.021-0.03,1.158-0.06c0.137-0.028,0.229-0.069,0.276-0.123
			c0.049-0.055,0.073-0.12,0.073-0.2c0-0.125-0.04-0.285-0.119-0.484l-1.047-2.604h-4.93l-0.927,2.187
			c-0.165,0.393-0.247,0.68-0.247,0.861c0,0.078,0.023,0.144,0.068,0.194c0.062,0.073,0.159,0.125,0.29,0.153
			c0.209,0.045,0.578,0.07,1.105,0.076v0.578c-0.959-0.051-1.677-0.076-2.152-0.076C90.279,48.961,89.677,48.988,89.025,49.04
			 M92.983,44.263h4.298l-2.128-5.132L92.983,44.263z"/>
	</g>
	<g>
		<defs>
			<rect id="SVGID_13_" x="0" width="209.764" height="85.04"/>
		</defs>
		<clipPath id="SVGID_14_">
			<use xlink:href="#SVGID_13_"  overflow="visible"/>
		</clipPath>
		<path clip-path="url(#SVGID_14_)" d="M102.668,37.489v-0.545c0.222,0.005,0.559,0.014,1.013,0.025l1.634,0.043
			c0.324,0,0.826-0.011,1.507-0.034c0.886-0.034,1.399-0.051,1.541-0.051c1.083,0,1.873,0.097,2.37,0.29
			c0.497,0.192,0.881,0.506,1.153,0.94c0.272,0.434,0.408,0.906,0.408,1.417c0,0.477-0.128,0.95-0.383,1.421
			c-0.257,0.472-0.625,0.863-1.11,1.175s-1.116,0.553-1.896,0.723c0.144,0.199,0.479,0.643,1.006,1.328l2.146,2.826
			c0.611,0.789,0.97,1.229,1.072,1.318c0.051,0.041,0.102,0.068,0.151,0.086c0.086,0.028,0.273,0.043,0.562,0.043v0.545
			c-0.432-0.035-0.81-0.052-1.134-0.052c-0.334,0-0.745,0.017-1.232,0.052c-0.37-0.427-0.986-1.258-1.854-2.494
			c-0.482-0.687-0.908-1.26-1.276-1.721c-0.597-0.76-1.164-1.449-1.703-2.067l0.085-0.256c0.295,0.017,0.52,0.026,0.672,0.026
			c1.034,0,1.817-0.244,2.351-0.732c0.533-0.489,0.801-1.132,0.801-1.932c0-0.698-0.23-1.253-0.689-1.665
			c-0.46-0.411-1.154-0.617-2.086-0.617c-0.584,0-1.157,0.089-1.719,0.264c-0.022,0.307-0.04,0.593-0.052,0.86
			c-0.006,0.079-0.025,0.905-0.061,2.477v3.778c0,0.771,0.013,1.523,0.034,2.256c0.013,0.539,0.05,0.859,0.115,0.962
			c0.064,0.103,0.172,0.178,0.318,0.228c0.147,0.047,0.558,0.077,1.227,0.088v0.545c-0.807-0.045-1.546-0.068-2.222-0.068
			c-0.544,0-1.46,0.023-2.75,0.068v-0.545c0.669-0.011,1.078-0.041,1.226-0.088c0.148-0.05,0.25-0.115,0.306-0.201
			c0.068-0.113,0.111-0.389,0.129-0.826c0.006-0.119,0.017-0.924,0.033-2.416v-3.941c0-0.771-0.008-1.527-0.025-2.264
			c-0.018-0.539-0.059-0.858-0.123-0.957c-0.066-0.1-0.17-0.173-0.315-0.222C103.753,37.53,103.344,37.5,102.668,37.489"/>
	</g>
	<g>
		<defs>
			<rect id="SVGID_15_" x="0" width="209.764" height="85.04"/>
		</defs>
		<clipPath id="SVGID_16_">
			<use xlink:href="#SVGID_15_"  overflow="visible"/>
		</clipPath>
		<path clip-path="url(#SVGID_16_)" d="M115.354,48.622c0.09-0.545,0.145-1.427,0.161-2.646h0.579
			c0.028,0.829,0.074,1.316,0.14,1.469c0.066,0.15,0.225,0.311,0.474,0.48c0.25,0.17,0.584,0.322,1.004,0.455
			c0.422,0.134,0.826,0.199,1.219,0.199c0.571,0,1.1-0.131,1.583-0.396c0.481-0.265,0.834-0.608,1.055-1.039
			c0.223-0.429,0.332-0.886,0.332-1.375c0-0.374-0.055-0.696-0.167-0.97c-0.108-0.271-0.278-0.492-0.505-0.659
			c-0.228-0.167-0.508-0.286-0.843-0.353c-0.21-0.035-0.631-0.092-1.261-0.172c-0.63-0.078-1.166-0.166-1.607-0.264
			c-0.591-0.182-1.023-0.394-1.303-0.638c-0.277-0.244-0.505-0.565-0.678-0.962s-0.26-0.825-0.26-1.285
			c0-0.669,0.175-1.301,0.524-1.894c0.348-0.593,0.864-1.054,1.549-1.383s1.425-0.493,2.227-0.493c0.48,0,1.008,0.063,1.577,0.194
			c0.571,0.129,1.104,0.317,1.597,0.563c-0.078,0.357-0.137,0.691-0.17,1c-0.035,0.309-0.06,0.765-0.077,1.366h-0.577
			c-0.018-0.873-0.043-1.35-0.077-1.43c-0.142-0.204-0.335-0.388-0.579-0.553c-0.584-0.329-1.194-0.494-1.83-0.494
			c-0.822,0-1.479,0.251-1.97,0.753c-0.491,0.502-0.736,1.152-0.736,1.952c0,0.482,0.088,0.855,0.264,1.118
			c0.177,0.264,0.49,0.475,0.944,0.634c0.312,0.108,0.823,0.209,1.533,0.302c0.709,0.094,1.347,0.194,1.914,0.302
			c0.534,0.159,0.928,0.347,1.184,0.566c0.256,0.218,0.465,0.505,0.63,0.859c0.165,0.354,0.247,0.771,0.247,1.246
			c0,1.129-0.469,2.111-1.404,2.951c-0.938,0.84-2.147,1.26-3.635,1.26C117.286,49.286,116.268,49.063,115.354,48.622"/>
	</g>
	<g>
		<defs>
			<rect id="SVGID_17_" x="0" width="209.764" height="85.04"/>
		</defs>
		<clipPath id="SVGID_18_">
			<use xlink:href="#SVGID_17_"  overflow="visible"/>
		</clipPath>
		<path clip-path="url(#SVGID_18_)" d="M125.146,37.489v-0.545c0.597,0.023,1.167,0.034,1.711,0.034
			c0.551,0,1.078-0.011,1.583-0.034c0.499,1.135,0.956,2.131,1.37,2.987l3.228,6.64l2.909-6.086
			c0.795-1.657,1.325-2.837,1.593-3.541c0.602,0.023,1.108,0.034,1.522,0.034c0.38,0,0.996-0.011,1.848-0.034v0.545
			c-0.676,0.011-1.087,0.041-1.229,0.089c-0.146,0.049-0.245,0.115-0.302,0.2c-0.073,0.114-0.116,0.389-0.128,0.826
			c-0.006,0.114-0.021,0.919-0.043,2.417v3.94c0,0.771,0.013,1.523,0.034,2.256c0.018,0.539,0.059,0.859,0.122,0.962
			c0.066,0.103,0.171,0.178,0.315,0.228c0.144,0.047,0.555,0.077,1.229,0.088v0.545c-1.146-0.051-1.955-0.076-2.426-0.076
			c-0.381,0-1.221,0.025-2.52,0.076v-0.545c0.675-0.011,1.087-0.041,1.232-0.088c0.148-0.05,0.247-0.115,0.3-0.201
			c0.071-0.113,0.114-0.389,0.127-0.826c0.006-0.119,0.021-0.924,0.042-2.416v-6.248l-2.938,6.145
			c-0.459,0.959-0.818,1.729-1.08,2.313c-0.187,0.427-0.471,1.103-0.851,2.025h-0.332c-0.073-0.215-0.143-0.388-0.205-0.52
			l-0.578-1.232l-4.069-8.453v5.966c0,0.771,0.014,1.523,0.034,2.256c0.019,0.539,0.06,0.859,0.123,0.962
			c0.066,0.103,0.171,0.178,0.316,0.228c0.144,0.047,0.555,0.077,1.229,0.088v0.545l-2.05-0.068l-2.12,0.068v-0.545
			c0.67-0.011,1.079-0.041,1.227-0.088c0.147-0.05,0.25-0.115,0.307-0.201c0.067-0.113,0.11-0.389,0.128-0.826
			c0.005-0.119,0.017-0.924,0.034-2.416v-3.941c0-0.771-0.01-1.527-0.026-2.264c-0.017-0.539-0.058-0.858-0.123-0.957
			c-0.063-0.1-0.17-0.173-0.315-0.222C126.23,37.53,125.821,37.5,125.146,37.489"/>
	</g>
	<g>
		<defs>
			<rect id="SVGID_19_" x="0" width="209.764" height="85.04"/>
		</defs>
		<clipPath id="SVGID_20_">
			<use xlink:href="#SVGID_19_"  overflow="visible"/>
		</clipPath>
		<path clip-path="url(#SVGID_20_)" d="M141.572,49.04v-0.58c0.449-0.006,0.729-0.022,0.84-0.055
			c0.109-0.031,0.212-0.091,0.306-0.18c0.095-0.088,0.229-0.314,0.404-0.686c0.103-0.209,0.472-1.006,1.106-2.392l2.127-4.8
			c0.233-0.528,0.729-1.703,1.489-3.524h0.554l3.636,8.537c0.59,1.384,0.98,2.253,1.174,2.604c0.107,0.199,0.227,0.328,0.354,0.393
			c0.127,0.062,0.415,0.096,0.862,0.102v0.58c-0.885-0.058-1.503-0.086-1.854-0.086l-2.74,0.086v-0.58
			c0.636-0.01,1.021-0.03,1.157-0.06c0.137-0.028,0.229-0.069,0.277-0.123c0.048-0.055,0.071-0.12,0.071-0.2
			c0-0.125-0.04-0.285-0.119-0.484l-1.048-2.604h-4.928l-0.928,2.187c-0.164,0.393-0.247,0.68-0.247,0.861
			c0,0.078,0.021,0.144,0.067,0.194c0.062,0.073,0.159,0.125,0.29,0.153c0.209,0.045,0.579,0.07,1.105,0.076v0.578
			c-0.959-0.051-1.677-0.076-2.153-0.076C142.827,48.961,142.226,48.988,141.572,49.04 M145.53,44.263h4.299l-2.128-5.132
			L145.53,44.263z"/>
	</g>
	<g>
		<defs>
			<rect id="SVGID_21_" x="0" width="209.764" height="85.04"/>
		</defs>
		<clipPath id="SVGID_22_">
			<use xlink:href="#SVGID_21_"  overflow="visible"/>
		</clipPath>
		<path clip-path="url(#SVGID_22_)" d="M160.066,48.495v0.545l-2.568-0.068c-0.178,0-0.979,0.021-2.409,0.068v-0.545
			c0.669-0.012,1.078-0.041,1.226-0.09s0.249-0.115,0.308-0.199c0.067-0.115,0.109-0.39,0.128-0.826
			c0.006-0.119,0.017-0.926,0.033-2.418v-3.94c0-0.771-0.009-1.527-0.025-2.264c-0.017-0.539-0.058-0.858-0.124-0.957
			c-0.065-0.1-0.17-0.173-0.314-0.222c-0.145-0.048-0.555-0.078-1.229-0.089v-0.545c1.101,0.034,1.944,0.051,2.528,0.051
			c0.576,0,1.395-0.017,2.449-0.051v0.545c-0.669,0.011-1.076,0.041-1.226,0.089c-0.147,0.049-0.246,0.115-0.297,0.2
			c-0.074,0.114-0.119,0.389-0.136,0.826c0,0.114-0.014,0.919-0.034,2.417v1.753c0.306-0.164,0.669-0.45,1.089-0.859l1.073-1.039
			l1.896-1.898c0.732-0.732,1.186-1.203,1.354-1.412v-0.622c0.675,0.023,1.205,0.034,1.591,0.034c0.415,0,0.859-0.011,1.337-0.034
			v0.553c-0.54,0-0.902,0.023-1.09,0.069c-0.188,0.045-0.371,0.13-0.556,0.255c-0.36,0.267-0.919,0.743-1.668,1.43l-3.395,3.106
			l5.106,4.784c0.821,0.771,1.29,1.191,1.403,1.26s0.332,0.105,0.655,0.109v0.529c-0.556-0.023-0.928-0.035-1.115-0.035
			c-0.209,0-0.65,0.012-1.328,0.035c-0.13-0.131-0.604-0.588-1.421-1.371l-0.877-0.842l-3.864-3.627l-0.193,0.111v1.65
			c0,0.771,0.011,1.523,0.034,2.256c0.011,0.539,0.049,0.859,0.112,0.962c0.066,0.103,0.172,0.178,0.319,0.228
			C158.989,48.454,159.397,48.483,160.066,48.495"/>
	</g>
	<g>
		<defs>
			<rect id="SVGID_23_" x="0" width="209.764" height="85.04"/>
		</defs>
		<clipPath id="SVGID_24_">
			<use xlink:href="#SVGID_23_"  overflow="visible"/>
		</clipPath>
		<path clip-path="url(#SVGID_24_)" d="M168.593,39.761h-0.528c-0.006-1.355-0.034-2.295-0.085-2.817
			c0.618,0.022,1.588,0.051,2.911,0.085c1.073,0.023,1.787,0.034,2.146,0.034c0.385,0,1.278-0.017,2.681-0.051
			c1.016-0.023,1.756-0.046,2.221-0.068c-0.066,0.635-0.113,1.574-0.136,2.817h-0.544l-0.069-0.817
			c-0.046-0.494-0.077-0.775-0.094-0.843s-0.041-0.116-0.072-0.145c-0.03-0.028-0.078-0.05-0.14-0.068
			c-0.08-0.017-0.364-0.039-0.853-0.067c-0.487-0.029-0.875-0.043-1.156-0.043h-1.038c-0.059,0.545-0.085,1.279-0.085,2.204v4.979
			c0,0.771,0.008,1.522,0.023,2.256c0.019,0.539,0.06,0.857,0.123,0.961c0.066,0.104,0.17,0.178,0.316,0.227
			c0.144,0.049,0.554,0.077,1.229,0.088v0.547c-1.016-0.047-1.776-0.068-2.289-0.068c-0.221,0-1.104,0.021-2.654,0.068v-0.547
			c0.676-0.011,1.087-0.039,1.232-0.088c0.148-0.049,0.247-0.115,0.298-0.199c0.074-0.113,0.12-0.39,0.139-0.826
			c0-0.119,0.011-0.924,0.034-2.418V40c0-0.238-0.008-0.499-0.019-0.783l-0.051-1.438h-1.271c-0.73,0-1.312,0.028-1.742,0.085
			c-0.138,0.017-0.227,0.054-0.267,0.11c-0.062,0.097-0.119,0.406-0.17,0.928L168.593,39.761z"/>
	</g>
	<g>
		<defs>
			<rect id="SVGID_25_" x="0" width="209.764" height="85.04"/>
		</defs>
		<clipPath id="SVGID_26_">
			<use xlink:href="#SVGID_25_"  overflow="visible"/>
		</clipPath>
		<path clip-path="url(#SVGID_26_)" d="M179.336,49.04v-0.537c0.596-0.006,0.986-0.051,1.175-0.135
			c0.079-0.035,0.136-0.09,0.17-0.162c0.057-0.115,0.097-0.412,0.119-0.896c0.034-0.749,0.051-1.396,0.051-1.938v-4.351
			c0-0.771-0.009-1.526-0.024-2.264c-0.019-0.539-0.06-0.858-0.123-0.957c-0.065-0.1-0.17-0.173-0.316-0.221
			c-0.144-0.049-0.553-0.079-1.229-0.09v-0.545l2.426,0.052l2.569-0.043c1.23-0.017,2.125-0.026,2.682-0.026
			c0.562,0,1.092,0.031,1.592,0.094c-0.091,0.323-0.153,0.604-0.187,0.843c-0.014,0.05-0.063,0.641-0.153,1.77h-0.537
			c0.006-0.579-0.031-1.107-0.11-1.583c-0.312-0.131-0.654-0.219-1.029-0.264c-0.637-0.08-1.271-0.119-1.906-0.119
			c-0.136,0-0.44,0.011-0.91,0.034c-0.472,0.023-0.809,0.043-1.014,0.06c-0.022,0.629-0.039,1.219-0.052,1.77l-0.033,2.877
			c0.664,0.034,1.272,0.051,1.831,0.051c0.675,0,1.25-0.031,1.727-0.094c0.182-0.022,0.298-0.068,0.35-0.136
			s0.098-0.301,0.138-0.698l0.05-0.596h0.511v0.162l-0.043,1.77l0.043,1.983h-0.595l-0.026-0.58
			c-0.012-0.419-0.05-0.681-0.115-0.782c-0.064-0.102-0.188-0.174-0.368-0.213c-0.323-0.068-0.95-0.102-1.883-0.102
			c-0.38,0-0.92,0.013-1.616,0.041c-0.028,0.568-0.042,1.41-0.042,2.529c0,1.049,0.014,1.846,0.042,2.391
			c0.815,0.062,1.732,0.094,2.75,0.094c0.72,0,1.232-0.021,1.54-0.066c0.306-0.045,0.591-0.123,0.851-0.229
			c0.068-0.177,0.136-0.415,0.204-0.716c0.125-0.506,0.207-0.885,0.248-1.141h0.562c-0.147,1.146-0.222,2.098-0.222,2.852
			c-0.488,0.074-1.081,0.111-1.779,0.111l-5.081-0.068C181.492,48.969,180.749,48.993,179.336,49.04"/>
	</g>
	<g>
		<defs>
			<rect id="SVGID_27_" x="0" width="209.764" height="85.04"/>
		</defs>
		<clipPath id="SVGID_28_">
			<use xlink:href="#SVGID_27_"  overflow="visible"/>
		</clipPath>
		<path clip-path="url(#SVGID_28_)" d="M190.299,49.04v-0.537c0.597-0.006,0.987-0.051,1.176-0.135
			c0.08-0.035,0.136-0.09,0.17-0.162c0.058-0.115,0.098-0.412,0.119-0.896c0.033-0.749,0.051-1.396,0.051-1.938v-6.938
			c0-0.187-0.011-0.31-0.034-0.366c-0.045-0.102-0.146-0.224-0.306-0.366c-0.103-0.091-0.22-0.149-0.354-0.174
			c-0.135-0.027-0.431-0.042-0.891-0.048v-0.536c0.948,0.023,1.544,0.034,1.787,0.034c0.415,0,0.826-0.011,1.234-0.034
			c0.481,0.63,0.837,1.095,1.063,1.396l1.763,2.171l2.569,3.098c0.822,0.987,1.483,1.765,1.982,2.333
			c0.317,0.374,0.584,0.669,0.801,0.885v-6.222c0-0.556-0.021-1.209-0.06-1.958c-0.022-0.47-0.061-0.762-0.11-0.876
			c-0.039-0.074-0.1-0.128-0.179-0.162c-0.188-0.079-0.577-0.122-1.167-0.128v-0.536c0.67,0.023,1.349,0.034,2.035,0.034
			c0.646,0,1.232-0.011,1.761-0.034v0.536c-0.59,0.006-0.979,0.049-1.165,0.128c-0.08,0.034-0.137,0.091-0.171,0.17
			c-0.058,0.108-0.098,0.406-0.119,0.894c-0.033,0.749-0.051,1.393-0.051,1.932V44.7c0,0.828,0.015,2.375,0.042,4.639l-0.876-0.256
			l-0.204-0.043c-0.034-0.012-0.064-0.029-0.096-0.051c-0.038-0.029-0.146-0.143-0.322-0.342c-0.472-0.531-0.816-0.936-1.038-1.208
			l-1.099-1.388l-6.034-7.209v6.53c0,0.555,0.021,1.211,0.061,1.965c0.021,0.472,0.059,0.761,0.11,0.869
			c0.04,0.08,0.1,0.135,0.18,0.17c0.187,0.08,0.575,0.121,1.165,0.127v0.537c-0.499-0.041-1.05-0.062-1.651-0.062
			C191.786,48.978,191.071,48.999,190.299,49.04"/>
	</g>
	<g>
		<defs>
			<rect id="SVGID_29_" x="0" width="209.764" height="85.04"/>
		</defs>
		<clipPath id="SVGID_30_">
			<use xlink:href="#SVGID_29_"  overflow="visible"/>
		</clipPath>
		<polygon clip-path="url(#SVGID_30_)" fill="#FFFFFF" points="15.557,68.859 14.105,68.859 13.63,59.891 13.63,16.225 
			15.557,13.485 17.482,16.225 17.482,59.891 17.008,68.859 		"/>
	</g>
	<g>
		<defs>
			<rect id="SVGID_31_" x="0" width="209.764" height="85.04"/>
		</defs>
		<clipPath id="SVGID_32_">
			<use xlink:href="#SVGID_31_"  overflow="visible"/>
		</clipPath>
		<path clip-path="url(#SVGID_32_)" d="M17.078,68.933h-3.044l-0.005-0.07l-0.475-8.969V16.202l2.001-2.847l2.001,2.847V59.89
			L17.078,68.933z M14.176,68.784h2.76l0.472-8.896V16.249l-1.852-2.634l-1.851,2.634V59.89L14.176,68.784z"/>
	</g>
	<g>
		<defs>
			<rect id="SVGID_33_" x="0" width="209.764" height="85.04"/>
		</defs>
		<clipPath id="SVGID_34_">
			<use xlink:href="#SVGID_33_"  overflow="visible"/>
		</clipPath>
		<polygon clip-path="url(#SVGID_34_)" fill="#FFFFFF" points="14.114,68.87 13.711,69.586 14.155,71.594 16.975,71.594 
			17.418,69.586 17.015,68.87 		"/>
	</g>
	<g>
		<defs>
			<rect id="SVGID_35_" x="0" width="209.764" height="85.04"/>
		</defs>
		<clipPath id="SVGID_36_">
			<use xlink:href="#SVGID_35_"  overflow="visible"/>
		</clipPath>
		<path clip-path="url(#SVGID_36_)" d="M16.975,71.668h-2.82c-0.034,0-0.064-0.023-0.072-0.058l-0.443-2.009
			c-0.004-0.018-0.002-0.036,0.008-0.053l0.402-0.719c0.014-0.022,0.039-0.037,0.064-0.037h2.902c0.027,0,0.052,0.015,0.065,0.037
			l0.402,0.719c0.01,0.017,0.012,0.035,0.008,0.053l-0.443,2.009C17.041,71.645,17.01,71.668,16.975,71.668 M14.215,71.52h2.7
			l0.425-1.921l-0.368-0.654h-2.813l-0.367,0.654L14.215,71.52z"/>
	</g>
	<g>
		<defs>
			<rect id="SVGID_37_" x="0" width="209.764" height="85.04"/>
		</defs>
		<clipPath id="SVGID_38_">
			<use xlink:href="#SVGID_37_"  overflow="visible"/>
		</clipPath>
		<polygon clip-path="url(#SVGID_38_)" fill="#FFFFFF" points="13.619,57.299 7.131,56.478 7.131,58.76 13.619,59.89 17.472,59.89 
			23.959,58.76 23.959,56.478 17.472,57.299 		"/>
	</g>
	<g>
		<defs>
			<rect id="SVGID_39_" x="0" width="209.764" height="85.04"/>
		</defs>
		<clipPath id="SVGID_40_">
			<use xlink:href="#SVGID_39_"  overflow="visible"/>
		</clipPath>
		<path clip-path="url(#SVGID_40_)" d="M13.62,59.965l-6.501-1.131c-0.036-0.006-0.062-0.037-0.062-0.074v-2.282
			c0-0.021,0.009-0.042,0.025-0.058c0.016-0.014,0.039-0.019,0.059-0.018l6.483,0.821h3.848l6.479-0.821
			c0.021-0.001,0.043,0.004,0.059,0.018c0.016,0.016,0.025,0.035,0.025,0.058v2.282c0,0.037-0.026,0.068-0.062,0.074l-6.488,1.129
			L13.62,59.965z M7.206,58.7l6.426,1.117l3.84-0.001l6.413-1.116v-2.137l-6.404,0.811h-3.86c-0.003,0-0.008,0-0.011,0l-6.403-0.811
			V58.7z"/>
	</g>
	<g>
		<defs>
			<rect id="SVGID_41_" x="0" width="209.764" height="85.04"/>
		</defs>
		<clipPath id="SVGID_42_">
			<use xlink:href="#SVGID_41_"  overflow="visible"/>
		</clipPath>
		<line clip-path="url(#SVGID_42_)" fill="none" x1="13.671" y1="60.85" x2="15.273" y2="59.89"/>
	</g>
	<g>
		<defs>
			<rect id="SVGID_43_" x="0" width="209.764" height="85.04"/>
		</defs>
		<clipPath id="SVGID_44_">
			<use xlink:href="#SVGID_43_"  overflow="visible"/>
		</clipPath>
		<path clip-path="url(#SVGID_44_)" d="M13.671,60.924c-0.025,0-0.05-0.014-0.064-0.036c-0.021-0.035-0.01-0.081,0.025-0.103
			l1.602-0.961c0.036-0.023,0.081-0.01,0.104,0.025c0.021,0.035,0.01,0.082-0.025,0.104l-1.602,0.959
			C13.697,60.92,13.684,60.924,13.671,60.924"/>
	</g>
	<g>
		<defs>
			<rect id="SVGID_45_" x="0" width="209.764" height="85.04"/>
		</defs>
		<clipPath id="SVGID_46_">
			<use xlink:href="#SVGID_45_"  overflow="visible"/>
		</clipPath>
		<line clip-path="url(#SVGID_46_)" fill="none" x1="13.768" y1="62.622" x2="17.429" y2="60.458"/>
	</g>
	<g>
		<defs>
			<rect id="SVGID_47_" x="0" width="209.764" height="85.04"/>
		</defs>
		<clipPath id="SVGID_48_">
			<use xlink:href="#SVGID_47_"  overflow="visible"/>
		</clipPath>
		<path clip-path="url(#SVGID_48_)" d="M13.768,62.695c-0.024,0-0.05-0.013-0.063-0.036c-0.021-0.035-0.01-0.08,0.025-0.103
			l3.661-2.164c0.035-0.021,0.08-0.011,0.104,0.026c0.021,0.035,0.008,0.082-0.027,0.103l-3.661,2.164
			C13.794,62.692,13.781,62.695,13.768,62.695"/>
	</g>
	<g>
		<defs>
			<rect id="SVGID_49_" x="0" width="209.764" height="85.04"/>
		</defs>
		<clipPath id="SVGID_50_">
			<use xlink:href="#SVGID_49_"  overflow="visible"/>
		</clipPath>
		<line clip-path="url(#SVGID_50_)" fill="none" x1="13.845" y1="64.402" x2="17.35" y2="62.305"/>
	</g>
	<g>
		<defs>
			<rect id="SVGID_51_" x="0" width="209.764" height="85.04"/>
		</defs>
		<clipPath id="SVGID_52_">
			<use xlink:href="#SVGID_51_"  overflow="visible"/>
		</clipPath>
		<path clip-path="url(#SVGID_52_)" d="M13.845,64.477c-0.025,0-0.05-0.014-0.064-0.035c-0.021-0.035-0.01-0.082,0.025-0.104
			l3.506-2.098c0.035-0.021,0.081-0.01,0.103,0.024c0.021,0.036,0.01,0.082-0.025,0.104l-3.505,2.096
			C13.871,64.474,13.858,64.477,13.845,64.477"/>
	</g>
	<g>
		<defs>
			<rect id="SVGID_53_" x="0" width="209.764" height="85.04"/>
		</defs>
		<clipPath id="SVGID_54_">
			<use xlink:href="#SVGID_53_"  overflow="visible"/>
		</clipPath>
		<line clip-path="url(#SVGID_54_)" fill="none" x1="13.983" y1="66.159" x2="17.228" y2="64.235"/>
	</g>
	<g>
		<defs>
			<rect id="SVGID_55_" x="0" width="209.764" height="85.04"/>
		</defs>
		<clipPath id="SVGID_56_">
			<use xlink:href="#SVGID_55_"  overflow="visible"/>
		</clipPath>
		<path clip-path="url(#SVGID_56_)" d="M13.983,66.234c-0.024,0-0.05-0.013-0.063-0.036c-0.021-0.035-0.01-0.08,0.025-0.104
			l3.244-1.924c0.033-0.021,0.081-0.01,0.103,0.025c0.021,0.036,0.009,0.081-0.026,0.104l-3.244,1.924
			C14.009,66.231,13.996,66.234,13.983,66.234"/>
	</g>
	<g>
		<defs>
			<rect id="SVGID_57_" x="0" width="209.764" height="85.04"/>
		</defs>
		<clipPath id="SVGID_58_">
			<use xlink:href="#SVGID_57_"  overflow="visible"/>
		</clipPath>
		<line clip-path="url(#SVGID_58_)" fill="none" x1="14.064" y1="67.902" x2="17.132" y2="66.141"/>
	</g>
	<g>
		<defs>
			<rect id="SVGID_59_" x="0" width="209.764" height="85.04"/>
		</defs>
		<clipPath id="SVGID_60_">
			<use xlink:href="#SVGID_59_"  overflow="visible"/>
		</clipPath>
		<path clip-path="url(#SVGID_60_)" d="M14.064,67.977c-0.025,0-0.051-0.014-0.064-0.038c-0.021-0.035-0.008-0.081,0.027-0.103
			l3.067-1.76c0.035-0.021,0.08-0.01,0.102,0.026s0.009,0.082-0.026,0.103l-3.068,1.762C14.089,67.974,14.077,67.977,14.064,67.977"
			/>
	</g>
	<g>
		<defs>
			<rect id="SVGID_61_" x="0" width="209.764" height="85.04"/>
		</defs>
		<clipPath id="SVGID_62_">
			<use xlink:href="#SVGID_61_"  overflow="visible"/>
		</clipPath>
		<line clip-path="url(#SVGID_62_)" fill="none" x1="15.53" y1="68.87" x2="17.05" y2="67.988"/>
	</g>
	<g>
		<defs>
			<rect id="SVGID_63_" x="0" width="209.764" height="85.04"/>
		</defs>
		<clipPath id="SVGID_64_">
			<use xlink:href="#SVGID_63_"  overflow="visible"/>
		</clipPath>
		<path clip-path="url(#SVGID_64_)" d="M15.53,68.944c-0.025,0-0.051-0.013-0.063-0.037c-0.021-0.035-0.009-0.082,0.026-0.102
			l1.52-0.883c0.035-0.021,0.081-0.01,0.102,0.027c0.021,0.035,0.01,0.082-0.026,0.102l-1.52,0.883
			C15.556,68.941,15.542,68.944,15.53,68.944"/>
	</g>
	<g>
		<defs>
			<rect id="SVGID_65_" x="0" width="209.764" height="85.04"/>
		</defs>
		<clipPath id="SVGID_66_">
			<use xlink:href="#SVGID_65_"  overflow="visible"/>
		</clipPath>
		<line clip-path="url(#SVGID_66_)" fill="none" x1="15.558" y1="55.478" x2="15.558" y2="13.52"/>
	</g>
	<g>
		<defs>
			<rect id="SVGID_67_" x="0" width="209.764" height="85.04"/>
		</defs>
		<clipPath id="SVGID_68_">
			<use xlink:href="#SVGID_67_"  overflow="visible"/>
		</clipPath>
		<rect x="15.484" y="13.52" clip-path="url(#SVGID_68_)" width="0.149" height="41.959"/>
	</g>
	<g>
		<defs>
			<rect id="SVGID_69_" x="0" width="209.764" height="85.04"/>
		</defs>
		<clipPath id="SVGID_70_">
			<use xlink:href="#SVGID_69_"  overflow="visible"/>
		</clipPath>
		<polyline clip-path="url(#SVGID_70_)" fill="#FFFFFF" points="13.635,57.299 15.565,55.478 17.485,57.299 		"/>
	</g>
	<g>
		<defs>
			<rect id="SVGID_71_" x="0" width="209.764" height="85.04"/>
		</defs>
		<clipPath id="SVGID_72_">
			<use xlink:href="#SVGID_71_"  overflow="visible"/>
		</clipPath>
		<path clip-path="url(#SVGID_72_)" d="M13.635,57.374c-0.02,0-0.04-0.008-0.054-0.021c-0.029-0.031-0.027-0.078,0.003-0.105
			l1.929-1.82c0.03-0.027,0.075-0.027,0.104,0l1.919,1.82c0.029,0.027,0.031,0.076,0.003,0.105
			c-0.027,0.029-0.075,0.031-0.105,0.002l-1.868-1.771l-1.879,1.771C13.672,57.368,13.654,57.374,13.635,57.374"/>
	</g>
	<g>
		<defs>
			<rect id="SVGID_73_" x="0" width="209.764" height="85.04"/>
		</defs>
		<clipPath id="SVGID_74_">
			<use xlink:href="#SVGID_73_"  overflow="visible"/>
		</clipPath>
		<polygon clip-path="url(#SVGID_74_)" fill="#FFFFFF" points="17.482,59.89 17.471,57.299 13.62,57.299 13.63,59.89 		"/>
	</g>
	<g>
		<defs>
			<rect id="SVGID_75_" x="0" width="209.764" height="85.04"/>
		</defs>
		<clipPath id="SVGID_76_">
			<use xlink:href="#SVGID_75_"  overflow="visible"/>
		</clipPath>
		<path clip-path="url(#SVGID_76_)" d="M17.558,59.965h-4.001l-0.013-2.74h4.002L17.558,59.965z M13.705,59.816h3.703l-0.012-2.442
			h-3.702L13.705,59.816z"/>
	</g>
	<g>
		<defs>
			<rect id="SVGID_77_" x="0" width="209.764" height="85.04"/>
		</defs>
		<clipPath id="SVGID_78_">
			<use xlink:href="#SVGID_77_"  overflow="visible"/>
		</clipPath>
		<path clip-path="url(#SVGID_78_)" d="M24.978,33.596v16.627c0,2.902-2.077,3.492-5.148,4.033
			c-2.368,0.416-4.083,0.492-4.283,1.057c-0.2-0.564-1.854-0.641-4.221-1.057c-3.073-0.541-5.15-1.131-5.15-4.033
			c0,0-0.003-16.627,0-16.627H24.978z"/>
	</g>
	<g>
		<defs>
			<rect id="SVGID_79_" x="0" width="209.764" height="85.04"/>
		</defs>
		<clipPath id="SVGID_80_">
			<use xlink:href="#SVGID_79_"  overflow="visible"/>
		</clipPath>
		<path clip-path="url(#SVGID_80_)" d="M15.545,55.424l-0.035-0.1c-0.143-0.404-1.111-0.551-2.576-0.773
			c-0.482-0.072-1.03-0.155-1.616-0.258c-3.032-0.535-5.18-1.14-5.18-4.07L6.136,41.91c0-2.079,0-4.157,0-5.716l0.001-1.884
			c0-0.751,0-0.751,0.038-0.751h18.839l0.001,16.664c0,2.932-2.146,3.535-5.181,4.07c-0.602,0.104-1.166,0.189-1.664,0.265
			c-1.421,0.213-2.448,0.366-2.59,0.769L15.545,55.424z M6.212,33.633c-0.003,0.852,0,16.429,0,16.59
			c0,2.88,2.026,3.451,5.119,3.996c0.586,0.104,1.132,0.186,1.613,0.26c1.407,0.213,2.363,0.357,2.601,0.748
			c0.237-0.387,1.2-0.531,2.614-0.742c0.498-0.074,1.062-0.16,1.661-0.266c3.094-0.545,5.12-1.116,5.12-3.996l-0.001-16.59H6.212z"
			/>
	</g>
	<g>
		<defs>
			<rect id="SVGID_81_" x="0" width="209.764" height="85.04"/>
		</defs>
		<clipPath id="SVGID_82_">
			<use xlink:href="#SVGID_81_"  overflow="visible"/>
		</clipPath>
		<polygon clip-path="url(#SVGID_82_)" fill="#FFFFFF" points="15.253,17.113 15.883,17.113 15.883,17.815 16.565,17.815 
			16.565,18.446 15.883,18.446 15.883,19.096 15.253,19.096 15.253,18.446 14.581,18.446 14.581,17.815 15.253,17.815 		"/>
	</g>
	<g>
		<defs>
			<rect id="SVGID_83_" x="0" width="209.764" height="85.04"/>
		</defs>
		<clipPath id="SVGID_84_">
			<use xlink:href="#SVGID_83_"  overflow="visible"/>
		</clipPath>
		<path clip-path="url(#SVGID_84_)" d="M15.958,19.17h-0.779v-0.65h-0.672v-0.78h0.672v-0.702h0.779v0.702h0.681v0.78h-0.681V19.17z
			 M15.328,19.021h0.479v-0.65h0.683V17.89h-0.683v-0.703h-0.479v0.703h-0.673v0.481h0.673V19.021z"/>
	</g>
	<g>
		<defs>
			<rect id="SVGID_85_" x="0" width="209.764" height="85.04"/>
		</defs>
		<clipPath id="SVGID_86_">
			<use xlink:href="#SVGID_85_"  overflow="visible"/>
		</clipPath>
		<path clip-path="url(#SVGID_86_)" d="M14.286,20.309c0-0.71,0.575-1.286,1.284-1.286c0.713,0,1.287,0.576,1.287,1.286
			s-0.574,1.286-1.287,1.286C14.862,21.595,14.286,21.019,14.286,20.309"/>
	</g>
</g>
<g>
	<g>
		<defs>
			<path id="SVGID_87_" d="M14.286,20.309c0,0.711,0.575,1.286,1.284,1.286c0.712,0,1.286-0.575,1.286-1.286
				c0-0.71-0.574-1.285-1.286-1.285C14.862,19.023,14.286,19.599,14.286,20.309"/>
		</defs>
		<clipPath id="SVGID_88_">
			<use xlink:href="#SVGID_87_"  overflow="visible"/>
		</clipPath>
		<polygon clip-path="url(#SVGID_88_)" fill="#FFFFFF" points="15.27,18.9 15.898,18.9 15.898,20.046 16.936,20.046 16.936,20.674 
			14.188,20.674 14.188,20.046 15.27,20.046 		"/>
	</g>
	<g>
		<defs>
			<path id="SVGID_89_" d="M14.286,20.309c0,0.711,0.575,1.286,1.284,1.286c0.712,0,1.286-0.575,1.286-1.286
				c0-0.71-0.574-1.285-1.286-1.285C14.862,19.023,14.286,19.599,14.286,20.309"/>
		</defs>
		<clipPath id="SVGID_90_">
			<use xlink:href="#SVGID_89_"  overflow="visible"/>
		</clipPath>
		<path clip-path="url(#SVGID_90_)" d="M16.972,20.711h-2.82V20.01h1.08v-1.146h0.704v1.146h1.036V20.711z M14.226,20.638h2.672
			v-0.554h-1.036v-1.146h-0.555v1.146h-1.081V20.638z"/>
	</g>
</g>
<g>
	<g>
		<defs>
			<rect id="SVGID_91_" x="0" width="209.764" height="85.04"/>
		</defs>
		<clipPath id="SVGID_92_">
			<use xlink:href="#SVGID_91_"  overflow="visible"/>
		</clipPath>
		<path clip-path="url(#SVGID_92_)" d="M15.571,21.67c-0.75,0-1.359-0.611-1.359-1.361s0.609-1.36,1.359-1.36
			c0.751,0,1.361,0.61,1.361,1.36S16.322,21.67,15.571,21.67 M15.571,19.098c-0.667,0-1.21,0.543-1.21,1.211s0.543,1.211,1.21,1.211
			c0.668,0,1.213-0.543,1.213-1.211S16.239,19.098,15.571,19.098"/>
	</g>
	<g>
		<defs>
			<rect id="SVGID_93_" x="0" width="209.764" height="85.04"/>
		</defs>
		<clipPath id="SVGID_94_">
			<use xlink:href="#SVGID_93_"  overflow="visible"/>
		</clipPath>
		<path clip-path="url(#SVGID_94_)" d="M24.497,31.509l0.863-4.789l-0.525-0.789c0,0-3.308-4.059-9.24-4.02
			c0,0-5.182-0.411-9.182,3.814l-0.226,0.47v2.535l0.695,3.361L24.497,31.509z"/>
	</g>
	<g>
		<defs>
			<rect id="SVGID_95_" x="0" width="209.764" height="85.04"/>
		</defs>
		<clipPath id="SVGID_96_">
			<use xlink:href="#SVGID_95_"  overflow="visible"/>
		</clipPath>
		<path clip-path="url(#SVGID_96_)" fill="#FFFFFF" d="M15.632,26.083c-0.57,0-1.033,0.462-1.033,1.032
			c0,0.249,0.088,0.477,0.234,0.655c-0.129-0.049-0.244-0.073-0.382-0.073c-0.571,0-1.034,0.462-1.034,1.032
			c0,0.572,0.463,1.033,1.034,1.033c0.367,0,0.692-0.189,0.877-0.479c-0.011,0.086-0.011,0.147-0.011,0.226
			c0,0.571-0.464,1.249-1.034,1.249c-0.459,0-0.887-0.302-1.02-0.717c-0.133,0.415-0.57,0.717-1.031,0.717
			c-0.569,0-1.036-0.678-1.036-1.249c0-0.079,0-0.14-0.007-0.226c0.184,0.29,0.51,0.479,0.878,0.479
			c0.569,0,1.032-0.461,1.032-1.033c0-0.57-0.463-1.032-1.032-1.032c-0.14,0-0.255,0.024-0.384,0.073
			c0.147-0.178,0.235-0.406,0.235-0.655c0-0.57-0.463-1.032-1.033-1.032c-0.571,0-1.033,0.462-1.033,1.032
			c0,0.249,0.088,0.477,0.234,0.655c-0.13-0.049-0.244-0.073-0.383-0.073c-0.571,0-1.032,0.462-1.032,1.032
			c0,0.572,0.461,1.033,1.032,1.033c0.367,0,0.693-0.189,0.877-0.479c-0.004,0.095-0.004,0.147-0.004,0.226
			c0,0.571-0.47,1.249-1.04,1.249c-0.46,0-0.883-0.302-1.017-0.717c-0.132,0.415-0.488,0.717-0.95,0.717
			c-0.569,0-0.832-0.61-0.972-1.154c-0.02-0.077-0.056-0.235-0.071-0.32c0.184,0.289,0.509,0.48,0.878,0.48
			c0.57,0,0.963-0.463,0.963-1.035c0-0.57-0.463-1.032-1.033-1.032c-0.14,0-0.253,0.024-0.382,0.073
			c0.146-0.178,0.233-0.406,0.233-0.655c0-0.57-0.544-1.04-1.113-1.04h-0.6l1.304,7.486h17.707l1.299-7.478H25.11
			c-0.569,0-1.032,0.462-1.032,1.032c0,0.249,0.088,0.477,0.233,0.655c-0.129-0.049-0.242-0.073-0.384-0.073
			c-0.569,0-1.032,0.462-1.032,1.032c0,0.572,0.381,1.088,0.952,1.088c0.368,0,0.694-0.19,0.877-0.481
			c-0.021,0.1-0.034,0.163-0.049,0.239c-0.112,0.582-0.424,1.18-0.995,1.18c-0.461,0-0.805-0.299-0.938-0.714
			c-0.135,0.415-0.557,0.717-1.017,0.717c-0.571,0-1.039-0.678-1.039-1.249c0-0.079-0.011-0.14-0.006-0.226
			c0.185,0.29,0.511,0.479,0.878,0.479c0.571,0,1.033-0.461,1.033-1.033c0-0.57-0.462-1.032-1.033-1.032
			c-0.138,0-0.254,0.024-0.383,0.073c0.146-0.178,0.235-0.406,0.235-0.655c0-0.57-0.463-1.032-1.032-1.032
			c-0.571,0-1.034,0.462-1.034,1.032c0,0.249,0.088,0.477,0.235,0.655c-0.13-0.049-0.245-0.073-0.384-0.073
			c-0.569,0-1.031,0.462-1.031,1.032c0,0.572,0.462,1.033,1.031,1.033c0.369,0,0.694-0.189,0.878-0.479
			c-0.009,0.095-0.009,0.167-0.009,0.245c0,0.571-0.465,1.23-1.036,1.23c-0.461,0-0.896-0.302-1.029-0.717
			c-0.133,0.415-0.561,0.717-1.021,0.717c-0.57,0-1.034-0.678-1.034-1.249c0-0.079,0-0.121-0.01-0.226
			c0.184,0.29,0.509,0.479,0.878,0.479c0.569,0,1.032-0.461,1.032-1.033c0-0.57-0.463-1.032-1.032-1.032
			c-0.14,0-0.255,0.024-0.383,0.073c0.146-0.178,0.233-0.406,0.233-0.655C16.664,26.545,16.202,26.083,15.632,26.083"/>
	</g>
	<g>
		<defs>
			<rect id="SVGID_97_" x="0" width="209.764" height="85.04"/>
		</defs>
		<clipPath id="SVGID_98_">
			<use xlink:href="#SVGID_97_"  overflow="visible"/>
		</clipPath>
		<path clip-path="url(#SVGID_98_)" d="M24.548,33.635H6.716L5.386,26h0.688c0.634,0,1.188,0.521,1.188,1.115
			c0,0.187-0.045,0.366-0.132,0.526c0.065-0.012,0.133-0.018,0.205-0.018c0.61,0,1.107,0.496,1.107,1.107
			c0,0.631-0.444,1.108-1.035,1.108c-0.28,0-0.542-0.101-0.742-0.279c0.002,0.01,0.005,0.018,0.007,0.027
			c0.19,0.738,0.485,1.097,0.898,1.097c0.405,0,0.75-0.261,0.88-0.665l0.07-0.222l0.072,0.222c0.124,0.385,0.521,0.665,0.945,0.665
			c0.519,0,0.965-0.645,0.965-1.174v-0.006c-0.206,0.212-0.492,0.334-0.798,0.334c-0.611,0-1.108-0.497-1.108-1.107
			c0-0.611,0.497-1.107,1.108-1.107c0.072,0,0.14,0.006,0.206,0.018c-0.087-0.161-0.134-0.342-0.134-0.526
			c0-0.61,0.497-1.107,1.108-1.107s1.108,0.497,1.108,1.107c0,0.184-0.046,0.366-0.134,0.526c0.067-0.012,0.135-0.018,0.207-0.018
			c0.61,0,1.107,0.496,1.107,1.107c0,0.61-0.497,1.107-1.107,1.107c-0.305,0-0.589-0.121-0.795-0.33v0.002
			c0,0.532,0.429,1.174,0.96,1.174c0.434,0,0.837-0.28,0.961-0.665l0.071-0.222l0.071,0.222c0.123,0.385,0.521,0.665,0.948,0.665
			c0.531,0,0.96-0.642,0.96-1.174v-0.001c-0.206,0.209-0.489,0.329-0.793,0.329c-0.611,0-1.108-0.497-1.108-1.107
			c0-0.611,0.497-1.107,1.108-1.107c0.071,0,0.14,0.006,0.206,0.018c-0.087-0.16-0.133-0.339-0.133-0.526
			c0-0.61,0.497-1.107,1.108-1.107c0.61,0,1.105,0.497,1.105,1.107c0,0.184-0.046,0.365-0.133,0.527
			c0.068-0.013,0.137-0.019,0.209-0.019c0.61,0,1.106,0.496,1.106,1.107c0,0.61-0.496,1.107-1.106,1.107
			c-0.305,0-0.588-0.12-0.794-0.328c0,0.532,0.429,1.174,0.96,1.174c0.427,0,0.825-0.28,0.948-0.665L18,29.796l0.071,0.222
			c0.123,0.385,0.526,0.665,0.958,0.665c0.533,0,0.963-0.632,0.963-1.155v-0.021c-0.206,0.209-0.489,0.33-0.796,0.33
			c-0.609,0-1.106-0.497-1.106-1.107c0-0.611,0.497-1.107,1.106-1.107c0.073,0,0.141,0.006,0.206,0.018
			c-0.087-0.16-0.132-0.339-0.132-0.526c0-0.61,0.497-1.107,1.108-1.107c0.609,0,1.106,0.497,1.106,1.107
			c0,0.184-0.046,0.366-0.133,0.527c0.067-0.013,0.135-0.019,0.207-0.019c0.611,0,1.108,0.496,1.108,1.107
			c0,0.61-0.497,1.107-1.108,1.107c-0.306,0-0.592-0.122-0.798-0.333v0.005c0,0.529,0.445,1.174,0.964,1.174
			c0.424,0,0.821-0.28,0.945-0.665l0.071-0.222l0.07,0.222c0.131,0.408,0.464,0.662,0.867,0.662c0.621,0,0.848-0.768,0.913-1.072
			c-0.201,0.181-0.464,0.283-0.746,0.283c-0.576,0-1.026-0.51-1.026-1.161c0-0.611,0.496-1.107,1.107-1.107
			c0.073,0,0.141,0.006,0.207,0.018c-0.086-0.16-0.132-0.339-0.132-0.526c0-0.61,0.497-1.107,1.107-1.107h0.763L24.548,33.635z
			 M6.842,33.486h17.58l1.272-7.329h-0.584c-0.528,0-0.958,0.43-0.958,0.958c0,0.225,0.075,0.434,0.217,0.608l-0.084,0.117
			c-0.125-0.048-0.229-0.068-0.357-0.068c-0.528,0-0.958,0.43-0.958,0.958c0,0.497,0.328,1.012,0.877,1.012
			c0.334,0,0.638-0.167,0.814-0.445l0.136,0.054l-0.02,0.094c-0.011,0.051-0.02,0.095-0.028,0.144
			c-0.15,0.777-0.549,1.241-1.069,1.241c-0.411,0-0.758-0.224-0.939-0.595c-0.192,0.355-0.593,0.598-1.015,0.598
			c-0.617,0-1.113-0.724-1.113-1.324c0-0.03-0.002-0.058-0.003-0.085c-0.003-0.045-0.006-0.091-0.003-0.146l0.014-0.232l0.125,0.196
			c0.177,0.279,0.48,0.446,0.814,0.446c0.528,0,0.958-0.43,0.958-0.958s-0.43-0.958-0.958-0.958c-0.127,0-0.232,0.02-0.355,0.068
			l-0.085-0.117c0.142-0.174,0.218-0.384,0.218-0.608c0-0.528-0.43-0.958-0.958-0.958c-0.529,0-0.959,0.43-0.959,0.958
			c0,0.225,0.075,0.435,0.218,0.608l-0.085,0.117c-0.124-0.048-0.229-0.068-0.356-0.068c-0.527,0-0.958,0.43-0.958,0.958
			s0.431,0.958,0.958,0.958c0.334,0,0.64-0.167,0.814-0.445l0.137,0.045c-0.007,0.094-0.007,0.164-0.007,0.24
			c0,0.604-0.485,1.305-1.111,1.305c-0.43,0-0.837-0.245-1.029-0.602c-0.191,0.357-0.595,0.602-1.02,0.602
			c-0.614,0-1.108-0.724-1.108-1.324c0-0.076,0-0.117-0.011-0.219l0.138-0.048c0.176,0.279,0.48,0.446,0.815,0.446
			c0.528,0,0.957-0.43,0.957-0.958s-0.429-0.958-0.957-0.958c-0.128,0-0.234,0.02-0.356,0.068l-0.085-0.117
			c0.142-0.174,0.217-0.384,0.217-0.608c0-0.528-0.43-0.958-0.957-0.958c-0.529,0-0.958,0.43-0.958,0.958
			c0,0.225,0.075,0.435,0.216,0.608l-0.084,0.117c-0.123-0.048-0.229-0.068-0.355-0.068c-0.528,0-0.959,0.43-0.959,0.958
			s0.431,0.958,0.959,0.958c0.334,0,0.638-0.167,0.814-0.446l0.137,0.049c-0.01,0.083-0.01,0.139-0.01,0.218
			c0,0.6-0.495,1.324-1.108,1.324c-0.427,0-0.828-0.245-1.02-0.602c-0.193,0.357-0.6,0.602-1.032,0.602
			c-0.614,0-1.109-0.724-1.109-1.324c0-0.076,0-0.135-0.008-0.219l0.138-0.048c0.176,0.279,0.48,0.446,0.814,0.446
			c0.528,0,0.958-0.43,0.958-0.958s-0.43-0.958-0.958-0.958c-0.127,0-0.233,0.02-0.355,0.068l-0.085-0.117
			c0.143-0.174,0.218-0.384,0.218-0.608c0-0.528-0.43-0.958-0.959-0.958c-0.528,0-0.959,0.43-0.959,0.958
			c0,0.224,0.076,0.434,0.218,0.608L10.06,27.84c-0.123-0.048-0.229-0.068-0.354-0.068c-0.529,0-0.958,0.43-0.958,0.958
			s0.429,0.958,0.958,0.958c0.334,0,0.638-0.167,0.813-0.446l0.137,0.044c-0.004,0.095-0.004,0.145-0.004,0.223
			c0,0.6-0.497,1.324-1.113,1.324c-0.422,0-0.822-0.243-1.015-0.599c-0.184,0.369-0.541,0.599-0.953,0.599
			c-0.491,0-0.833-0.396-1.044-1.21c-0.019-0.076-0.057-0.237-0.071-0.326l0.137-0.053c0.176,0.279,0.481,0.445,0.815,0.445
			c0.505,0,0.887-0.412,0.887-0.959c0-0.528-0.432-0.958-0.959-0.958c-0.126,0-0.232,0.02-0.355,0.068l-0.084-0.117
			c0.142-0.174,0.217-0.383,0.217-0.608c0-0.514-0.485-0.965-1.039-0.965H5.563L6.842,33.486z"/>
	</g>
	<g>
		<defs>
			<rect id="SVGID_99_" x="0" width="209.764" height="85.04"/>
		</defs>
		<clipPath id="SVGID_100_">
			<use xlink:href="#SVGID_99_"  overflow="visible"/>
		</clipPath>
		<path clip-path="url(#SVGID_100_)" fill="#FFFFFF" d="M15.595,26.07l1.132-0.575c0,0-0.285-2.806-0.317-3.289
			c2.393,1.439,2.634,3.289,2.634,3.289s1.27,0.527,1.285,0.527c0.015,0,0.848-0.527,0.848-0.527s-0.752-1.979-2.968-3.16
			c3.284,0.717,5.171,3.16,5.171,3.16l1.537,0.592l0.263-0.723c0,0-3.638-3.955-9.589-3.955s-9.58,3.955-9.58,3.955l0.237,0.706
			l1.562-0.575c0,0,1.946-2.443,5.23-3.16c-2.217,1.181-3.028,3.16-3.028,3.16s0.813,0.558,0.827,0.558
			c0.015,0,1.307-0.558,1.307-0.558s0.241-1.85,2.634-3.289c-0.032,0.483-0.318,3.289-0.318,3.289L15.595,26.07z"/>
	</g>
	<g>
		<defs>
			<rect id="SVGID_101_" x="0" width="209.764" height="85.04"/>
		</defs>
		<clipPath id="SVGID_102_">
			<use xlink:href="#SVGID_101_"  overflow="visible"/>
		</clipPath>
		<path clip-path="url(#SVGID_102_)" d="M24.96,26.183l-1.627-0.625l-0.014-0.017c-0.018-0.023-1.712-2.179-4.622-3.006
			c1.868,1.191,2.541,2.916,2.549,2.934l0.021,0.057l-0.051,0.032c-0.854,0.539-0.86,0.539-0.889,0.539
			c-0.021,0-0.029,0-1.313-0.533l-0.04-0.016l-0.006-0.043c-0.002-0.018-0.258-1.768-2.474-3.158
			c0.062,0.735,0.304,3.115,0.306,3.141l0.006,0.051l-1.212,0.615l-1.213-0.615l0.005-0.051c0.003-0.026,0.245-2.406,0.308-3.141
			c-2.217,1.39-2.473,3.14-2.475,3.158l-0.005,0.042l-0.039,0.017c-1.306,0.564-1.316,0.564-1.336,0.564
			c-0.031,0-0.038,0-0.871-0.571L9.92,25.523l0.022-0.056c0.008-0.018,0.731-1.741,2.606-2.932
			c-2.917,0.828-4.663,2.984-4.681,3.007l-0.014,0.016l-0.019,0.007l-1.635,0.602l-0.276-0.821l0.03-0.032
			c0.036-0.04,3.72-3.979,9.635-3.979c5.916,0,9.608,3.939,9.645,3.978l0.03,0.034L24.96,26.183z M23.425,25.433l1.447,0.556
			l0.221-0.607c-0.367-0.378-3.941-3.898-9.503-3.898c-5.565,0-9.133,3.526-9.495,3.899l0.199,0.591l1.471-0.541
			c0.18-0.218,2.129-2.487,5.259-3.171l0.052,0.139c-1.964,1.046-2.819,2.742-2.971,3.068c0.265,0.181,0.638,0.435,0.741,0.502
			c0.147-0.06,0.782-0.333,1.233-0.528c0.052-0.294,0.438-1.963,2.663-3.301l0.123-0.074l-0.011,0.143
			c-0.03,0.443-0.274,2.858-0.313,3.241l1.054,0.535l1.053-0.535c-0.039-0.383-0.282-2.798-0.312-3.241l-0.01-0.143l0.122,0.074
			c2.224,1.337,2.61,3.005,2.663,3.3c0.444,0.185,1.07,0.443,1.211,0.498c0.104-0.061,0.489-0.302,0.762-0.474
			c-0.143-0.328-0.953-2.022-2.91-3.065l0.051-0.139C21.354,22.946,23.249,25.215,23.425,25.433"/>
	</g>
	<g>
		<defs>
			<rect id="SVGID_103_" x="0" width="209.764" height="85.04"/>
		</defs>
		<clipPath id="SVGID_104_">
			<use xlink:href="#SVGID_103_"  overflow="visible"/>
		</clipPath>
		<path clip-path="url(#SVGID_104_)" fill="#FFFFFF" d="M15.526,43.958c-0.418,0-0.754,0.336-0.754,0.752
			c0,0.25,0.123,0.474,0.312,0.609c-0.119-0.072-0.255-0.111-0.401-0.111c-0.415,0-0.752,0.336-0.752,0.75
			c0,0.416,0.337,0.752,0.752,0.752c0.247,0,0.466-0.119,0.603-0.303l-0.005,0.663c-0.002,0.414-0.338,0.747-0.751,0.747
			c-0.41,0-0.744-0.331-0.751-0.74c-0.005,0.409-0.339,0.74-0.751,0.74c-0.411,0-0.669-0.343-0.751-0.747l-0.099-0.495
			c0.121,0.084,0.26,0.146,0.418,0.146c0.414,0,0.751-0.338,0.751-0.752s-0.337-0.752-0.751-0.752c-0.16,0-0.336,0.01-0.458,0.095
			c0.147-0.138,0.193-0.381,0.193-0.597c0-0.416-0.336-0.752-0.751-0.752c-0.062,0-0.096-0.014-0.152,0c0,0,0.71,6.646,0.71,6.647
			c0,0.005,6.768,0.005,6.768,0c0-0.003,0.711-6.647,0.711-6.647c-0.058-0.014-0.091,0-0.151,0c-0.415,0-0.751,0.336-0.751,0.752
			c0,0.216,0.046,0.459,0.191,0.597c-0.12-0.085-0.297-0.095-0.456-0.095c-0.415,0-0.752,0.338-0.752,0.752s0.337,0.752,0.752,0.752
			c0.156,0,0.297-0.062,0.417-0.146l-0.1,0.495c-0.081,0.404-0.338,0.747-0.751,0.747c-0.411,0-0.745-0.331-0.751-0.74
			c-0.006,0.409-0.34,0.74-0.751,0.74c-0.413,0-0.749-0.333-0.751-0.747l-0.004-0.663c0.137,0.184,0.356,0.303,0.603,0.303
			c0.415,0,0.751-0.336,0.751-0.752c0-0.414-0.336-0.75-0.751-0.75c-0.146,0-0.281,0.039-0.401,0.111
			c0.189-0.137,0.313-0.359,0.313-0.609C16.274,44.293,15.944,43.958,15.526,43.958"/>
	</g>
	<g>
		<defs>
			<rect id="SVGID_105_" x="0" width="209.764" height="85.04"/>
		</defs>
		<clipPath id="SVGID_106_">
			<use xlink:href="#SVGID_105_"  overflow="visible"/>
		</clipPath>
		<rect x="11.669" y="48.646" clip-path="url(#SVGID_106_)" width="7.709" height="0.515"/>
	</g>
	<g>
		<defs>
			<rect id="SVGID_107_" x="0" width="209.764" height="85.04"/>
		</defs>
		<clipPath id="SVGID_108_">
			<use xlink:href="#SVGID_107_"  overflow="visible"/>
		</clipPath>
		<path clip-path="url(#SVGID_108_)" fill="#FFFFFF" d="M11.24,36.884c-0.366,0-0.659,0.293-0.659,0.656
			c0,0.219,0.106,0.413,0.272,0.531c-0.104-0.062-0.223-0.097-0.351-0.097c-0.362,0-0.655,0.294-0.655,0.656
			c0,0.362,0.293,0.655,0.655,0.655c0.215,0,0.407-0.103,0.526-0.263l-0.004,0.579c-0.002,0.361-0.295,0.652-0.655,0.652
			c-0.359,0-0.65-0.289-0.654-0.646c-0.006,0.357-0.298,0.646-0.657,0.646c-0.36,0-0.585-0.299-0.655-0.652l-0.087-0.432
			c0.106,0.072,0.228,0.127,0.364,0.127c0.363,0,0.656-0.294,0.656-0.656c0-0.362-0.293-0.655-0.656-0.655
			c-0.139,0-0.293,0.006-0.398,0.08c0.128-0.119,0.168-0.331,0.168-0.52c0-0.362-0.293-0.656-0.656-0.656
			c-0.053,0-0.082-0.012-0.132,0c0,0,0.62,5.801,0.62,5.803c0,0.003,5.908,0.003,5.908,0c0-0.002,0.619-5.803,0.619-5.803
			c-0.05-0.012-0.078,0-0.132,0c-0.362,0-0.656,0.294-0.656,0.656c0,0.189,0.04,0.401,0.169,0.52
			c-0.106-0.074-0.261-0.08-0.399-0.08c-0.362,0-0.656,0.293-0.656,0.655c0,0.362,0.294,0.656,0.656,0.656
			c0.137,0,0.259-0.055,0.364-0.127l-0.087,0.432c-0.07,0.353-0.295,0.652-0.655,0.652c-0.359,0-0.651-0.289-0.655-0.646
			c-0.005,0.357-0.297,0.646-0.656,0.646c-0.36,0-0.653-0.291-0.655-0.652l-0.004-0.579c0.12,0.16,0.312,0.263,0.526,0.263
			c0.362,0,0.656-0.293,0.656-0.655c0-0.362-0.294-0.656-0.656-0.656c-0.128,0-0.247,0.035-0.35,0.097
			c0.165-0.118,0.271-0.312,0.271-0.531C11.891,37.177,11.604,36.884,11.24,36.884"/>
	</g>
	<g>
		<defs>
			<rect id="SVGID_109_" x="0" width="209.764" height="85.04"/>
		</defs>
		<clipPath id="SVGID_110_">
			<use xlink:href="#SVGID_109_"  overflow="visible"/>
		</clipPath>
		<rect x="7.981" y="40.966" clip-path="url(#SVGID_110_)" width="6.512" height="0.515"/>
	</g>
	<g>
		<defs>
			<rect id="SVGID_111_" x="0" width="209.764" height="85.04"/>
		</defs>
		<clipPath id="SVGID_112_">
			<use xlink:href="#SVGID_111_"  overflow="visible"/>
		</clipPath>
		<path clip-path="url(#SVGID_112_)" fill="#FFFFFF" d="M19.821,36.881c0.365,0,0.659,0.293,0.659,0.655
			c0,0.22-0.107,0.414-0.273,0.533c0.104-0.063,0.223-0.098,0.351-0.098c0.363,0,0.656,0.294,0.656,0.656
			c0,0.361-0.293,0.655-0.656,0.655c-0.215,0-0.406-0.104-0.526-0.264l0.004,0.58c0.002,0.36,0.295,0.652,0.655,0.652
			c0.359,0,0.651-0.289,0.655-0.647c0.006,0.358,0.297,0.647,0.656,0.647c0.36,0,0.585-0.299,0.656-0.652l0.086-0.432
			c-0.105,0.071-0.228,0.127-0.364,0.127c-0.363,0-0.656-0.294-0.656-0.656c0-0.362,0.293-0.656,0.656-0.656
			c0.139,0,0.294,0.006,0.399,0.081c-0.129-0.119-0.169-0.331-0.169-0.52c0-0.363,0.294-0.656,0.656-0.656
			c0.054,0,0.082-0.013,0.133,0c0,0-0.62,5.8-0.62,5.803s-5.908,0.003-5.908,0s-0.62-5.803-0.62-5.803c0.05-0.013,0.079,0,0.133,0
			c0.362,0,0.656,0.293,0.656,0.656c0,0.189-0.041,0.401-0.169,0.52c0.106-0.075,0.26-0.081,0.398-0.081
			c0.363,0,0.656,0.294,0.656,0.656c0,0.362-0.293,0.656-0.656,0.656c-0.137,0-0.258-0.056-0.364-0.127l0.088,0.432
			c0.07,0.353,0.295,0.652,0.655,0.652c0.359,0,0.65-0.289,0.654-0.647c0.006,0.358,0.297,0.647,0.657,0.647
			s0.652-0.292,0.654-0.652l0.005-0.58c-0.12,0.16-0.312,0.264-0.527,0.264c-0.362,0-0.655-0.294-0.655-0.655
			c0-0.362,0.293-0.656,0.655-0.656c0.128,0,0.247,0.035,0.351,0.098c-0.165-0.119-0.272-0.313-0.272-0.533
			C19.169,37.174,19.456,36.881,19.821,36.881"/>
	</g>
	<g>
		<defs>
			<rect id="SVGID_113_" x="0" width="209.764" height="85.04"/>
		</defs>
		<clipPath id="SVGID_114_">
			<use xlink:href="#SVGID_113_"  overflow="visible"/>
		</clipPath>
		<rect x="16.459" y="40.958" clip-path="url(#SVGID_114_)" width="6.744" height="0.515"/>
	</g>
</g>
</svg>
