<?xml version="1.0" encoding="utf-8"?>
<!-- Generator: Adobe Illustrator 22.1.0, SVG Export Plug-In . SVG Version: 6.00 Build 0)  -->
<svg version="1.1" id="Lager_1" xmlns="http://www.w3.org/2000/svg" xmlns:xlink="http://www.w3.org/1999/xlink" x="0px" y="0px"
	 viewBox="0 0 256 67.2" style="enable-background:new 0 0 256 67.2;" xml:space="preserve">
<style type="text/css">
	.st0{display:none;fill:#662336;}
	.st1{fill-rule:evenodd;clip-rule:evenodd;fill:#8C104E;}
	.st2{fill-rule:evenodd;clip-rule:evenodd;fill:#FFD41C;}
	.st3{fill-rule:evenodd;clip-rule:evenodd;fill:#006DB7;}
	.st4{fill:#006DB7;}
	.st5{fill:none;stroke:#006DB7;stroke-width:0.6341;stroke-miterlimit:3.864;}
	.st6{fill:#FFD41C;}
	.st7{fill:#FFFFFF;}
</style>
<rect x="-56.5" y="-53.2" class="st0" width="394" height="167"/>
<g>
	<polygon class="st1" points="35.7,32.7 35.4,32.1 34.3,31.2 32.3,29.8 30.7,29.2 28.1,28.8 26.8,28.8 25.2,29 23.2,29.8 20.9,31.3 
		20,32.2 19.8,32.6 19.8,34.3 20.2,36.3 21.1,37.5 34.7,37.3 35.5,36 35.8,33.1 	"/>
	<path class="st2" d="M27.7,32.3l0.9-0.5c0,0-0.2-2.3-0.3-2.7c2,1.2,2.2,2.7,2.2,2.7s1.1,0.4,1.1,0.4c0,0,0.7-0.4,0.7-0.4
		s-0.6-1.6-2.5-2.6c2.8,0.6,4.3,2.6,4.3,2.6l1.3,0.5l0.2-0.6c0,0-3-3.2-8-3.2c-5,0-8,3.2-8,3.2l0.2,0.6l1.3-0.5c0,0,1.6-2,4.4-2.6
		c-1.9,1-2.5,2.6-2.5,2.6s0.7,0.5,0.7,0.5c0,0,1.1-0.5,1.1-0.5s0.2-1.5,2.2-2.7c0,0.4-0.3,2.7-0.3,2.7L27.7,32.3z"/>
	<path class="st3" d="M27.7,56.3c-0.2-0.4-1.5-0.5-3.4-0.9c-2.5-0.4-4.2-1-4.2-3.4V38.5h15.3v13.6c0,2.4-1.7,2.9-4.2,3.3
		C29.3,55.8,27.9,55.9,27.7,56.3"/>
	<path class="st2" d="M27.8,32.5c-0.5,0-0.9,0.4-0.9,0.8c0,0.2,0.1,0.4,0.2,0.5c-0.1,0-0.2-0.1-0.3-0.1c-0.5,0-0.9,0.4-0.9,0.8
		c0,0.5,0.4,0.8,0.9,0.8c0.3,0,0.6-0.2,0.7-0.4c0,0.1,0,0.1,0,0.2c0,0.5-0.4,1-0.9,1c-0.4,0-0.7-0.2-0.9-0.6
		c-0.1,0.3-0.5,0.6-0.9,0.6c-0.5,0-0.9-0.5-0.9-1c0-0.1,0-0.1,0-0.2c0.2,0.2,0.4,0.4,0.7,0.4c0.5,0,0.9-0.4,0.9-0.8
		c0-0.5-0.4-0.8-0.9-0.8c-0.1,0-0.2,0-0.3,0.1c0.1-0.1,0.2-0.3,0.2-0.5c0-0.5-0.4-0.8-0.9-0.8c-0.5,0-0.9,0.4-0.9,0.8
		c0,0.2,0.1,0.4,0.2,0.5c-0.1,0-0.2-0.1-0.3-0.1c-0.5,0-0.9,0.4-0.9,0.8c0,0.5,0.4,0.8,0.9,0.8c0.3,0,0.6-0.2,0.7-0.4
		c0,0.1,0,0.1,0,0.2c0,0.5-0.4,1-0.9,1c-0.4,0-0.7-0.2-0.9-0.6c-0.1,0.3-0.4,0.6-0.8,0.6c-0.5,0-0.7-0.5-0.8-0.9
		c0-0.1,0-0.2-0.1-0.3c0.2,0.2,0.4,0.4,0.7,0.4c0.5,0,0.8-0.4,0.8-0.8c0-0.5-0.4-0.8-0.9-0.8c-0.1,0-0.2,0-0.3,0.1
		c0.1-0.1,0.2-0.3,0.2-0.5c0-0.5-0.5-0.8-0.9-0.8h-0.5l1.1,6.1h14.8l1.1-6.1h-0.6c-0.5,0-0.9,0.4-0.9,0.8c0,0.2,0.1,0.4,0.2,0.5
		c-0.1,0-0.2-0.1-0.3-0.1c-0.5,0-0.9,0.4-0.9,0.8c0,0.5,0.3,0.9,0.8,0.9c0.3,0,0.6-0.2,0.7-0.4c0,0.1,0,0.1,0,0.2
		c-0.1,0.5-0.4,1-0.8,1c-0.4,0-0.7-0.2-0.8-0.6c-0.1,0.3-0.5,0.6-0.9,0.6c-0.5,0-0.9-0.5-0.9-1c0-0.1,0-0.1,0-0.2
		c0.2,0.2,0.4,0.4,0.7,0.4c0.5,0,0.9-0.4,0.9-0.8c0-0.5-0.4-0.8-0.9-0.8c-0.1,0-0.2,0-0.3,0.1c0.1-0.1,0.2-0.3,0.2-0.5
		c0-0.5-0.4-0.8-0.9-0.8c-0.5,0-0.9,0.4-0.9,0.8c0,0.2,0.1,0.4,0.2,0.5c-0.1,0-0.2-0.1-0.3-0.1c-0.5,0-0.9,0.4-0.9,0.8
		c0,0.5,0.4,0.8,0.9,0.8c0.3,0,0.6-0.2,0.7-0.4c0,0.1,0,0.1,0,0.2c0,0.5-0.4,1-0.9,1c-0.4,0-0.8-0.2-0.9-0.6
		c-0.1,0.3-0.5,0.6-0.9,0.6c-0.5,0-0.9-0.5-0.9-1c0-0.1,0-0.1,0-0.2c0.2,0.2,0.4,0.4,0.7,0.4c0.5,0,0.9-0.4,0.9-0.8
		c0-0.5-0.4-0.8-0.9-0.8c-0.1,0-0.2,0-0.3,0.1c0.1-0.1,0.2-0.3,0.2-0.5C28.6,32.8,28.3,32.5,27.8,32.5"/>
	<path class="st3" d="M26.8,27.6c0-0.5,0.4-1,1-1c0.5,0,1,0.4,1,1c0,0.5-0.4,1-1,1C27.2,28.5,26.8,28.1,26.8,27.6"/>
	<polygon class="st4" points="28.7,25.4 28.7,25.9 28,25.9 28,26.6 27.5,26.6 27.5,25.9 26.8,25.9 26.8,25.4 27.5,25.4 27.5,24.7 
		28,24.7 28,25.4 	"/>
	<path class="st2" d="M27.7,47.2c-0.4,0-0.7,0.3-0.7,0.7c0,0.2,0.1,0.4,0.3,0.5c-0.1-0.1-0.2-0.1-0.4-0.1c-0.4,0-0.7,0.3-0.7,0.7
		c0,0.4,0.3,0.7,0.7,0.7c0.2,0,0.4-0.1,0.5-0.3l0,0.6c0,0.4-0.3,0.7-0.7,0.7c-0.4,0-0.7-0.3-0.7-0.7c0,0.4-0.3,0.7-0.7,0.7
		c-0.4,0-0.6-0.3-0.7-0.7l-0.1-0.4c0.1,0.1,0.2,0.1,0.4,0.1c0.4,0,0.7-0.3,0.7-0.7c0-0.4-0.3-0.7-0.7-0.7c-0.1,0-0.3,0-0.4,0.1
		c0.1-0.1,0.2-0.3,0.2-0.5c0-0.4-0.3-0.7-0.7-0.7c-0.1,0-0.1,0-0.1,0c0,0,0.6,5.9,0.6,5.9c0,0,6,0,6,0c0,0,0.6-5.9,0.6-5.9
		c-0.1,0-0.1,0-0.1,0c-0.4,0-0.7,0.3-0.7,0.7c0,0.2,0,0.4,0.2,0.5c-0.1-0.1-0.3-0.1-0.4-0.1c-0.4,0-0.7,0.3-0.7,0.7
		c0,0.4,0.3,0.7,0.7,0.7c0.1,0,0.3-0.1,0.4-0.1l-0.1,0.4c-0.1,0.4-0.3,0.7-0.7,0.7c-0.4,0-0.7-0.3-0.7-0.7c0,0.4-0.3,0.7-0.7,0.7
		c-0.4,0-0.7-0.3-0.7-0.7l0-0.6c0.1,0.2,0.3,0.3,0.5,0.3c0.4,0,0.7-0.3,0.7-0.7c0-0.4-0.3-0.7-0.7-0.7c-0.1,0-0.2,0-0.4,0.1
		c0.2-0.1,0.3-0.3,0.3-0.5C28.4,47.5,28.1,47.2,27.7,47.2"/>
	<line class="st5" x1="24.5" y1="51.4" x2="30.9" y2="51.4"/>
	<path class="st2" d="M23.9,41.1c-0.3,0-0.6,0.3-0.6,0.6c0,0.2,0.1,0.4,0.2,0.5c-0.1-0.1-0.2-0.1-0.3-0.1c-0.3,0-0.6,0.3-0.6,0.6
		c0,0.3,0.3,0.6,0.6,0.6c0.2,0,0.4-0.1,0.5-0.2l0,0.5c0,0.3-0.3,0.6-0.6,0.6c-0.3,0-0.6-0.3-0.6-0.6c0,0.3-0.3,0.6-0.6,0.6
		c-0.3,0-0.5-0.3-0.6-0.6l-0.1-0.4c0.1,0.1,0.2,0.1,0.3,0.1c0.3,0,0.6-0.3,0.6-0.6c0-0.3-0.3-0.6-0.6-0.6c-0.1,0-0.3,0-0.4,0.1
		c0.1-0.1,0.1-0.3,0.1-0.5c0-0.3-0.3-0.6-0.6-0.6c0,0-0.1,0-0.1,0c0,0,0.5,5.1,0.5,5.1c0,0,5.2,0,5.2,0c0,0,0.5-5.1,0.5-5.1
		c0,0-0.1,0-0.1,0c-0.3,0-0.6,0.3-0.6,0.6c0,0.2,0,0.4,0.1,0.5c-0.1-0.1-0.2-0.1-0.4-0.1c-0.3,0-0.6,0.3-0.6,0.6
		c0,0.3,0.3,0.6,0.6,0.6c0.1,0,0.2,0,0.3-0.1l-0.1,0.4c-0.1,0.3-0.3,0.6-0.6,0.6c-0.3,0-0.6-0.3-0.6-0.6c0,0.3-0.3,0.6-0.6,0.6
		c-0.3,0-0.6-0.3-0.6-0.6l0-0.5c0.1,0.1,0.3,0.2,0.5,0.2c0.3,0,0.6-0.3,0.6-0.6c0-0.3-0.3-0.6-0.6-0.6c-0.1,0-0.2,0-0.3,0.1
		c0.1-0.1,0.2-0.3,0.2-0.5C24.5,41.4,24.3,41.1,23.9,41.1"/>
	<line class="st5" x1="21.1" y1="44.8" x2="26.8" y2="44.8"/>
	<path class="st2" d="M31.5,41.1c0.3,0,0.6,0.3,0.6,0.6c0,0.2-0.1,0.4-0.2,0.5c0.1-0.1,0.2-0.1,0.3-0.1c0.3,0,0.6,0.3,0.6,0.6
		c0,0.3-0.3,0.6-0.6,0.6c-0.2,0-0.4-0.1-0.5-0.2l0,0.5c0,0.3,0.3,0.6,0.6,0.6c0.3,0,0.6-0.3,0.6-0.6c0,0.3,0.3,0.6,0.6,0.6
		c0.3,0,0.5-0.3,0.6-0.6l0.1-0.4c-0.1,0.1-0.2,0.1-0.3,0.1c-0.3,0-0.6-0.3-0.6-0.6c0-0.3,0.3-0.6,0.6-0.6c0.1,0,0.3,0,0.4,0.1
		C34,42,34,41.9,34,41.7c0-0.3,0.3-0.6,0.6-0.6c0,0,0.1,0,0.1,0c0,0-0.5,5.1-0.5,5.1c0,0-5.2,0-5.2,0c0,0-0.5-5.1-0.5-5.1
		c0,0,0.1,0,0.1,0c0.3,0,0.6,0.3,0.6,0.6c0,0.2,0,0.4-0.1,0.5c0.1-0.1,0.2-0.1,0.4-0.1c0.3,0,0.6,0.3,0.6,0.6c0,0.3-0.3,0.6-0.6,0.6
		c-0.1,0-0.2,0-0.3-0.1l0.1,0.4c0.1,0.3,0.3,0.6,0.6,0.6c0.3,0,0.6-0.3,0.6-0.6c0,0.3,0.3,0.6,0.6,0.6c0.3,0,0.6-0.3,0.6-0.6l0-0.5
		c-0.1,0.1-0.3,0.2-0.5,0.2c-0.3,0-0.6-0.3-0.6-0.6c0-0.3,0.3-0.6,0.6-0.6c0.1,0,0.2,0,0.3,0.1c-0.1-0.1-0.2-0.3-0.2-0.5
		C30.9,41.4,31.2,41.1,31.5,41.1"/>
	<line class="st5" x1="34.3" y1="44.8" x2="28.7" y2="44.8"/>
	<polygon class="st6" points="41.9,42 42.7,38.6 31.9,23.1 31.6,23.4 	"/>
	<polygon class="st6" points="43.2,36.4 43.2,32.9 32.7,22.3 32.4,22.6 	"/>
	<polygon class="st6" points="44.5,31.6 44.5,28.8 33.3,21.4 33.1,21.7 	"/>
	<polygon class="st6" points="48.3,25.2 45.2,26.7 33.6,20.8 33.7,20.3 	"/>
	<polygon class="st6" points="46.9,20.3 44.5,22.2 33.9,19.7 34,19.3 	"/>
	<polygon class="st6" points="44.2,16.9 42.7,18.7 34,18.5 34,18.1 	"/>
	<polygon class="st6" points="41.8,14.3 40.9,16.1 33.9,17.4 33.8,16.9 	"/>
	<polygon class="st6" points="39.7,12.5 39.3,14.1 33.6,16.2 33.4,15.9 	"/>
	<polygon class="st6" points="38,12.2 38,10.8 32.8,14.8 33.1,15.2 	"/>
	<polygon class="st6" points="36.1,10.8 36.1,9.1 31.9,13.8 32.3,14.2 	"/>
	<polygon class="st6" points="31.4,13.4 34,10.1 33.1,9.5 31.1,13.1 	"/>
	<polygon class="st6" points="32.2,9.1 31.1,8.7 29.9,12.6 30.4,12.8 	"/>
	<polygon class="st6" points="30.3,8.5 29.1,8.2 28.7,12.2 29.2,12.4 	"/>
	<polygon class="st6" points="13.5,42.1 12.8,38.7 23.4,23.2 23.7,23.4 	"/>
	<polygon class="st6" points="12.3,36.5 12.2,33 22.6,22.3 22.9,22.7 	"/>
	<polygon class="st6" points="10.8,31.7 10.8,28.9 22,21.4 22.2,21.7 	"/>
	<polygon class="st6" points="7.1,25.3 10.2,26.8 21.7,20.8 21.6,20.3 	"/>
	<polygon class="st6" points="8.4,20.4 10.8,22.3 21.4,19.7 21.3,19.3 	"/>
	<polygon class="st6" points="11.1,17 12.6,18.8 21.3,18.5 21.3,18.2 	"/>
	<polygon class="st6" points="13.4,14.4 14.4,16.2 21.4,17.4 21.5,16.9 	"/>
	<polygon class="st6" points="15.5,12.6 16,14.2 21.7,16.2 21.8,15.9 	"/>
	<polygon class="st6" points="17.2,12.2 17.2,10.9 22.5,14.8 22.2,15.3 	"/>
	<polygon class="st6" points="19.1,10.9 19.1,9.1 23.3,13.8 23,14.2 	"/>
	<polygon class="st6" points="23.9,13.4 21.3,10.1 22.1,9.6 24.2,13.2 	"/>
	<polygon class="st6" points="23.1,9.1 24.2,8.7 25.3,12.6 24.9,12.8 	"/>
	<polygon class="st6" points="24.9,8.5 26.1,8.2 26.5,12.2 26.1,12.4 	"/>
	<polygon class="st6" points="28,12.2 27.2,12.2 26.8,8.1 28.4,8.1 	"/>
	<polygon class="st6" points="26.3,16.8 27.6,12.9 28.9,16.8 33.1,16.8 29.8,19.3 31,23.2 27.6,20.9 24.3,23.2 25.4,19.3 22.2,16.8 
			"/>
	<polygon class="st6" points="28.7,24.7 29.2,24.6 29.9,28.3 29.1,28.2 	"/>
	<polygon class="st6" points="30.1,24.3 29.8,24.4 30.8,28.6 31.6,28.8 	"/>
	<path class="st6" d="M31.1,23.8L30.8,24l2,5.4c0,0,1.2,0.7,1.4,0.9L31.1,23.8z"/>
	<polygon class="st6" points="26.3,28.2 25.4,28.3 26.1,24.6 26.6,24.7 	"/>
	<polygon class="st6" points="24.6,28.5 23.8,28.8 25.2,24.3 25.6,24.4 	"/>
	<path class="st6" d="M22.6,29.3c0,0-1.1,0.6-1.4,0.8l3.1-6.3l0.3,0.2L22.6,29.3z"/>
	<polygon class="st6" points="35.8,37.3 36.3,34.4 41.3,44.5 40.3,49.1 	"/>
	<polygon class="st6" points="35.8,42 35.8,49.4 37,54.4 38.7,51.2 	"/>
	<path class="st6" d="M34.9,54.7l0.2,1.2l-3,2.2l-0.2-2.3C31.9,55.8,33.6,55.6,34.9,54.7"/>
	<path class="st6" d="M29.8,58.9l-2.1,1.2l-1.9-1.2l0.2-2.8c0,0,1.6,0.2,1.7,0.6c0,0,0.4-0.5,1.9-0.6L29.8,58.9z"/>
	<path class="st6" d="M23.7,55.8l-0.2,2.3l-3-2.2l0.2-1.2C20.6,54.7,21.4,55.4,23.7,55.8"/>
	<polygon class="st6" points="18.5,54.5 16.8,51.3 19.7,42.1 19.7,49.5 	"/>
	<polygon class="st6" points="15.2,49.2 14.2,44.5 19.2,34.2 19.7,37.2 	"/>
</g>
<g>
	<path class="st7" d="M61.9,29.6h6.6v1.4h-4.9v3.8h4.3V36h-4.3v4.7h-1.7V29.6z"/>
	<path class="st7" d="M75.3,29.4c3.1,0,5.3,2.4,5.3,5.8c0,3.4-2.2,5.8-5.3,5.8c-3.1,0-5.3-2.4-5.3-5.8C70,31.7,72.2,29.4,75.3,29.4z
		 M75.3,39.5c2.1,0,3.6-1.8,3.6-4.4c0-2.6-1.5-4.4-3.6-4.4c-2.1,0-3.6,1.8-3.6,4.4C71.7,37.7,73.2,39.5,75.3,39.5z"/>
	<path class="st7" d="M83.2,29.6h3.6c2.2,0,3.8,1.4,3.8,3.4c0,1.6-0.9,2.8-2.4,3.2l2.8,4.5h-1.8l-2.6-4.3h-1.7v4.3h-1.6V29.6z
		 M84.9,35.1h1.7c1.4,0,2.3-0.9,2.3-2.1c0-1.2-0.9-2.1-2.3-2.1h-1.7V35.1z"/>
	<path class="st7" d="M95.9,30.9h-3.5v-1.4h8.7v1.4h-3.5v9.8h-1.7V30.9z"/>
	<path class="st7" d="M103.2,29.6h1.7v11.2h-1.7V29.6z"/>
	<path class="st7" d="M108.2,29.6h6.6v1.4h-4.9v3.8h4.3V36h-4.3v4.7h-1.7V29.6z"/>
	<path class="st7" d="M116.9,29.6h1.7v11.2h-1.7V29.6z"/>
	<path class="st7" d="M121.9,29.6h1.6v4.9l4.7-4.9h2L125,35l5.3,5.7h-2.1l-4.8-5.1v5.1h-1.6V29.6z"/>
	<path class="st7" d="M136.1,29.6h1.4l4.4,11.2h-1.7l-1.2-3h-4.6l-1.2,3h-1.7L136.1,29.6z M135,36.5h3.7l-1.8-4.7L135,36.5z"/>
	<path class="st7" d="M145.2,30.9h-3.5v-1.4h8.7v1.4h-3.5v9.8h-1.7V30.9z"/>
	<path class="st7" d="M152.6,29.6h1.7v11.2h-1.7V29.6z"/>
	<path class="st7" d="M162.1,29.4c3.1,0,5.3,2.4,5.3,5.8c0,3.4-2.2,5.8-5.3,5.8c-3.1,0-5.3-2.4-5.3-5.8
		C156.9,31.7,159,29.4,162.1,29.4z M162.1,39.5c2.1,0,3.6-1.8,3.6-4.4c0-2.6-1.5-4.4-3.6-4.4c-2.1,0-3.6,1.8-3.6,4.4
		C158.6,37.7,160,39.5,162.1,39.5z"/>
	<path class="st7" d="M170.1,29.6h1.5l6,8.5v-8.5h1.6v11.2h-1.5l-6-8.5v8.5h-1.6V29.6z"/>
	<path class="st7" d="M182,38.5c1,0.7,2.1,1,3.1,1c1.4,0,2.4-0.8,2.4-1.9c0-2.6-5.6-1.4-5.6-5.2c0-1.9,1.6-3.1,3.8-3.1
		c1,0,2,0.2,2.9,0.6v1.6c-0.9-0.6-1.9-0.9-2.8-0.9c-1.4,0-2.3,0.7-2.3,1.8c0,2.5,5.6,1.3,5.6,5.2c0,1.9-1.6,3.2-3.9,3.2
		c-1.1,0-2.2-0.3-3.2-0.8V38.5z"/>
	<path class="st7" d="M196.3,40.7h-1.4l-4.4-11.2h1.7l3.4,8.8l3.4-8.8h1.7L196.3,40.7z"/>
	<path class="st7" d="M202.8,29.6h6.6v1.4h-4.9v3.5h4.3v1.3h-4.3v3.6h5v1.4h-6.7V29.6z"/>
	<path class="st7" d="M211.9,29.6h3.6c2.2,0,3.8,1.4,3.8,3.4c0,1.6-0.9,2.8-2.4,3.2l2.8,4.5h-1.8l-2.6-4.3h-1.7v4.3h-1.6V29.6z
		 M213.6,35.1h1.7c1.4,0,2.3-0.9,2.3-2.1c0-1.2-0.9-2.1-2.3-2.1h-1.7V35.1z"/>
	<path class="st7" d="M222.1,29.6h1.6v4.9l4.7-4.9h2l-5.2,5.5l5.3,5.7h-2.1l-4.8-5.1v5.1h-1.6V29.6z"/>
	<path class="st7" d="M232.6,29.6h6.6v1.4h-4.9v3.5h4.3v1.3h-4.3v3.6h5v1.4h-6.7V29.6z"/>
	<path class="st7" d="M244.6,30.9H241v-1.4h8.7v1.4h-3.5v9.8h-1.7V30.9z"/>
</g>
</svg>
