<?xml version="1.0" encoding="UTF-8"?> <svg xmlns="http://www.w3.org/2000/svg" width="5368" height="990" viewBox="0 0 5368 990" fill="none"><path fill-rule="evenodd" clip-rule="evenodd" d="M2097.26 214.712C2152.2 214.712 2197.75 231.927 2233.93 266.356C2270.1 300.786 2288.19 343.424 2288.19 394.271C2288.19 445.113 2270.16 487.751 2234.12 522.185C2198.07 556.619 2152.45 573.836 2097.26 573.836H1986.87V749.448H1872.01V214.712H2097.26ZM1986.87 318.007V470.534H2093.53C2116.39 470.534 2135.47 463.2 2150.77 448.531C2166.07 433.863 2173.71 415.837 2173.7 394.453C2173.7 373.079 2166.06 354.995 2150.77 340.2C2135.48 325.405 2116.4 318.007 2093.53 318.007H1986.87Z" fill="white"></path><path fill-rule="evenodd" clip-rule="evenodd" d="M2637.71 698.57C2598.32 737.492 2551.89 756.953 2498.44 756.953C2444.98 756.953 2398.49 737.492 2358.97 698.57C2319.43 659.649 2299.67 614.216 2299.67 562.272C2299.67 510.328 2319.43 464.892 2358.97 425.966C2398.49 387.044 2444.98 367.583 2498.44 367.583C2551.89 367.583 2598.32 387.044 2637.71 425.966C2677.1 464.888 2696.8 510.323 2696.8 562.272C2696.8 614.22 2677.1 659.653 2637.71 698.57ZM2433.91 632.936C2452.06 651.956 2473.57 661.466 2498.43 661.466C2523.29 661.466 2544.8 651.956 2562.95 632.936C2581.09 613.925 2590.17 590.431 2590.17 562.455C2590.17 534.478 2581.09 510.923 2562.95 491.791C2544.79 472.644 2523.29 463.07 2498.43 463.07C2473.57 463.07 2452.07 472.644 2433.91 491.791C2415.76 510.933 2406.68 534.487 2406.68 562.455C2406.68 590.422 2415.76 613.916 2433.91 632.936Z" fill="white"></path><path fill-rule="evenodd" clip-rule="evenodd" d="M2964.15 756.939C2942.78 756.939 2922.83 752.524 2904.3 743.694C2885.77 734.864 2872.66 726.102 2864.96 717.408L2853.4 703.607V909.824H2750.47V375.068H2853.4V420.958C2854.8 418.96 2856.36 417.078 2858.06 415.33C2860.17 413.094 2864.64 408.929 2871.48 402.838C2878.37 396.709 2885.79 391.217 2893.67 386.428C2901.64 381.579 2911.96 377.227 2924.62 373.372C2937.44 369.5 2950.76 367.554 2964.15 367.597C3012.63 367.597 3054.71 386.43 3090.39 424.095C3126.06 461.76 3143.9 507.814 3143.9 562.258C3143.9 616.701 3126.06 662.758 3090.39 700.428C3054.71 738.097 3012.63 756.93 2964.15 756.925V756.939ZM2880.24 488.238C2862.35 507.512 2853.4 532.187 2853.4 562.265C2853.39 592.342 2862.34 617.081 2880.24 636.481C2898.14 655.876 2919.84 665.571 2945.32 665.567C2970.81 665.562 2992.44 655.867 3010.21 636.481C3027.97 617.095 3036.85 592.359 3036.85 562.272C3036.85 532.185 3027.96 507.509 3010.19 488.245C2992.42 468.977 2970.79 459.345 2945.3 459.35C2919.82 459.354 2898.13 468.986 2880.24 488.245V488.238Z" fill="white"></path><path d="M3449.35 749.448H3552.28V375.068H3449.35V573.836C3449.35 601.93 3442.45 623.56 3428.65 638.725C3414.86 653.891 3396.27 661.473 3372.9 661.473C3352.02 661.473 3334.67 654.636 3320.85 640.962C3307.03 627.288 3300.13 610.007 3300.16 589.121V375.068H3197.23V599.194C3197.23 646.927 3210.72 685.145 3237.69 713.849C3264.67 742.552 3299.54 756.911 3342.3 756.925C3362.43 756.984 3382.34 752.724 3400.68 744.433C3419.2 736.104 3431.19 729.392 3436.67 724.294C3441.11 720.236 3445.34 715.941 3449.33 711.429L3449.35 749.448Z" fill="white"></path><path d="M3716.71 214.712H3613.4V749.448H3716.71V214.712Z" fill="white"></path><path d="M4029.79 749.448H4132.71V375.068H4029.79V573.836C4029.79 601.93 4022.89 623.56 4009.09 638.725C3995.29 653.891 3976.7 661.473 3953.34 661.473C3932.46 661.473 3915.11 654.636 3901.29 640.962C3887.46 627.288 3880.56 610.007 3880.58 589.121V375.068H3777.7V599.194C3777.7 646.927 3791.18 685.145 3818.16 713.849C3845.13 742.552 3880 756.911 3922.76 756.925C3942.89 756.984 3962.8 752.724 3981.14 744.433C3999.67 736.104 4011.66 729.392 4017.13 724.294C4021.58 720.234 4025.8 715.94 4029.79 711.429V749.448Z" fill="white"></path><path d="M4659.71 753.295H4763.01V535.514C4763.01 481.587 4751.01 440.752 4727.02 413.009C4703.03 385.267 4670.4 371.405 4629.13 371.424C4613.76 371.379 4598.47 373.707 4583.81 378.324C4569.28 382.925 4557.53 388.146 4548.57 393.989C4539.62 399.83 4531.2 406.444 4523.41 413.755C4515.57 421.084 4510.47 426.306 4508.11 429.42C4505.75 432.533 4504.08 434.831 4503.08 436.313L4500.09 429.603C4498.11 424.876 4494.31 419.345 4488.72 413.009C4482.64 406.211 4475.96 399.971 4468.77 394.362C4461.06 388.266 4450.75 382.92 4437.82 378.324C4424.53 373.662 4410.52 371.327 4396.43 371.424C4377.21 371.378 4358.33 376.533 4341.8 386.343C4324.76 396.289 4313.64 404.184 4308.42 410.027C4303.21 415.87 4299.35 420.78 4296.86 424.756V378.887H4193.95V753.295H4296.87V558.635C4296.87 531.038 4303.4 509.467 4316.45 493.922C4329.5 478.377 4345.97 470.609 4365.86 470.618C4383.52 470.618 4398.13 477.392 4409.69 490.94C4421.25 504.487 4427.02 523.195 4427.02 547.064V753.295H4529.95V558.635C4529.95 531.038 4536.41 509.467 4549.34 493.922C4562.27 478.377 4578.68 470.609 4598.58 470.618C4616.48 470.618 4631.15 477.392 4642.58 490.94C4654.02 504.487 4659.73 523.195 4659.74 547.064L4659.71 753.295Z" fill="white"></path><g clip-path="url(#clip0)"><path d="M1210 97.3L1342.1 325.1C1348.1 335.5 1348.1 347.5 1342.1 357.9C1336 368.3 1325.7 374.3 1313.6 374.4L992.3 374.9C1045.3 283 1098.6 189.9 1152.5 96.5C1158.6 86 1169 80.1 1181 80C1193 80 1203.4 86 1209.5 96.4L1210 97.3Z" fill="url(#paint0_linear)"></path><path d="M650.2 546.6H845.7C876.8 546.6 903.5 531.2 919.1 504.2L1002.5 359.8L1156 94C1162 84.8 1171.9 80.2 1181.7 80.2H1164H886C857.7 80.2 833.4 94.2 819.3 118.7L807.8 138.7L653.6 405.4L611.2 479C602.9 493.3 602.9 509.7 611.2 524.1C619.5 538.4 633.7 546.6 650.2 546.6Z" fill="white"></path><path d="M1064.8 823.8L933.4 597.2C927.4 586.8 927.4 574.9 933.3 564.5C939.3 554.1 949.6 548.1 961.6 548.1L1281.4 547.6C1228.6 639 1175.6 731.6 1121.9 824.6C1109.4 846.4 1077.9 846.3 1065.3 824.6L1064.8 823.8Z" fill="url(#paint1_linear)"></path><path fill-rule="evenodd" clip-rule="evenodd" d="M1695.5 383.8L1454 802.2C1439.9 826.7 1415.6 840.7 1387.3 840.7H1091.5C1101.4 840.7 1111 835.8 1117.5 826.7C1119.4 826.7 1270.6 561.4 1270.6 561.4L1541.8 91.5C1546 84.2 1553.3 80 1561.7 80C1570.2 80 1577.4 84.2 1581.6 91.5L1695.5 288.8C1713 319 1713 353.6 1695.5 383.8Z" fill="white"></path></g><defs><linearGradient id="paint0_linear" x1="1079.08" y1="220.454" x2="1220.79" y2="302.266" gradientUnits="userSpaceOnUse"><stop stop-color="#A6A6A6"></stop><stop offset="0.2" stop-color="white"></stop><stop offset="1" stop-color="white"></stop></linearGradient><linearGradient id="paint1_linear" x1="1195.12" y1="701.228" x2="1054.11" y2="619.811" gradientUnits="userSpaceOnUse"><stop stop-color="#A6A6A6"></stop><stop offset="0.2" stop-color="white"></stop><stop offset="1" stop-color="white"></stop></linearGradient><clipPath id="clip0"><rect x="605" y="80" width="1103.6" height="760.9" fill="white"></rect></clipPath></defs></svg> 