<svg xmlns="http://www.w3.org/2000/svg" xmlns:xlink="http://www.w3.org/1999/xlink" id="Lager_1" data-name="Lager 1" viewBox="0 0 141.42 66.11" width="141.42"  height="66.11" ><defs><style>.cls-1{fill:none;}.cls-2{fill:#d09b3e;}.cls-3{clip-path:url(#clip-path);}.cls-4{fill:#231f20;}</style><clipPath id="clip-path" transform="translate(-221.98 -386.83)"><rect class="cls-1" x="271.46" y="386.49" width="42.41" height="43.74"/></clipPath></defs><title>logotype-stadsholmen-ockra</title><path class="cls-2" d="M222,449.4l2.4-.94a3.5,3.5,0,0,0,3.44,2.16c1.44,0,2.8-.56,2.8-1.88,0-1.06-.86-1.54-2-1.86l-2.4-.58c-1.9-.48-3.42-1.34-3.42-3.86,0-2.68,2.22-4.24,5-4.24,2.38,0,4.54,1,5.18,3l-2.3.9a3,3,0,0,0-3-1.7c-1.16,0-2.28.52-2.28,1.8,0,1,1,1.46,2.08,1.76l2.44.6a3.77,3.77,0,0,1,3.26,4c0,2.62-2.34,4.36-5.48,4.36C225.12,452.92,222.72,451.82,222,449.4Z" transform="translate(-221.98 -386.83)"/><path class="cls-2" d="M238.36,440.72h-4.1v-2.28H245.1v2.28H241v12h-2.64Z" transform="translate(-221.98 -386.83)"/><path class="cls-2" d="M249.72,438.44h2.44l5.26,14.27h-2.78l-1-3h-5.44l-1.08,3h-2.66Zm3.12,8.94-1.94-5.72h0l-2,5.72Z" transform="translate(-221.98 -386.83)"/><path class="cls-2" d="M259,438.44h5.56c3.1,0,5.62,2,5.62,5.2v3.8a5.31,5.31,0,0,1-5.6,5.27H259Zm5.48,11.92a2.78,2.78,0,0,0,3.06-2.76v-4.12c0-1.72-1.48-2.7-3.16-2.7H261.7v9.58Z" transform="translate(-221.98 -386.83)"/><path class="cls-2" d="M271.34,449.4l2.4-.94a3.5,3.5,0,0,0,3.44,2.16c1.44,0,2.8-.56,2.8-1.88,0-1.06-.86-1.54-2-1.86l-2.4-.58c-1.9-.48-3.42-1.34-3.42-3.86,0-2.68,2.22-4.24,5-4.24,2.38,0,4.54,1,5.18,3l-2.3.9a3,3,0,0,0-3-1.7c-1.16,0-2.28.52-2.28,1.8,0,1,1,1.46,2.08,1.76l2.44.6a3.77,3.77,0,0,1,3.26,4c0,2.62-2.34,4.36-5.48,4.36C274.48,452.92,272.08,451.82,271.34,449.4Z" transform="translate(-221.98 -386.83)"/><path class="cls-2" d="M284.72,438.44h2.66v5.82h5.7v-5.82h2.66v14.27h-2.66V446.6h-5.7v6.11h-2.66Z" transform="translate(-221.98 -386.83)"/><path class="cls-2" d="M297.92,448v-4.56c0-3.38,2.88-5.26,5.7-5.26,3.1,0,5.8,2,5.8,5.2v4.28c0,3.38-2.88,5.27-5.7,5.27C300.62,453,297.92,451.21,297.92,448Zm8.86-.2v-4.56c0-1.72-1.48-2.7-3.16-2.7a2.78,2.78,0,0,0-3.06,2.76v4.56c0,1.72,1.48,2.7,3.16,2.7A2.78,2.78,0,0,0,306.78,447.82Z" transform="translate(-221.98 -386.83)"/><path class="cls-2" d="M311.86,438.44h2.66v11.92h6.94v2.35h-9.6Z" transform="translate(-221.98 -386.83)"/><path class="cls-2" d="M323.44,438.44h3.24l3.68,8.92h0l3.58-8.92h3.24v14.27h-2.56V443.2h0l-3.24,7.86h-2.1L326,443.24h0v9.47h-2.56Z" transform="translate(-221.98 -386.83)"/><path class="cls-2" d="M339.74,438.44h9.9v2.34H342.4v3.48h6.42v2.34H342.4v3.76h7.32v2.35h-10Z" transform="translate(-221.98 -386.83)"/><path class="cls-2" d="M352,438.44h2.58l6.2,9.72h0v-9.72h2.56v14.27h-2.6L354.62,443h0v9.75H352Z" transform="translate(-221.98 -386.83)"/><g class="cls-3"><path class="cls-2" d="M283.4,391.22a5,5,0,0,0,.26.63,3.14,3.14,0,0,0,.87.7l.09,0,.09,0h.18l.17,0,.18,0,.16-.05.16-.07.16-.07.16-.08.57-.31-.61-1.3-.48-1.35-.13,0-.26.09-.14.08-.15.07-.15.08-.16.07-.16.08-.15.08-.15.09-.14.11-.12.1,0,.07-.06.06-.05.07,0,.07,0,.08,0,.08,0,.09,0,.09v.2l0,.11Zm1.86-1.61.05.21.14.55.16.45.22.5.24.47-.33.16-.11-.3-.1-.23-.08-.24-.1-.23,0-.12-.06-.12-.06-.11-.07-.11-.08-.1-.08-.1-.09-.09-.22-.25Zm-.63.83h.1l.07,0,.07.05.05,0,.05.06,0,.07,0,.08.06.16.06.17.06.16.08.22v.36l0,.06,0,.06-.12-.05-.1-.06-.09-.06-.07-.07-.06-.09-.06-.1,0-.1,0-.1-.07-.22,0-.23,0-.23s0-.21,0-.25.1,0,.1,0m-1,.42,0-.16,0-.09,0-.07,0-.07,0-.07.05-.06,0-.06.06,0,.12-.07-.05.16v.46l0,.14.06.13.06.13.07.14.17.23.19.23.18.23.15.24-.17.06h-.1l-.1,0-.1,0-.09-.05-.08-.06-.09-.06-.07-.07-.08-.08-.06-.09-.06-.09-.06-.1-.1-.18-.07-.16,0-.07,0-.08v-.31Z" transform="translate(-221.98 -386.83)"/><path class="cls-2" d="M290,390.72s.29-.2.32-.32a2.62,2.62,0,0,0-.14-.49l-.05-.22-.06-.22,0-.23,0-.24v-.34l0-.11,0-.11s.05-.12,0-.14a.28.28,0,0,0-.09-.08l-.16,0-.15,0h-.47l-.16,0-.16,0-.31.07-.32.06-.16,0a.48.48,0,0,0-.16,0,1.27,1.27,0,0,0-.38.55,1,1,0,0,0,0,.15l0,.17,0,.08v.34l0,.07,0,.08.08.07.07.09.09.08.08.08.08.09.08.09.05.09,0,.06,0,0v.13l0,.31-.16.46.44-.1.13-.05.11-.06.12-.09,0,0,.05-.05,0-.06,0-.07,0-.06,0-.09v-.2l0-.23,0-.08,0,0v-.1l0,0,0,0,.05,0s0,0,.06,0,.19,0,.24,0,0,.08,0,.08l0,.07v.11s.19.72.43.68a.21.21,0,0,0,.2-.2,4.32,4.32,0,0,0,0-.51s-.31.14-.31.14l0-.33,0-.27,0-.27,0-.13,0-.14-.05-.12-.05-.13-.07-.11-.07-.13-.1-.11s-.11-.06-.1-.1.6-.18.6-.18l0,.27,0,.25,0,.25,0,.24,0,.27.06.27.09.25Zm-1.25-1.5,0-.07,0,0,0-.05,0-.05,0,0h.18l0,0,0,.05,0,.05,0,.08v.09a.35.35,0,0,1-.06.17.32.32,0,0,1-.14.08h-.15l-.09,0a.19.19,0,0,1,0-.1l0-.09Zm-1,.3v-.11l0-.1.06-.14.07-.12.07-.13.06-.11.09-.1,0,0,.05,0,0,0,.07,0h.23s.09,0,.1,0a.58.58,0,0,1,0,.2l-.11.19-.06.14-.06.19,0,.14,0,.19v.2l0,.14.06.19v.05l0,.08v.24l0,.3-.08-.26-.08-.11-.07-.1-.06-.08-.16-.17L288,390l-.05-.08-.05-.09,0-.09,0-.1Z" transform="translate(-221.98 -386.83)"/><path class="cls-2" d="M294.34,426.34l0-.11,0-.13,0-.1,0-.11-.05-.1-.06-.1-.05-.09-.08-.08-.08-.08-.1-.06-.1-.06-.11,0-.13,0h-.41l-.14,0-.14,0-.12.05-.13,0-.12.07-.11.07-.1.09-.1.09-.09.11-.09.12-.06.12-.06.14,0,.11,0,.11V427l0,.1.06.2.09.2.09.2.11.18a3.92,3.92,0,0,0,.72.51,1.42,1.42,0,0,0,.58,0,.53.53,0,0,0,.1-.07l.1-.07.09-.08.09-.09.08-.08.07-.1.06-.09.06-.1.11-.22.09-.22.07-.23a2.35,2.35,0,0,0,.07-.23c0-.05,0-.22,0-.22Zm-1.69-.58-.06.1-.06.11,0,.11,0,.11,0,.12v.13l0,.12v.77l.11.35.06.2V428h-.06l-.1-.11-.08-.09-.08-.08-.06-.1-.06-.1-.05-.11,0-.11,0-.11,0-.11v-.47l0-.11,0-.13.05-.13.18-.24.5-.29Zm.72.83v.18l0,.17-.15.86-.06,0-.07,0,0,0-.06,0,0,0-.05,0,0-.05,0-.05,0-.1,0-.12v-.52l0-.27,0-.24V426l.09-.06.09,0h.06l.07,0,.06,0,.05.06,0,.07,0,.07,0,.09,0,.1v.19Zm.55.62,0,.08,0,.08-.05.07-.05.07-.05.08,0,.07-.07.07-.08.06,0-.19,0-.24,0-.28,0-.3v-.31l0-.15,0-.15,0-.14-.06-.14,0-.12-.08-.11h.07l.05,0,.06,0,.06,0,.1.08.09.12.08.12.07.13.06.12,0,.19s0,.25,0,.37-.07.32-.07.32" transform="translate(-221.98 -386.83)"/><path class="cls-2" d="M286.23,390.12l.2.52.18.54.15.69.39-.17.2-.05.14,0,.35-.1-.18-.54-.08-.1-.08-.11-.06-.13-.06-.11,0-.13,0-.13,0-.13,0-.14-.06-.27,0-.28,0-.28,0-.28h-.26l-.15,0-.13,0-.26.08-.18.09-.26.09.2.46Zm.61-1.05.6,2.38-.07,0h-.06l-.07,0-.06,0-.06,0-.05,0-.05,0,0,0-.08-.12-.08-.13-.06-.14-.06-.16-.11-.33-.11-.34-.07-.16-.06-.16-.07-.15-.17-.19Z" transform="translate(-221.98 -386.83)"/><path class="cls-2" d="M281.4,393.44l.07.08.07.08.1.09.09.07.11.07.12.07.11.06.14.05.11,0a1,1,0,0,0,.84-.16c.19-.1.29-.33.46-.45a1.13,1.13,0,0,1,.35-.21l.3-.13s-.56-.61-.67-.75a4.31,4.31,0,0,1-.52-1l-.31-.68-.2.19-.1.09-.12.09-.25.13-.26.12-.13.06-.12.07-.12.07-.09.07-.1.09-.07.11,0,.06,0,.06,0,.06a2,2,0,0,0,0,.73,1.41,1.41,0,0,0,.22.66Zm1.69-.14,0,0,0,0h0l0,0h0l-.05,0h-.08l-.09-.06-.06-.07-.06-.09,0-.09,0-.09,0-.07,0-.06,0,0,.05,0h.09l.05,0,.05,0,.05,0,0,.05,0,.05,0,.06,0,.07v.08l0,.07Zm-.45-2.18.13.29.13.24.1.25.11.24.12.23.14.22.08.12.08.09.09.09.1.09,0,0,0,0-.06.06-.06.05,0,0-.07,0h0l0,0-.05,0-.05,0v-.13l0-.13,0-.11,0-.13-.05-.12-.05-.11-.06-.12-.08-.12-.08-.1-.09-.11-.09-.09-.1-.11-.21-.19-.23-.15Zm-.47.84a.38.38,0,0,1,.2,0,.32.32,0,0,1,.1.15l0,.08v.09l-.06.13-.12,0h-.12l0,0c-.08-.09-.11-.43,0-.49m-.61-.19s0,.15,0,.15l0,.15,0,.14.05.14.07.12.07.14.08.11.09.12.19.24.21.23.2.24.21.24-.18,0h-.13l-.11,0-.11-.06-.09-.05-.1-.06-.08-.07-.09-.08-.15-.18-.14-.18-.11-.2a1.46,1.46,0,0,1-.11-.2c-.07-.21-.07-.94.16-.93" transform="translate(-221.98 -386.83)"/><path class="cls-2" d="M276.86,396.15l0,.09,0,.09,0,.09.06.1.16.1.18.07.1,0,.1,0,.11,0,.1,0h.43l.1,0,.1,0,.1,0,.1-.06.05,0,.06-.06.08,0,.07-.05.08,0h.29l0,.11-.05.09,0,.09-.06.06-.06.06-.08,0-.08,0-.48.27-.61.12,0,.08.07.07.08.05.06.05.08,0,.09,0,.09,0,.17,0,.18,0,.19,0H279l.07-.11.09-.12.1-.11.11-.12.24-.21.22-.23.1-.12.07-.12,0-.06,0-.06,0-.07,0-.08v-.28l0-.08,0-.09,0-.08-.05-.08-.2-.14-.19-.11-.19-.09-.17-.1-.18,0-.48.15s-.62.37-.73.22.71-.38.68-.52a3,3,0,0,0-.64-.24l-.14.18-.26.17-.24.17-.11.09-.1.1,0,.06,0,.06,0,.06,0,.07,0,.06v.15Zm.3-.1a1.85,1.85,0,0,1,0-.23l0-.05.08-.09a1.71,1.71,0,0,1,.18-.2s.05.35.05.35l.06.11.15.07.16.05h.17l.08,0,.08,0,.13-.09.15-.09.14-.09.16-.08.08,0,.08,0,.08,0,.08,0h.09l.08,0,.08,0,.09,0,.08.07.08.09.07.09,0,.18,0,.06v.27l0,0-.07.19h0v0l0,0v0l0-.09,0-.12-.05-.11,0-.12,0-.05,0-.05-.06,0-.06,0h-.13l-.14,0-.13.05-.13.06-.26.15-.25.15-.12.07-.13,0-.12,0h-.19l-.07,0-.07,0-.07,0-.06,0-.07,0-.07-.07-.07-.07v-.16Z" transform="translate(-221.98 -386.83)"/><path class="cls-2" d="M278.47,394.75h.18l.09,0,.09,0,.19.06.18.08.38.18.37.18.18.07.17.06.09,0h.33l.08,0,.08,0,.08,0,.08,0,.08-.06.06-.07.07-.07-.18-1.52-.21-1.32,0,0,0,0h-.1l-.08,0-.07,0-.16.08-.17.09-.08.05-.08.06-.07.07-.05.05-.06.08,0,.07,0,.07,0,.06v.25l.05.12.06.1.09.12.11.11.1.1.1.11.1.11.09.13,0,.06,0,.07,0,.07,0,.07v.31l-.12,0-.11-.05-.12-.05-.1-.06-.1-.07-.09-.06-.08-.08-.07-.09-.15-.17-.13-.19-.13-.2-.12-.19-.17.1-.18.11-.18.11-.18.13-.09.07-.08.07-.06.08-.07.08,0,.09-.05.1,0,.1v.1Zm1.55-1.62.61-.49s.26,1.7.24,1.75-.85-1.26-.85-1.26m-.88.76s1.22,1.15,1.25,1.2-1.87-.68-1.87-.68Z" transform="translate(-221.98 -386.83)"/><path class="cls-2" d="M297.75,391l0-.09.06-.14,0-.13v-.26l0-.13,0-.12,0-.1-.06-.12-.14-.22-.15-.21-.17-.2-.17-.2.11-.1.1.11.09.11.08.09.1.1.08.08.1.08.1.08.12.08v-.31l0-.17,0-.18-.05-.16-.06-.17-.07-.16-.08-.16-.06,0-.07,0-.09,0h-.18l0,0h0l0,0,0,0,0,0,0,0-.12,0-.15,0h-.14l-.14,0h-.08l-.06,0h-.15l-.05,0-.06,0,0,0-.05,0-.07.1-.06.09-.05.1,0,.08,0,.08,0,.09v.08l0,.07v.07l0,.07,0,.07,0,.07.1.13.1.13.25.24.25.25.1.13.09.13,0,.07,0,.07,0,.08,0,.08h-.26l-.12-.05-.11-.06-.09-.07-.1-.09-.09-.1-.09-.11-.17-.22-.18-.2-.1-.09-.1-.08-.11-.06-.12,0,.07.19.06.19,0,.19.05.2,0,.19.06.19,0,.09,0,.08.05.09.06.08h.13l.13,0,.15,0,.13,0,.27.09.26.09.13,0,.13,0h.12l.12,0,.06,0-.06,0,.16-.1.06,0,.05-.06.06-.06Zm-.07-.53v.16l0,.08-.08.08-.08.07-.09.07-.1.06-.09.05-.12,0h-.19l-.07,0H297l.08,0,.07,0,.05-.06.05-.06,0-.07v-.24l0-.14,0-.14,0-.12-.08-.11L297,390l-.11-.1-.11-.1-.23-.18-.23-.19-.1-.11-.1-.1-.09-.12L296,389v-.08l0-.07,0-.07,0-.06.05-.07.06,0,.06-.05.07-.05.08,0,.07,0,.08,0h.08l.08,0,.08,0,.08,0,.07.05v.11l0,0-.05,0-.09,0-.06,0-.07.05,0,0,0,0,0,0V389l0,.12.08.12.08.1.1.1.21.18.22.19.11.08.09.1.08.11.06.11.05.13v.22Z" transform="translate(-221.98 -386.83)"/><path class="cls-2" d="M299.91,389.68l.15-.31-1.4-.63,0,.08,0,.1v.4l0,.21,0,.23-.05.22-.06.21-.07.19,0,.1,0,.1-.05.09-.06.08-.11.18-.13.16-.13.15-.11.13-.1.12-.07.09H298l.11,0,.19.09.18.11.1.05.1.05.09,0,.09,0h.3l.11,0-.05-.19,0-.18v-.36l0-.16,0-.17.06-.17.06-.15.15-.32.17-.31Zm-1.59,1.78h-.23l-.06,0,.17-.28.17-.3.16-.28.15-.29.06-.15.07-.15.06-.15,0-.15,0-.15,0-.14v-.31l.66.21-1,2.23Z" transform="translate(-221.98 -386.83)"/><path class="cls-2" d="M301.66,392.72l.07-.05.07-.06.06-.05.05-.08,0-.08,0-.08.06-.18,0-.19,0-.19,0-.19,0,0,.05,0,0,0,0,0,0,0h.1l.05,0v-.33l0-.12,0-.1v-.37l0-.08,0-.07,0-.06-.05-.07-.06-.07-.06,0-.13-.1-.14-.07-.16-.07-.17-.05-.18,0-.17,0-.35,0-.28,0-.17,0-.15.06-.14.07-.12.08-.12.09-.1.09-.08.11-.07.12-.06.12-.05.13,0,.13v.29l0,.16,0,.16.06.18,0,.12.06.12.08.1.09.1.08.09.11.08.11.07.12.06.11,0,.12,0,.13,0,.13,0,.27.05.28,0,.1,0Zm.19-2.33.1.05.07.06.08.06.07.09.06.08.06.12,0,.17Zm-1.29.35-.08.12-.06.14-.07.14-.06.14,0,.15,0,.14v.57l0,0,0,0,0-.05,0-.08-.05-.07,0-.11,0-.1,0-.11,0-.11,0-.13v-.49l0-.13.1-.12.08-.07.15-.07.13-.08.15-.08.15-.06.15-.05.16,0h.17l-.11.08-.1.09-.1.08-.08.12-.1.11Zm.3,1.28-.08,0h-.09l0-.1v-.09l0-.1v-.3l0-.11,0-.1,0-.1.05-.1.05-.08.05-.1.08-.08.07-.07.08-.06.08-.06.11,0h.18l.07,0,.07,0,.06.06.06.06,0,.07.09.15.07.17.06.15.05.15,0-.1,0-.09-.06-.09-.07-.08-.09-.07-.08-.06h-.05l-.05,0h-.1l0,.09-.05.08,0,.08,0,.1-.06.18-.07.17,0,.09,0,.08,0,.07,0,.06-.06.05Zm.4.4-.11,0h-.06l-.06,0h-.13l.69-1.15,0,0,0,0,0,0v0l0,.07v.09a.58.58,0,0,1,0,.4c-.07.21-.48.4-.48.4" transform="translate(-221.98 -386.83)"/><path class="cls-2" d="M303.19,393.08l.1-.17.09-.15.12-.16.11-.15.12-.14.11-.14.26-.25.25-.24-.1,0-.1-.05-.08-.05-.07-.06-.14-.13-.13-.14-.15-.13-.14-.13-.08-.05-.1-.05-.1,0-.11,0,.09.63-.09.12-.1.12-.08.14-.08.14-.15.29-.17.29-.08.14-.1.13-.11.11-.1.11-.13.1-.13.07-.07,0-.09,0-.07,0h-.08l1.35.87,0-.2,0-.17.05-.18.07-.18.07-.18Zm-.7.43-.48-.16.24-.24.21-.27.21-.28.19-.28.18-.3.16-.28.17-.28.16-.25.26.3Z" transform="translate(-221.98 -386.83)"/><path class="cls-2" d="M307.12,396.09l-.19.06-.19.08-.19.07-.09,0-.1,0-.11,0H306l-.09,0-.11,0,.18-.21.18-.21.18-.24.2-.22.11-.11.12-.11.12-.09.12-.08.13-.09.13-.05.13-.06.14,0-.08-.19-.11-.18-.12-.18-.14-.15-.08-.07-.07-.06-.09-.06-.09-.06-.08-.05-.1,0-.09,0-.11,0v.21l0,0,0,0,0,0-.19.22-.2.24-.2.23-.2.22-.11.1-.1.09-.11.08-.12.09-.12.06-.11.06-.14,0-.13,0,0-.07.06-.09.07-.08.07-.07.16-.16.16-.15.08-.07.07-.08.06-.09,0-.08,0-.08,0-.1v-.19l-.17.11-.16.1-.18.1-.17.07-.09,0-.08,0-.1,0-.09,0h-.18l-.08,0-.1,0,.11-.09.09-.11.1-.11.09-.12.18-.24.19-.23.09-.12.11-.09.11-.1.12-.08.11-.06.14-.06.14,0h.16l-.15-.16-.15-.18-.14-.16-.14-.18-.08-.08-.07-.08-.08-.08-.09-.06-.09-.06-.1-.06-.1,0-.11,0v.63l-.2.23-.19.21-.19.22-.19.22-.2.19-.22.18-.1.07-.12.07-.12.06-.12,0,.2.16.19.17.21.17.2.19.39.39.38.42.39.43.39.42.39.43.4.4,1.21-1.3Zm-3.51-1.48-.15-.2,1.47-2,.37.43Zm1,.28-.05.05,0,.06-.05.05-.05.05,0,0,0,0,0,0v-.33h.32Zm1,.77-.1.11-.1.11-.1.12-.08.1-.41-.23,1.79-1.8.46.43-.22.17-.25.19-.25.2-.26.2-.24.19Zm.33,1.19-.28-.33h.66Z" transform="translate(-221.98 -386.83)"/><path class="cls-2" d="M308.39,399.59l.14-.11.16-.1.15-.09.15-.08.17-.07.31-.15.32-.13.3-.1.31-.12-.07-.18-.07-.18-.09-.18-.11-.16-.11-.17-.1-.15-.11-.14-.12-.15-.33.63-.11.05-.1.06-.11.07-.11.08-.2.18-.21.17-.1.07-.1,0-.12.05h-.27l-.06,0-.06,0-.06,0-.07,0-.06-.06,0-.08,0-.07,0-.07.05-.07.05-.06,0-.05.06-.06.06-.05.15-.08.14-.08.15-.09.16-.07.15-.08.13-.08.13-.1.11-.12.05-.06,0-.07,0-.07,0-.08v-.51l0-.05,0-.06,0,0,0,0-.05,0,0,0-.11,0-.1,0h-.18l-.05,0,0,0,0,0,0,0,0,0v.06l0,.07,0,.06.06.06.06,0,.07,0-.05.06,0,.06-.05,0,0,0-.12.06-.11.05-.14,0h-.26l-.14,0h-.13l-.13,0-.13,0-.12,0-.06,0,0,0-.06,0,0,.05-.05,0,0,.06,0,.07,0,.07-.05.1,0,.09,0,.1v.44l.08.16.07.17.1.14.11.16.25.28.25.26.12.13.1.13.09.13.07.12.13-.13.13-.12Zm-1-1.69,0,.07,0,.06,0,.09,0,.08v.11l0,.1v.22l-.05-.07-.05-.08,0-.08,0-.08,0-.08,0-.09v-.33l0-.08,0-.09.06-.17.1-.18.21-.06h.46l.24,0,.12,0,.11,0,.1,0,.11-.05.09-.05,0,0,.12-.12.12-.14,0,.11-.08.11-.07.07-.06,0-.13.08-.13.07-.28.16-.29.14-.12.08-.12.09-.1.11Zm.49,1.7-.15-.59h.15l.15,0,.15,0,.14-.06.29-.13.28-.15.26-.17.27-.16.14-.06.13-.06.14-.06.13,0,.16.2Z" transform="translate(-221.98 -386.83)"/><polygon class="cls-2" points="54.88 10.86 54.88 10.95 54.88 11.02 55.32 11.02 55.34 10.98 55.36 10.94 55.39 10.88 55.39 10.83 55.39 10.79 55.38 10.73 55.36 10.68 55.35 10.64 55.29 10.55 55.22 10.49 55.17 10.46 55.13 10.45 55.08 10.43 55.02 10.41 54.96 10.43 54.92 10.45 54.89 10.46 54.87 10.49 54.84 10.52 54.84 10.56 54.84 10.61 54.84 10.65 54.85 10.76 54.88 10.86"/><path class="cls-2" d="M274.61,400.28l.18.05.16.05.17.06.16.06.17.08.16.08.16.09.17.09.15.1.15.1.15.11.14.11.14.1.13.12.09-.17.11-.16.08-.17.09-.17.08-.18.07-.18.08-.19.08-.18h-.25l-.25,0-.26,0-.15,0-.14,0-.13,0-.13-.05-.13-.06-.13-.06-.11-.08-.1-.08-.1-.11-.08-.11-.07-.13-.06-.14.13,0,.13,0h.26l.13,0,.13,0,.13,0,.13.06.26.11.26.12.13,0,.13.05.14.05.13,0,.11,0,.12-.08.12-.07.08-.08,0-.05,0,0,0-.06,0-.06v-.43l0-.07,0-.07-.06,0-.07,0-.07,0h-.13l-.05,0h-.05l-.05,0-.06.06,0,.08,0,.09,0,.09,0,.08,0,.08-1-1-.16-.05-.13,0-.13,0h-.33l-.08,0-.09,0-.08,0-.07.07-.06.06-.06.08-.06.09,0,.08,0,.1-.05.1-.14.43-.12.45-.07.21-.08.2,0,.09-.05.09-.05.07,0,.07.15,0Zm.49-1.69,0-.11.06-.1.05-.08.06-.07.06-.05.07,0,.07,0h.36l.08,0,.07,0,.08.05.16.1.14.11.15.14.14.13.11.15.11.15.1.14.08.14-.13,0-.12-.05-.14-.06-.13-.08-.26-.14-.26-.13-.14-.07-.12-.05-.13,0-.12,0h-.13l-.12,0-.13,0-.11.07ZM275,399v.09l0,.09,0,.07,0,.07,0,.08,0,.06.05.06.05.06.12.11.14.08.13.09.14.06.32.13.3.11.16.06.13.06.14.07.12.09-.3.34-.24-.13-.24-.14-.24-.13-.24-.12-.25-.11-.26-.09-.14,0-.13,0-.14,0h-.15Z" transform="translate(-221.98 -386.83)"/><path class="cls-2" d="M309.65,403.66h.05l.06,0,.06,0,.05,0v-.1l0-.09.05-.06,0-.05.07,0,.08,0H311l.1,0,.16-.07.16-.07.11-.09.11-.08.08-.08.06-.08.05-.09,0-.09v-.29l0-.09-.07-.2-.09-.2-.24-.42-.21-.39,0-.1,0-.09,0-.1v-.17l0-.09,0-.08,0-.08,0-.13,0-.12-.05-.11-.06-.09-.07-.1-.07-.07-.09-.07-.08-.06-.08-.05-.1,0-.09,0-.11,0h-.09l-.11,0H310l-.22,0-.22.05-.22.07-.21.09-.2.12-.18.13-.16.13-.15.15-.07.1,0,.1,0,.09v.28l0,.11,0,.1.07.2.1.2.1.19.08.18.07.07.09,0,.08,0,.07,0,.08,0,.09,0h.33l.18,0,.16,0,.17-.05.34-.08.33-.07H311l.07,0,.09,0,.07,0,0,.07,0,.08-.06.05-.06.06-.06.05-.06.05-.07,0-.09,0-.15.07-.17.05-.17,0-.17.05-.18.05-.16.05-.17.07-.14.08-.07.05-.06.05-.06,0-.05.07,0,.08,0,.08,0,.08,0,.11v.14l0,.07,0,.06,0,0,.06.05.05,0,.05,0,.08,0h.19Zm-.95-3.26-.1.12-.1.14v-.14l0-.12.05-.11.05-.11.08-.09.09-.09.08-.07.1-.07.22-.13.22-.11.24-.09.23-.08h.42l.1,0,.11,0,0,0,.05,0,0,0,0,0-.28.07-.3.07-.3.06-.3.08-.15.05-.14.07-.13.06-.14.08-.13.09Zm1.95-.09-.07.1-.08.1-.08.09-.09.08-.09.06-.11.07-.1.05-.11.05-.11,0-.11,0-.12,0-.13,0h-.52l0-.12.06-.11.08-.12.08-.09.1-.09.11-.07.11-.08.13-.05.13-.05.13,0,.13,0h.26l.13,0,.12,0Zm.24.34,0,.12-.05.11,0,.11-.06.09-.05.09-.08.08-.06.06-.09.06-.09.06-.08,0-.12,0-.11,0-.11,0-.14,0h-.14l-.35,0-.18,0-.12-.06-.05,0,0,0,0,0,0-.06.3,0,.29,0,.15,0,.13,0,.14,0,.13,0,.14-.05.12-.06.13-.08.11-.07.12-.1.12-.09.11-.12.1-.11ZM309.45,403l-.13.14.11-.14.11-.12.13-.11.14-.08.16-.08.15-.06.15-.05.17-.05.33-.08.32-.08.16-.06.15-.05.14-.05.13-.08-.2.49-.16.08-.15.06-.14,0-.14,0h-.26l-.27,0h-.25l-.12,0-.13,0-.13.05-.13.08Z" transform="translate(-221.98 -386.83)"/><path class="cls-2" d="M273.69,402.11H274l.33,0,.18,0,.17,0,.16,0,.18.05.17.06.15.07.17.07.15.08.16.1.14.1.14.12.13.13.08-.16.1-.19.07-.19.08-.21.06-.21.05-.2,0-.19v-.19l-.16,0H276l-.18,0-.18,0-.18-.05-.16-.06-.17-.07-.15-.08-.16-.1-.15-.09-.13-.11-.13-.12-.12-.13-.11-.13-.08.2-.1.19-.1.2-.11.19-.05.1,0,.09,0,.11,0,.09v.43Zm.42-.91v-.09l0-.09,2.28.9v.14l0,.05,0,.05,0,0,0,.06v.12l-.06-.05-.08-.05-.07,0-.07,0-.18-.06-.18-.07-.4-.08-.38-.09-.17-.06-.16-.06-.08,0-.07,0-.06,0-.05-.05-.05-.06,0-.06,0-.06,0-.06v-.18Z" transform="translate(-221.98 -386.83)"/><polygon class="cls-2" points="52.87 15.94 52.84 15.9 52.79 15.88 52.74 15.86 52.68 15.86 52.62 15.86 52.62 16.3 52.91 16.3 52.94 16.3 52.97 16.27 52.98 16.25 52.99 16.21 53 16.18 53 16.13 53 16.09 53 16.06 52.96 16.02 52.92 15.97 52.87 15.94"/><path class="cls-2" d="M273.05,405.47l.05.12.06.13,0,.06.05.05.05.06.07.06.09,0,.1,0,.09,0,.09,0h.08l.07,0H274l.07,0,.06,0,.06,0,.05-.05.06-.05.09-.12.1-.13.16-.29.18-.3.08-.14.11-.12,0-.06.06-.05.06,0,.06,0,0,.05,0,.06,0,.06V405l0,.11-.06.1-.07.1-.08.1-.19.21-.18.18-.07.1-.07.09-.05.11,0,.1.09,0h.26l.16,0,.18-.06.18-.08.18-.07.17-.06.19,0,0-.08,0-.09,0-.1v-.39l0-.11.05-.21.05-.22.05-.23v-.21l0-.09,0-.07-.05-.07-.06-.05-.06,0-.06,0-.07,0-.07,0-.15,0-.17,0-.15,0-.16,0-.12,0-.1.05-.11.07-.08.07-.09.08-.08.1-.06.09-.07.11-.12.22-.12.24-.11.23-.15.21-.28-.3v-.08l0-.08,0-.09,0-.07.11-.14.13-.13.14-.12L274,404,274,404l0-.07.06-.07,0-.07H274l-.11,0-.13,0-.11,0-.12,0-.11,0-.11,0-.12,0v.21l0,.11,0,.12-.06.24-.06.27,0,.13v.37Zm.15-.25v-.06l0-.06v.08l0,.06,0,.05,0,0,0,0,.05,0h.2l.09,0,.11,0,.1-.05.1-.18.08-.18.08-.2.07-.19.05-.09.05-.08,0-.09.07-.08.07-.08.08-.06.09-.06.11-.05.1,0,.09,0h.1l.08,0,.09,0,.08,0,.06.05.08.05.05.06,0,.06,0,.06,0,.06,0,.05v0l0,0,0,0,0-.06,0,0-.05,0,0,0-.05,0h-.11l0,0h-.13l-.11,0-.1,0-.1.05-.11.08-.09.09-.08.11-.07.11-.15.25-.12.25-.07.11-.08.1-.08.08-.09.06-.05,0-.06,0h-.24l-.07,0-.08,0-.05,0,0,0,0-.06v-.06l0-.06Z" transform="translate(-221.98 -386.83)"/><polygon class="cls-2" points="89.84 16.73 89.79 16.72 89.75 16.72 89.71 16.73 89.66 16.73 89.62 16.75 89.58 16.75 89.58 17.23 89.73 17.23 89.78 17.2 89.81 17.15 89.85 17.1 89.87 17.05 89.89 16.99 89.91 16.93 89.92 16.86 89.92 16.8 89.88 16.76 89.84 16.73"/><polygon class="cls-2" points="88.53 17.08 88.51 17.05 88.43 17.02 88.34 17.01 88.27 17.02 88.19 17.05 88.15 17.08 88.13 17.1 88.11 17.15 88.08 17.18 88.12 17.24 88.14 17.29 88.17 17.34 88.2 17.37 88.24 17.41 88.28 17.43 88.34 17.43 88.43 17.43 88.47 17.42 88.51 17.4 88.55 17.37 88.57 17.34 88.59 17.3 88.6 17.27 88.61 17.22 88.61 17.18 88.59 17.15 88.57 17.1 88.53 17.08"/><path class="cls-2" d="M312.66,407.4l0-.6,0-.61,0-.62,0-.12,0-.12-.06-.1-.06-.11-.08-.11-.08-.09-.09-.09-.09-.08-.11-.06-.12-.06-.12,0-.11,0-.13,0h-.28l-.14,0-.13,0-.13,0-.13,0-.13.05-.13.06-.12.07-.1.07-.11.07-.1.1-.08.09-.07.11-.05.12,0,.12,0,.14v.14l0,.16.07.15,0,.14,0,.16v.77l-.05.32,0,.32v.49l0,.16.24.34.12-.07.14-.06.14,0,.14-.05.16,0,.15,0h.65l.17,0,.15,0,.15.05.14,0,.13.06.13.07-.15.15-.16.13-.16.11-.18.11-.36.19-.35.17-.36.15-.33.17-.15.09-.07.05-.08.05-.14.1-.12.12.11.14.12.13.13.13.13.12.28.25.29.23.28.23.26.22.25.22.23.22-.16,0-.16,0-.17,0h-.33l-.17,0-.17,0-.17,0-.17-.06-.15-.06-.15-.07-.16-.09-.14-.09-.13-.09-.12-.11-.12-.12V412l0,.12,0,.22-.07.2-.06.2-.07.19,0,.09v.29h.09l.09,0h.23l.07,0,.08,0,.07,0,.26,0,.27.08.27.06.27.08.12.05.12.06.11,0,.09.08.09.08.07.09,0,.11,0,.12-.13,0-.13,0-.13,0-.15,0-.13,0-.12,0-.15,0-.12,0,.05.14.07.13.08.13.09.13,0,.08,0,.06,0,.07v.21l0,.08-.05.07-.14,0-.16,0-.14,0-.14-.06-.16-.06-.13-.07-.14-.07-.13-.09-.12-.09-.12-.1-.1-.1-.1-.11L309,414l-.07-.13-.06-.12,0-.14v.12l0,.12,0,.11,0,.1-.09.22-.11.21-.09.2-.09.21,0,.11v.34l.13-.07.12-.06.13,0H309l.11,0,.12.05.12.05.24.12.24.13.11.07.12.06.12.05.12,0,0,.09,0,.06-.06,0-.06,0h-.7l-.08,0-.1,0-.08,0,.2.09.2.11.2.09.2.1.22.09.2.08.21.06.22,0v-.18l0-.16,0-.17,0-.16.06-.16.06-.15.07-.16.07-.15.15-.3.15-.29.15-.31.15-.32-.16-.19.1-.14.09-.16.07-.17.07-.16.08-.17.05-.17.06-.18.05-.19.08-.37.09-.38.07-.38.07-.38h-.12l-.13,0h-.25l-.13,0-.13,0-.13,0-.12,0-.13-.05-.12-.06-.1-.07-.12-.07-.1-.07-.09-.09-.09-.08-.08-.09.1-.07.1-.06.11-.06.12,0,.13,0,.12,0h.52l.13,0,.12,0,.12,0,.12,0,.1.05.1,0,0-.32.05-.32,0-.31,0-.3,0-.61V407.4Zm-2.13,8.89h-.31l.31-.33Zm.35-1-.06.05,0,.06,0,.06,0,.08v.24l-.1-.12-.1-.1-.11-.1-.11-.08-.12-.08-.13-.07-.13-.06-.14-.06-.27-.1-.28-.09-.29-.07-.27-.08.19-.55,2.1,1Zm.26-.51-.33-.69.06,0h.05l0,0,0,0,.05,0h.14Zm.43-1.48-.24-.1-.27-.09-.26-.08-.28-.07-.27-.08-.26-.05-.25-.06-.23,0,.09-.63.25.11.24.11.24.08.24.1.25.06.24.06.26.07.25,0Zm-.93-2.48.1.08.1.07.12.07.12.06.12.06.13.05.13,0,.13,0,.13,0,.14,0,.13,0-.09.34-.28-.16-.28-.16-.27-.18-.26-.19-.12-.1-.11-.09-.11-.11-.08-.11-.08-.11-.07-.12-.05-.13.06.06.06.12.07.1.08.1.09.09Zm1.49-.94-1.38.13,1.48-.76Zm.22-3.23-2.21.12-.1-.49.08,0,.09,0,.1,0h.12l.13,0h.73l.16,0,.16,0,.14,0,.14-.05.14-.07.12-.06Zm-2.14-.69.08-.06.09-.05.09-.07.11,0,.1,0,.11,0,.11,0,.13,0h.63l.13,0,.12,0,.12,0V406l-.09.06-.1,0-.13,0-.11,0-.25,0h-.5l-.23,0-.12,0-.11,0-.08,0Zm-.19-.58v-.11l0-.05,0-.06.05-.05.06,0,.15-.09.14-.08.13-.08.33-.08h.3l.1,0h.09l.1,0,.08,0,.09,0,.08.06.09.06.07.07.07.08.07.09.06.11-.23,0-.25,0-.28,0-.27,0h-.28l-.14,0-.14,0-.13,0-.13.05-.13.06-.12.08,0,0Zm2.34,3.17-.24-.15-.1-.07-.14-.07h-.13l-1.26,0-.2,0-.21.08,0-.8.12,0,.13,0,.12.05.12,0,.12,0h1.16l.16,0h.14l.3-.05Zm.09-1.35v.09l-.05.08-.05.06-.17.09-.9,0-1-.08-.1-.08-.05-.05.12-.06.14-.05.13,0,.13,0,.29,0h1.21l.3,0Z" transform="translate(-221.98 -386.83)"/><path class="cls-2" d="M273,407.8l.06-.05.06-.05.06-.06.06-.06.15,0,.16,0,.15,0h.64l.15,0,.16,0,.15,0,.16,0,.14,0,.14.06.14.06.13.06.13.07v-.63l0-.19,0-.2,0-.2v-.43l-.05,0-.05,0h-.1l0,0,0,0,0,0-.05.07-.06.08-.07.05-.06,0h-.32l-.32,0h-1l-.15,0-.15,0-.14-.06-.13-.06-.13-.07-.12-.09-.1,1.64.09,0h.08l.07,0Zm0-1.18,2.24.1v.65l-.27-.09-.28-.07-.31,0-.3,0-.16,0h-.15l-.14,0h-.28l-.12,0-.12,0-.11,0Z" transform="translate(-221.98 -386.83)"/><polygon class="cls-2" points="52.44 21.32 52.39 21.28 52.34 21.26 52.28 21.25 52.24 21.25 52.18 21.25 52.13 21.26 52.07 21.27 52.02 21.3 51.99 21.34 51.95 21.38 51.93 21.44 51.9 21.5 51.9 21.57 51.93 21.6 51.96 21.66 51.99 21.72 52.01 21.78 52.05 21.81 52.09 21.84 52.13 21.84 52.15 21.84 52.2 21.83 52.24 21.8 52.31 21.79 52.37 21.77 52.42 21.76 52.47 21.72 52.51 21.68 52.53 21.64 52.53 21.57 52.53 21.47 52.51 21.41 52.47 21.35 52.44 21.32"/><path class="cls-2" d="M273.61,409.47h-.09l-.12.06-.15.06-.11.07-.12.08-.11.09-.08.11.19.14-.06.11-.06.1,0,.11,0,.11,0,.12,0,.12v.12l0,.11v.12l0,.11.05.12,0,.1.06.11.07.09.09.09.09.09.12,0,.11,0,.11,0h.35l.07,0,.07,0,.06-.05.06-.06.05-.06.08-.13.08-.15.14-.34.14-.34.09-.15.09-.14.06-.07,0-.06.08,0,.07,0,.07.12,0,.13,0,.12v.13l0,.13,0,.12,0,.12-.06.12-.13.24-.15.23-.16.24-.15.21h.18l.18,0,.2-.06.2-.09.1,0,.08-.06.09-.07.07-.06.07-.08.07-.07.05-.08.05-.09-.06-.07-.05-.08,0-.07v-.37l0-.15,0-.17v-.24l0-.1v-.2l0-.09,0-.08,0-.07,0-.08-.06-.05-.06-.06-.07-.06-.07,0-.08,0-.07,0-.18,0-.18,0h-.36l-.17,0-.17.05-.15.07-.14.08-.05,0-.11.57,0,.14,0,.14,0,.14,0,.14,0,.13-.05.08h-.07l-.05-.07,0-.07,0-.18,0-.16,0-.18,0-.15Zm-.14,2-.07-.05-.08-.08-.1-.11-.09-.13L273,411a2.51,2.51,0,0,0,.44.38c.08,0,.16-.09.16-.09l.05-.06.05-.07.06-.09,0-.08.05-.09,0-.1.12-.42.11-.41.07-.18.07-.16.05-.07.05-.06.05,0,.06,0,.08,0h.26l.1.05.12,0,.12.09.15.09v.19l-.14,0h-.23l-.1,0-.09,0-.1.06-.07.07-.08.09-.08.09-.05.1-.06.11-.06.1-.1.23-.09.21-.1.21-.08.16-.05.07-.05.06-.06,0-.06,0h-.12Z" transform="translate(-221.98 -386.83)"/><path class="cls-2" d="M275.1,415.68l.14-.08.16-.09.16-.08.16-.06.16-.07.17-.05.17-.05.16,0,.18,0h.56l-.06-.19-.06-.18-.07-.19-.08-.19-.08-.17-.08-.17-.1-.17-.1-.15-.06.13-.07.11-.09.09-.09.1-.11.08-.1.07-.13.07-.13.06-.13.05-.15,0-.14,0-.14,0-.29.05-.26,0-.14-.13-.11-.12-.08-.1-.06-.09,0-.08V414l0-.06.05,0,0,0,.07,0,.09,0,.19,0,.22,0,.25,0,.25,0,.12,0,.13,0,.12,0,.1,0,.11-.05.1-.06.08-.07.08-.07.06-.09.05-.11,0-.12,0-.13,0-.07v-.06l0-.06,0-.06,0-.06,0-.05,0,0-.05-.05-.12-.06-.12,0-.13,0h-.13V413l-.25,0-.26,0-.25,0h-.6l-.12,0L274,413l-.09.07-.11.07-.09.1-.05.11-.05.11,0,.1,0,.11,0,.1v.28l0,.17.07.17.07.17.1.15.2.32.21.31.08.17.07.18,0,.08,0,.09,0,.09v.09l.28-.21ZM274,413.75l-.1.13-.08.05,0-.16.05-.16.07-.13.1-.11.1-.08.12-.08.13,0,.12,0,.14,0,.14,0,.15,0,.14,0,.16,0,.13,0,.14,0,.13.08-.14.14-.12,0h-.14l-.14,0h-.25l-.25,0h-.11l-.12,0-.1,0-.12.07-.09.08Zm.74,1.59-.06,0-.07,0-.06,0-.06,0-.06-.05-.05-.08-.05-.07-.1-.14.15,0h.56l.14,0,.14,0,.14,0,.28-.1.27-.11.26-.12.25-.13.29.3-.14,0-.16,0-.16.07-.17.07-.34.18-.35.17-.17.06-.17.05-.07,0h-.24Z" transform="translate(-221.98 -386.83)"/><path class="cls-2" d="M276.59,418.79l.15,0h.13l.14,0,.13,0,.12-.06.13-.06.11-.08.1-.08.11-.11.08-.12.08-.09.08-.1.06-.08,0-.1.05-.08,0-.09,0-.09v-.35l0-.1-.06-.16-.07-.18-.19-.34-.2-.36-.1-.17-.1-.17-.08-.17-.06-.18-.14.12-.15.11-.15.1-.15.1-.34.18-.34.15-.34.15-.35.14-.33.13-.32.13.08,0,.08,0,.05,0,.06.05.06.05,0,.05.05.05,0,.06,0,.13.05.13,0,.15,0,.14,0,.15,0,.15,0,.14.05.14,0,.06,0,.07,0,.06.05.06.05.05.06,0,.07.05.08,0,.12.06.13,0,.13,0,.13,0h.14Zm.86-2,0,.08V417l0,.08-.06.08-.08.07-.08.07-.06.07,0,.07-.06,0-.05,0,0-.07,0,0,0-.06,0-.07V417l.08-.05.06,0,.06,0,.07,0,.06,0,.07,0h.17Zm-1.74.32-.09.09-.09.1-.38-.54,1.85-.88.45.44-.28.06-.26.08-.27.09-.26.11-.12.06-.12.07-.11.08-.11.07-.11.08Zm.77.45v.12l0,0-.05,0-.07,0-.06,0-.08,0H276l0,0h-.07l0,0v-.15l0-.06,0-.06,0-.05,0-.05,0-.06.06,0,.05,0h.15l0,0,0,0,0,.07,0,.08Zm-.16.86-.16,0-.16-.06-.14-.07-.14-.09H276l.28,0,.15,0,.14,0,.16,0,.15,0,.15-.07.15-.06.14-.08.13-.1.13-.09.14-.12.11-.13.11-.14v.22l0,.11,0,.09,0,.1,0,.1-.06.09-.07.08-.07.08-.08.06-.09.07-.09.05-.09,0-.09,0-.11,0h-.1l-.07,0-.08,0-.06,0h-.24Z" transform="translate(-221.98 -386.83)"/><path class="cls-2" d="M310.09,417.6l0-.15,0-.14-.06-.12-.07-.11-.08-.09-.1-.09-.1-.07-.12-.07-.25-.12-.25-.1-.12-.05-.12-.06-.11-.07-.11-.06.15-.49,0-.07,0-.05,0,0,0,0h-.16l-.09.05-.08.06-.06.07-.05.07L308,416l-.05.12v.21l0,.09,0,.1,0,.1.06.08.13.16.15.17.07.08.07.09.06.09.06.08-.07.08-.06.08-.06.07,0,.07,0,.08-.05.09-.06.08-.05.08h-.09l-.08,0-.09,0-.07-.05-.07-.06-.06-.07,0-.07-.05-.08-.1-.18-.07-.17-.07-.16-.06-.08v.16l0,.08-.06.09-.07.08-.09.07-.08.07-.08.06-.09.07-.08.07-.06.08-.05.08v.24l0,.05,0,.06.05.08.08,0h.25l.17,0,.15.05.15.07.16.08.14.11.14.1.29.25.27.25.26.25.25.22.2-.24.2-.25.2-.26.2-.25.09-.13.08-.13.06-.15.06-.13.05-.14,0-.14v-.3Zm-.68,1.27-.05.06-.05.05-.05.07,0,.05-.05.06-.05.06,0,0-.07-.08-.07-.11-.09-.08-.1-.1-.22-.18-.24-.17-.26-.16-.28-.14-.28-.14-.28-.13.1-.4.13.07.13.11.12.08.12.12.24.21.23.22.14.1.12.09.13.07.15.07.15,0,.14,0h.34Zm0-.42-.06,0-.06,0h-.44l0-.05,0-.06,0,0v-.1l0-.05,0,0,0-.05.06-.09.07-.09.08-.09.06-.08.07.07.08.06.05.08.05.08,0,.09,0,.09v.22Zm.4-.48-.07-.1-.09-.09-.1-.1-.21-.19-.25-.21-.26-.2-.24-.23-.11-.12-.11-.12-.09-.13-.08-.12.28.14.29.15.13.08.14.09.14.08.12.1.11.11.1.11.1.11.08.14.07.13.05.14,0,.16v.16Z" transform="translate(-221.98 -386.83)"/><path class="cls-2" d="M280,421.1l.13-.1.13-.09.13-.09.14-.07.14-.06.15,0,.15,0-1.11-1.15v.1l0,.09,0,.11,0,.09-.06.1-.07.09-.07.09-.08.09-.18.17-.2.14-.19.13-.17.11-.09-.11,0-.11,0-.1v-.16l0-.06-.05,0-.06-.05-.05,0-.16,0-.16,0-.17,0-.14,0,.16-.15.18-.14.18-.14.18-.12.2-.11.2-.08.21-.07.24-.05,0-.11,0-.09,0-.11,0-.08-.12-.18-.15-.17-.16-.16-.15-.16-.07-.08-.08-.08-.05-.1-.05-.08-.06.18-.08.19-.11.16-.11.17-.13.15-.14.15-.14.14-.17.13-.16.12-.17.12-.17.1-.17.1-.33.17-.32.15.07.13.08.11.08.11.1.12.1.09.11.1.11.08.12.07.11.08.12,0,.13,0,.13,0h.28l.14,0,.15,0v.25l0,.12,0,.1,0,.1-.06.09-.09.09-.09.08.12.19.12.18.13.16.14.16.15.14.18.14.18.12.19.12,0-.06,0-.06,0-.07v-.34l.2-.24.22-.25.22-.25.24-.23Zm-2.16-1.55-.12.09-.11.07-.11.09-.09.08-.34.45-.45-.51,2-1.47.09.12,0,0v.06l0,.07v0l0,.06v.05l0,0-.05.1-.09.09-.09.1-.11.09-.24.17Zm.69,2.55-.13-.13-.08-.08-.07-.07-.06-.08-.05-.08,0-.1v-.16l0-.07,0,.06v0l0,0,0,0,0,0,0,0h.05l0,0,.2-.19.19-.2.21-.18.21-.18.22-.2.22-.18.22-.19.23-.18.31.3Z" transform="translate(-221.98 -386.83)"/><path class="cls-2" d="M308.54,420.13l-.09-.08-.08-.07-.18-.18-.16-.18-.09-.09-.08-.07-.08-.07-.08-.06-.09-.05-.08,0h-.17l.35.44,0,.09,0,.11v.28l0,.06,0,.05,0,.06,0,0,0,.05,0,0-.06,0-.07-.11-.1-.1-.09-.1-.1-.1-.22-.2-.22-.2-.09-.11-.1-.1-.07-.12-.06-.12,0-.07v-.43l0-.08h-.19l-1,1.31h.15l.14,0,.13,0,.13.05.12.06.11.06.12.07.11.09.11.09.09.1.1.1.09.1.15.23.15.21-.09.05-.08,0h-.15l-.07,0-.09,0-.07,0-.07,0-.14-.08L306,421l-.07,0h-.14l-.05,0,1.2,1.26,1.75-2-.1-.05Zm-1.4,1.32-.05.08-.07.08-.06.07,0,0-.06,0,0,0h-.09l-.06,0-.05,0-.06,0-.38-.38h.14l.07,0,.12.05.12.06.13,0,.16,0H307l.06,0,.07,0Zm1-1.08v0l0,.08,0,.1-.69.62-.16-.21-.18-.22-.18-.21-.2-.21-.2-.19-.22-.18-.1-.07-.12-.08-.11-.06-.12,0,.34-.47.2.21.18.2.19.2.17.2.19.19.2.18.11.09.12.08.12.07.12.08.05,0,.05,0,0,0,0,0,0,0V420l.07.07.07.06.06.05,0,.06v.09Z" transform="translate(-221.98 -386.83)"/><path class="cls-2" d="M306.2,422.37l-.15-.09-.14-.11-.15-.12-.13-.12-.12-.14-.11-.15-.11-.14-.1-.15-.08-.16L305,421l-.15-.32-.12-.3-.1.07-.08.07-.08.08-.07.07-.14.16-.12.16-.14.16-.14.16-.08.08-.1.07-.09.07-.12.06.17.08.15.09.15.1.15.11.14.12.13.13.12.14.12.15.1.14.11.15.09.16.09.16.07.16.06.16.06.17,0,.17,1.31-1.31-.18-.07Zm-.62.75-1.65-1.68.65-.61.14.27.18.25.15.24.19.23.19.23.21.2.23.21.25.21Z" transform="translate(-221.98 -386.83)"/><path class="cls-2" d="M282.5,423.16l.12-.13.13-.13.13-.11.13-.12.13-.11.13-.1L281,420.92l-1.16,1.54.07,0h.22l.14-.05.14-.06.26-.15.25-.18.12-.07.12-.06h.11l.05,0h.06l.05,0,.06,0,.05,0,0,.05.05.06.06.07,0,.08,0,.11-.16.19-.17.2-.18.22-.19.19-.1.09-.1.08-.1.09-.11.07-.12.06-.12.06-.12,0-.12,0,0,.11.06.11.06.1.06.09.08.08.07.09.1.08.09.07.1.06.09.07.11.06.1,0,.23.08.21.07.05-.17.05-.16.07-.17.08-.15.08-.17.1-.15.11-.15.1-.16.12-.15Zm-1-1.58,0,0h-.06l-.06,0h-.11l-.13,0-.11,0-.11.07-.13.06-.12.08.42-.64.08,0,.07,0,.07,0,.06.06.06.07.05.07.06.07.07.07Zm.81,1.2-.17.25-.19.24-.18.26-.18.25-.18.25-.16.24-.61-.36.1-.13.11-.12.12-.14.12-.12.26-.23.25-.23.1-.12.1-.11.08-.13.06-.12,0-.07V422l0-.09.66.41-.13.24Z" transform="translate(-221.98 -386.83)"/><path class="cls-2" d="M304.4,424l0-.07-.05-.09-.05-.08,0-.08-.06-.07-.06,0-.07-.05-.06,0-.07,0-.16,0h-.5l-.33.05-.33.05h-.3l-.07,0-.06,0-.06,0-.05,0,.09-.1.11-.08.1-.06.12,0,.13,0,.13,0,.13,0,.14,0h.28l.26,0H304l-.08-.13-.11-.13-.13-.14-.14-.12-.15-.12-.17-.09-.08-.05-.08,0-.09,0-.08,0-.06.12-.07.11-.08.08-.09.06-.09.06-.11,0-.1,0-.11,0-.21.06-.22.07-.09.06-.1.06-.08.08-.08.1,0,.08,0,.08,0,.08v.16l0,.08v.08l0,.08.05.15.09.14.08.14.08.13,0,0,.06,0,.05,0,.06,0,.12,0h.22l.12,0,.12,0,.1,0,.12,0,.12,0,.11,0h.33l.05,0,.06,0,0,0,.05,0-.05.11-.07.09-.08.07-.1.06-.09,0-.12,0-.12,0h-1l.86.67.06,0,0-.05.05,0,0-.06.05-.05.06,0h.09l0,0,.21-.1.24-.09.12-.05.12-.06.12-.06.1-.07.1-.07.08-.08.07-.09.05-.1,0-.06V424Zm-1.58-1.53,0-.06,0-.05h.21l.08.06.09.08.07.07.07.09-.63-.13Zm-1.15.65v.1l0,.12.05.12,0,.07,0,.06,0,.05,0,.05.05,0,.06,0,.06,0h.07l.24,0,.25-.08.27-.07.27-.06.14,0h.25l.11,0,.12.05.09.07.05,0,.05.05,0,.06,0,.07,0,.07v.19l0,.1-.06.1-.09.09-.07.08-.06.09-.05.09,0-.07,0-.1,0-.13,0-.14v-.22l0-.06,0-.06-.05-.05-.08-.05-.09,0-.13,0-.15,0-.14,0-.14,0-.29.1-.28.06-.13,0H302l-.06,0-.06,0-.05,0-.06,0,0,0-.05-.05,0-.08,0-.07,0-.07,0-.1.16-.46h0" transform="translate(-221.98 -386.83)"/><path class="cls-2" d="M285.05,423.62l-.09-.12-.11-.11-.12-.08-.13-.07-.14-.06-.14,0-.15,0h-.45l-.15,0-.13.06-.13.06-.12.09-.17.2-.18.2-.08.11-.09.1-.07.11-.06.12-.06.1,0,.12,0,.13,0,.13,0,.13v.13l0,.16,0,.14.06.13.07.11.09.1.08.1.11.08.09.09.12,0,.11.06.12.05.13,0,.13,0h.11l.13,0h.14l.13,0,.13,0,.14-.1.14-.09.12-.11.11-.1.09-.12.1-.13.07-.13.06-.14.05-.16.05-.14,0-.15,0-.16v-.65l-.05-.14Zm-1.73.46-.08.14-.07.13-.07.13-.06.14-.05.14,0,.15,0,.14,0,.15,0,.14-.16-.06,0,0,0-.05,0-.07v-.4l0-.12,0-.11,0-.11,0-.11,0-.1.05-.09.06-.09.06-.06.11-.12.13-.1.13-.1.12-.06.12-.08.13-.07h.06l.07,0h.14l0,.11-.12.09-.11.09-.1.1-.1.11-.09.11Zm0,1.42,0-.12v-.12l0-.13,0-.12,0-.13,0-.11.06-.12.06-.12.15-.23.16-.21.19-.21.18-.2.12.06.07.06.05.08,0,.07,0,.07,0,.08,0,.09,0,.08-.1.18-.08.17,0,.08,0,.08,0,.09-.1.17-.09.09-.09.1-.1.09-.1.07-.11.06-.1,0Zm1.58-1.08-.06.28-.07.21-.22.34-.08.13-.16.16-.09.09-.08.07-.11.06-.12.05h-.44l.15-.1.14-.12.14-.11.12-.13.12-.13.12-.13.09-.14.1-.14.07-.16.08-.16,0-.15,0-.16,0-.17v-.17l-.07-.26-.28-.23h.1l.07,0,.08,0,0,0,.05.05,0,.06.1.24.06.33Z" transform="translate(-221.98 -386.83)"/><path class="cls-2" d="M290.4,425.61v.63l0,.11,0,0,0,0,0,0,0,0-.05-.13,0-.15-.06-.12L290,426l-.06-.12-.07-.11-.07-.09-.08-.1-.08-.08-.09-.09-.09-.08-.08-.07-.21-.13L289,425l-.22-.1-.23-.09-.24-.08-.23-.07-.49-.12-.48-.13.14.34,0,.18,0,.19,0,.18-.05.18-.06.16-.07.16-.05.07-.06.07-.06.06-.07.06h-.25l-.09,0-.08,0-.08,0,0,0,0,0,0,0v-.13l0-.05.05-.09.08-.11.08-.12.1-.12.09-.13.07-.14,0-.07,0-.07,0-.07v-.22l0-.07,0-.07v-.07l0-.08,0-.06-.05-.06-.06-.05-.07-.05-.07,0-.09,0-.07,0h-.08l-.07,0-.07,0-.06.05-.05.05,0,.07,0,.08,0,.06v.27l0,.11-.06.09-.07.11-.07.11-.08.1-.08.11-.09.11-.07.12-.05.12,0,.06V426l0,.07,0,.08.05.1.06.08.07.07.07.06.08.06.08.05.1,0,.09,0,.21,0,.2,0h.39l-.53.53,1.64.43,0-.07,0-.09v-.18l0-.08,0-.08-.06-.07-.08-.06.06-.25.06-.26.07-.25.08-.25.06-.13,0-.12.07-.1.06-.12.08-.11.08-.11.1-.09.1-.1.12.06.1.06.07.07.06.1.05.08,0,.11,0,.11,0,.1,0,.23,0,.22,0,.11,0,.11,0,.1.06.1-.87.53.68.68.11-.15.14-.12.14-.1.14-.08.09,0,.08,0,.07,0h.38l-.33.73.1,0H290l.12,0,.11,0,.22.08.21.07.11,0,.1,0h.2l.09,0,.1-.05.08-.07.1-.1-.3-.3v-.92l0-.31,0-.17,0-.15,0-.16.05-.15.07-.14.07-.15.09-.13.1-.13-1.55-.09Zm-4.33-.4-.14.19-.08.1-.05.08,0,.1,0,.1v.1l0,.06,0,.05,0,.06,0,.05,0,.06.06.06-.49-.16,0-.14v-.23l0-.11,0-.11.05-.1.06-.1.06-.1.08-.09.08-.07.09-.09.08-.07.14-.17.23-.31v.35l-.06.11,0,.1-.08.1Zm1.3,2.05-.55-.18.06-.25.08-.3.08-.3.1-.32.11-.31.12-.3.06-.16.08-.14.08-.13.07-.13.26.32Zm1.6.28-.29-.32.71-.4h.53Zm.36-1.08-.05-1.09.77,1.18Zm1.18.55.05-.27,0-.28v-.9l.61.05-.11.27-.1.29-.08.29-.07.28-.05.29,0,.28v.52h-.45l.09-.26.07-.27Z" transform="translate(-221.98 -386.83)"/><path class="cls-2" d="M300.24,426l0-.08,0-.07,0-.06-.05-.06,0-.06-.05-.05-.05,0-.12-.09-.13-.06-.14,0-.14,0-.16,0-.15,0h-.89l0-.05,0,0,.05,0,0,0,.1-.05.11,0,.12,0h.11l.13,0,.12,0,.25,0,.24,0,.14,0H300l.11,0L300,425l-.08-.17-.11-.15-.1-.16-.12-.14-.13-.13-.07-.05-.09,0-.08-.05-.08,0,0,.08,0,.07,0,.06-.05,0-.05.05-.05,0-.05,0-.06,0-.12,0-.13,0-.14,0h-.41l-.14,0-.12,0-.06,0-.06,0-.06,0,0,0-.06,0-.05.06,0,.07,0,.08,0,.16,0,.16v.28l0,.13,0,.13-.05.12-.06.12-.14.21-.16.19-.14.18-.12.15,0-.25,0-.24,0-.27v-.39l.07-.36,0-.11.05-.11.07-.1.07-.1-.26,0-.23,0-.23.06-.21.05-.22.05-.21,0-.22,0-.25,0,.1.05.1.07.08.09.06.09.06.11.05.1,0,.12,0,.13,0,.27v.24l0,.25V427l-.58-.68,0,.22v.23l0,.24,0,.23,0,.23.05.24.05.22.06.23.14-.09.11-.08.13-.06.13-.06.13-.05.15,0,.14,0,.14,0,.3,0,.29,0,.31,0h.31v-.44l-.05-.2-.06-.2,0-.09,0-.1v-.29l0-.11,0-.1,0-.1.1.08.08.08.09.1.07.09.14.2.13.19.13.18.13.18.08.07.08.07.09.06.09,0,.08-.08.08-.06.08-.05.08,0h.6l.09,0,.1,0,.08-.05.08-.05.09-.06.07-.06.06-.07.06-.08,0-.09.05-.08,0-.1,0-.1V426Zm-1.09-1.44s.34.21.28.29-.7-.12-.7-.12Zm-2.84,2.8h-.06l-.07,0-.09,0-.19.07-.21.08-.09,0-.1,0-.08,0-.09,0h0l0,0h0l0,0,0,0v-.1l0-.05.08,0,.06,0,.06,0,.06,0,.06,0,.07,0h.16l0-.08,0-.08v-.08l0-.1V427l0-.1,0-.1-.12-.41-.13-.4-.05-.18,0-.16v-.2l0,0,0-.05,0,0,.06,0h.4l.14,0,0,.12,0,.13v.55l0,.28,0,.27.07.25.06.25.07.21Zm.78-.05-.06,0h-.45l.46-.47.1.37Zm2.34-.88,0,.05,0,0,0,0-.08.05-.08,0-.09,0-.1,0-.09,0-.18.11-.9-.23.34-.08.18,0,.18,0,.19,0,.19,0h.36l.17,0Zm.34.11v-.13l0-.11-.05-.1-.06-.08-.08-.07-.09-.06-.1-.05-.11,0-.12,0-.14,0h-1.05l-.22,0h-.08l-.07,0-.06,0-.05,0,0-.05v-.07l0-.07,0-.1.08-.11.08-.12.12-.16.16-.15v.07l0,.06-.05.07-.05.06,0,.07v.1l0,0,0,0,.05,0,.05,0,.06,0,.07,0,.06,0h.31l.31,0,.32,0h.31l.14,0,.14,0,.06,0,0,0,.06,0,0,.05.05.08,0,.07,0,.08,0,.1Z" transform="translate(-221.98 -386.83)"/><polygon class="cls-2" points="79.08 37.73 79.03 37.67 78.98 37.65 78.94 37.62 78.86 37.61 78.79 37.61 78.71 37.63 78.71 38.11 78.96 38.11 78.97 38.1 79.01 38.07 79.03 38.05 79.06 38.02 79.1 38 79.12 37.97 79.14 37.92 79.15 37.87 79.11 37.79 79.08 37.73"/><polygon class="cls-2" points="81.77 19.44 81.74 19.2 81.71 18.96 81.65 18.76 81.61 18.66 81.58 18.58 81.54 18.51 81.49 18.44 81.45 18.39 81.4 18.36 81.34 18.33 81.27 18.32 81.21 18.33 81.15 18.36 81.09 18.39 81.04 18.44 81 18.51 80.96 18.58 80.92 18.66 80.9 18.76 80.85 18.96 80.82 19.2 80.81 19.44 80.8 19.7 80.81 20.19 80.83 20.63 80.85 20.95 80.86 21.06 81.75 21.06 81.77 20.95 81.78 20.63 81.79 20.19 81.78 19.7 81.77 19.44"/><polygon class="cls-2" points="60.02 19.29 59.98 19.1 59.95 18.94 59.92 18.87 59.89 18.81 59.87 18.75 59.83 18.7 59.78 18.65 59.75 18.63 59.69 18.61 59.64 18.61 59.59 18.61 59.55 18.63 59.5 18.65 59.46 18.7 59.43 18.75 59.39 18.81 59.37 18.87 59.34 18.94 59.31 19.1 59.29 19.29 59.27 19.49 59.26 19.7 59.27 20.1 59.29 20.45 59.31 20.69 59.32 20.79 60.03 20.79 60.03 20.69 60.05 20.45 60.06 20.1 60.06 19.7 60.05 19.49 60.02 19.29"/><polygon class="cls-4" points="62.75 25.57 62.75 25.56 62.75 25.54 62.75 25.52 62.74 25.52 62.75 25.57"/><polygon class="cls-2" points="72.38 6.14 72.4 6.18 72.44 6.22 72.49 6.24 72.55 6.27 72.7 6.28 72.89 6.3 73.08 6.3 73.27 6.31 73.44 6.31 73.59 6.33 73.68 6.33 73.72 6.33 73.81 5.57 72.45 5.63 72.45 5.65 72.42 5.72 72.39 5.82 72.37 5.92 72.36 5.98 72.36 6.03 72.37 6.09 72.38 6.14"/><polygon class="cls-2" points="70.19 4.12 70.28 4.11 70.42 4.11 70.6 4.1 70.79 4.1 70.98 4.07 71.17 4.06 71.33 4.04 71.38 4.01 71.43 3.99 71.47 3.96 71.49 3.91 71.5 3.86 71.5 3.81 71.5 3.75 71.5 3.69 71.47 3.59 71.44 3.49 71.42 3.42 71.41 3.4 70.29 3.38 70.15 4.12 70.19 4.12"/><polygon class="cls-2" points="73.37 11.45 73.42 11.46 73.55 11.47 73.75 11.48 73.99 11.51 74.24 11.52 74.49 11.53 74.71 11.53 74.88 11.53 74.94 11.52 75 11.48 75.03 11.44 75.07 11.38 75.09 11.29 75.1 11.22 75.12 11.13 75.12 11.04 75.12 10.88 75.1 10.72 75.09 10.62 75.09 10.58 73.36 10.84 73.37 11.45"/><polygon class="cls-2" points="71.18 9.6 71.13 9.56 71.07 9.56 70.99 9.57 70.79 9.61 70.55 9.63 70.3 9.64 70.05 9.64 69.83 9.64 69.65 9.63 69.53 9.63 69.48 9.63 69.48 10.42 71.11 10.36 71.13 10.32 71.15 10.21 71.2 10.07 71.24 9.92 71.24 9.84 71.24 9.76 71.24 9.69 71.21 9.64 71.18 9.6"/><polygon class="cls-2" points="73.43 15.06 75.01 15.18 75.01 14.34 73.49 14.4 73.43 15.06"/><path class="cls-2" d="M313.71,407.15l0-.83-.07-.83-.1-.82-.13-.82-.17-.81-.19-.81-.24-.79-.26-.79-.28-.78-.33-.76-.17-.35-.17-.36-.17-.35-.21-.36-.2-.34-.21-.35-.21-.34-.24-.35-.24-.34-.25-.33-.26-.33-.26-.33-.27-.32-.27-.32-.29-.31-.28-.32-.3-.3-.31-.31-.3-.29-.31-.29-.32-.28-.32-.29-.32-.27-.33-.26-.32-.26-.33-.25-.35-.25-.33-.24-.33-.23-.35-.22-.34-.22-.33-.2-.63-.36-.65-.34-.65-.3-.68-.28-.67-.26-.7-.23-.7-.21-.71-.18-.73-.15-.72-.14-.72-.1-.75-.07-.73-.06-.74,0-.75,0-.74,0-.74,0-.73.08-.75.09-.72.12-.74.14-.71.17-.71.19-.71.22-.69.24-.68.26-.68.3-.65.3-.65.35-.63.35-.62.39-.59.41-.6.45-.58.47-.56.48-.55.48-.52.51-.49.51-.49.53-.46.55-.44.55-.43.56-.4.57-.38.6-.35.59-.35.6-.32.63-.29.63-.29.63-.26.65-.22.65-.23.68-.19.67-.17.68-.15.69-.12.69-.1.72-.09.71-.06.72,0,.74v1.47l0,.74.06.76.1.72.11.73.16.72.16.72.21.73.23.71.25.71.29.7.29.68.33.69.36.68.37.66.4.65.41.64.44.63.45.61.49.59.5.58.51.56.54.55.55.52.56.5.59.47.6.45.62.43.62.4.66.37.65.34.67.32.69.3.69.25.71.22.69.2.71.19.7.16.71.14.72.12.71.09.72.07.73.06.71,0H293l.72,0,.71,0,.73-.06.71-.08.7-.11.71-.11.7-.16.69-.17.67-.2.68-.21.67-.25.65-.26.66-.29.62-.32.63-.34.62-.35.59-.4.58-.41.57-.44.56-.46.54-.49.52-.51.57-.59.56-.6.52-.65.5-.65.47-.67.45-.69.43-.71.39-.73.37-.74.34-.76.31-.77.28-.77.26-.8.23-.8.2-.81.17-.8.14-.83.12-.82.07-.83.06-.83,0-.83Zm-21.36-18.28,0,0,.06,0h.31v0l0,0,0,.05,0,.05.05,0,.06.06.06.05.16.17.34.36.48.51.53.58.55.61.49.54.41.45.23.28.15.16.19.19.21.2.21.21.2.18.17.18.06.09.05.07,0,.06v.15l0,.13.05.14,0,.16.05.13v.22l0,0,0,0-.07,0h-.37l-.12,0h-.35l-.06,0,0,0,0,0v0l0,0,0-.05v-.05l0-.1,0-.12,0-.13v-.19l0-.06,0-.06,0-.05,0-.08,0-.06v0l0,0,0,0-.05,0-.14,0-.24,0h-.45l0,0,0,0v.09l0,.06,0,.08,0,.07v.22l0,.13-.05.13-.07.13-.09.13-.1.12-.1.08-.06,0-.05,0-.06,0h-.18l0,0,0,0,0,0,0,0v0l0-.08v-.2l0-.14,0-.16-.07-.16,0-.07,0-.09-.06-.06-.06-.05-.07-.05-.07,0-.07,0h-.21l0,0-.05.05-.06.07-.07.18-.07.2-.07.2-.1.18,0,.08-.08.06-.07.05-.09,0h-.15l-.06,0-.05,0,0,0,0-.06,0,0,0-.08v-.49l0-.17,0-.08,0-.06,0,0-.05,0,0,0h-.19l-.15,0-.17.05-.18,0-.19.05-.08,0-.06,0,0,0,0,.06v.05l0,.06,0,.08,0,.07.07.14.06.14,0,.06v.11l0,0-.08.06-.09.05h-.3l-.05,0-.05,0,0,0,0-.06,0-.06,0-.08,0-.16-.09-.14,0-.07-.06-.07-.05-.06-.07-.06L291,394l-.07,0-.09,0-.08,0-.08,0-.1,0h-.31l-.08,0-.07,0L290,394l0,.07,0,.08,0,.07,0,.08-.05.17,0,.15,0,.06,0,.06,0,0-.06,0h-.11l0,0,0-.05,0-.05,0-.06v-.07l0-.08,0-.17,0-.19,0-.09,0-.08,0-.09-.05-.07-.05-.07,0-.05-.05,0-.06,0h-.11l-.06,0-.07,0-.12.06-.13.07-.14.08-.13.07-.06,0-.05,0,0,.05,0,.05,0,.12,0,.12,0,.12,0,.1,0,0,0,0-.05,0h-.16l0,0,0-.05v-.39l0-.15,0-.15v-.2l0-.05,0,0,.11-.1.11-.08.15-.1.13-.09.12-.08.08-.09.21-.22.43-.48.59-.64.66-.71.67-.72.59-.63.44-.47.21-.24.07-.06Zm10.75,31.21,0,0-.05,0h-.35l.2.29-.54.43,0,0,0,0,0-.05,0-.05,0,0,0,0,0,0H302L302,421h-.09l-.08,0-.1,0-.09-.07-.08-.1-.07-.1,0-.06,0-.07,0-.06v-.07l.11-.12.12-.12.12-.12.13-.11.14-.09.14-.1.14-.08.16-.06.15,0,.14,0h.37l.07,0,.07,0,.06,0,.07.05.06,0,.07.06.06.07-.08,0-.07-.05-.08-.06-.09-.05-.08-.05H303l0,0,0,0Zm-2.07,1.6,0,.05,0,0-.05,0h-.05l-.11,0-.09-.06-.1-.07-.1-.05h-.14l-.05,0,.25.42-.14-.08-.13-.09-.12-.12-.12-.12-.13-.12-.13-.12-.15-.12-.15-.09V421l0-.09,0-.09.05-.07.06-.07.07-.06.07-.06.09,0,.16-.09.17,0,.16,0,.16,0h.07l.07,0,.07.05.08.06.08.08.07.08.07.1.06.09.11.19.1.17.06.12,0,.05-.07,0h-.12l-.06,0-.09-.07-.1-.1,0-.05,0,0,0,0h-.09l-.05,0,0,.05-.05.07Zm-1.74.78-.63-.29,0,0v.07l0,0,.06.07.08.08.07.08.06.08v.09l0,0,0,.05-.07,0-.06,0-.07-.06-.06-.06-.07-.07-.06-.07-.07-.07-.07-.06,0,0,0,0,0,0v.09l0,.06,0,.07.05.06,0,.07,0,.07-.08,0h-.16l0,0,0,0,0,0v0l0-.07-.06-.08,0,0h-.16l-.1.39,0-.06-.06-.06-.06-.05-.07,0-.15-.1-.15-.08-.05-.05-.05-.06-.05-.06,0-.06v-.15l.05-.1.06-.11.05-.07.06-.07.08-.07.07-.07.15-.12.18-.11.18-.08.2-.06.2-.05.2,0h.29l.09,0,.1,0,.08,0,.08,0,.09.05.07.06.07.07.06.07.06.08.06.09,0,.09,0,.12,0,.12-.68-.35Zm-2.71,1h-.15l-.05,0-.08-.05-.07-.07-.08-.09-.08-.08-.08-.07-.08-.06v.58l-.07-.06-.07-.05-.07-.06-.09-.06-.09,0-.09-.06-.08-.05-.07-.06v.44l-.14-.1-.13-.09-.12-.09-.12-.11-.11-.1-.11-.1-.12-.1-.12-.08v-.13l0-.11,0-.1.05-.09.05-.08.07-.08.07-.08.08-.05.17-.12.19-.1.2-.09.2-.09H296l.19,0h.08l.09,0,.09,0,.07.05.07.06.06.07.05.08,0,.1,0,0,0,0,0,0,0,0,0,0v0l0,0v.15l0,.05,0,.05,0,0,0,.07.05,0,0,.05.24.19H297v0h0v.06l-.58-.44Zm-2.51-.48,0,0,0,0,0,0,0,0,0,0,0,0h-.09l0,.06V423l.06.11.08.09.1.11.08.1,0,.06,0,.05,0,.06v.06l-.73-.53.1.63-.53-.54,0,0,0,0v.13l0,.07.05.06,0,.06,0,.07v.07H293l0,0-.06-.06,0-.07,0-.07,0-.08,0,0,0,0-.05,0,0,0-.14.15,0,0,.06.05,0,0v.06l-.14-.19h0l-.15-.07-.17-.08-.08-.05-.07-.05-.07-.06-.05-.07-.05-.07v-.2l0-.12,0-.09,0-.13,0-.15.05-.13,0-.07,0-.06.05-.06,0-.06.07,0,.08-.05.08,0,.11,0,.22,0,.23,0h.22l.23,0,.11,0,.11,0,.12,0,.11,0,.09,0,.11.06.09.06.1.06v.25H294ZM294,420.6h-1.2l-.41,0h-.22l-.2,0-.2,0-.2,0-.09-.1-.11-.09-.12-.1-.11-.08,0,0,0,0,0-.05,0,0v0l0-.06,0-.06.05-.06.68.67.19-.19-1.06-1,0,0,0,0,0,0,0-.05v-.15l.1.08.11.12.1.12.1.12.05.05.06.06.05,0,0,0,.06,0h.18l-1-1.12.1-.09.67.58.1-.05-.13-.15-.12-.17-.12-.16-.11-.17-.09-.18-.1-.16-.06-.17,0-.14.77.67v-.18l0-.1,0-.08-.05-.09-.07-.07-.06-.08-.08-.07-.17-.15-.15-.15-.07-.08-.07-.08-.06-.09,0-.08.1-.11.77.74.09-.11-.12-.15-.14-.17-.15-.18-.16-.17-.07-.09-.07-.09-.07-.11-.05-.09,0-.11,0-.11,0-.1v-.12l.06,0,.07,0,.05,0,.06.05.05,0,0,.05.05,0,.05,0,.11-.09,0-.06,0-.06,0-.05-.05-.06-.08-.09-.11-.1-.08-.09-.07-.11,0-.06,0-.06v-.13l.87.68,0-.05V416l-.06-.08-.07-.09-.08-.08-.05-.09,0-.05v-.06l0-.06,0-.07.42.43.35-1.66,0,0,0,0,0,0,0,0,0,.11,0,.12v.72l0,.14v.15l0,.12,0,.05,0,.05,0,.05,0,0,0,0,0,0,0,0h.06l0,0,0,0,0-.05v-.06l0-.14V415l0-.42v-.86l0-.07,0-.06,0,0,0,0,0,0,.05,0h.05l0,.07,0,.09v.62l0,.37V415l0,.31,0,.15,0,.12,0,0,0,.05,0,0,0,0,0,0,0,0,0-.06,0-.06,0-.08,0-.08,0-.1v-.1l0-.24,0-.26v-1.33l0-.21,0-.11,0-.08,0-.09,0-.06,0-.05.05-.05,0,0h.06v.2l0,.36,0,.46,0,.5,0,.5,0,.45v.17l0,.16v.06l0,.05,0,0,0,0,0,0,0,0,0,0,0,0,.06-.11.05-.12.05-.15,0-.17,0-.17,0-.18,0-.37,0-.35v-.47l-.06,7.08-.15,0-.17,0H294Zm-2.73,3.16-.53-.54v.54l0-.08,0-.1-.06-.07-.07-.08-.07-.07-.07-.09-.07-.07-.06-.07-.05,0,0,0v.25l-.09,0-.09,0-.08-.05-.06,0-.05-.07,0-.07,0-.07,0-.08,0-.17-.05-.17,0-.09,0-.07,0-.08,0-.06.1-.11.12-.09.14-.08.15-.08.15-.06.17-.05.16,0,.17,0,.06,0,.07,0h.3l.15,0,.07,0h.06l.06,0,.05,0,0,.06,0,.07v.18l-.08.08,0,.07,0,.08v.14l0,.07,0,.07,0,.06.09.13.09.13.05.07,0,.07,0,.07,0,.07-.58-.43Zm-2.61-1.16v.06l0,.1.05.11.06.12.06.11.06.11,0,.11-.62-.77-.08,0-.06,0,0,0,0,0v.11l0,0,.05.07.06.08v0l0,.05v.08l-.05-.09-.06-.09-.06-.07-.05-.07-.07-.06-.06,0-.07,0-.07,0-.14-.07-.14-.06-.16-.07-.14-.06.05-.08,0-.07,0-.09V422l0-.18,0-.17v-.21l0-.06,0-.05.07,0,.09,0h.35l.25,0,.12,0h.13l.12,0,.13,0,.12,0,.1.05.11.06.1.07.09.07.07.1.07.11.05.11-.06,0,0,0,0,0v.24h-.09l0,0h0l0,0h0l0,.05v.21l0,.13.06.14.07.13.08.13.06.13.05.13-.07,0-.08,0,0,0-.05-.05-.08-.12-.08-.14-.07-.15-.07-.13-.05,0,0-.06-.06,0-.07,0v0l0,.05Zm.68-1.37-.12-.07-.07,0-.07,0-.08,0-.07,0-.16,0h-.48l-.12,0h-.3l-.15,0-.12,0-.11,0-.08,0-.06,0,0,0,0,0h0v-.2l0-.51,0-.75,0-.87,0-.9,0-.81v-1l0-.36,0-.61V414l0-.84V411l0-.27,0-.2,0-.37,0-.47,0-.51,0-.52,0-.45v-.5h0v0h.19l.23,0,.28,0,.34,0,.38.06h.19l.21,0h1.22l.18,5.61V416l0,1.33v3.56l-.09.4h0l0,0,0,0,0,.05-.05,0-.06,0-.07,0h-.18l-.05,0-.05,0-.09-.07-.11-.07Zm-2.86.35,0,.14.06.14.07.14.07.15,0,.07,0,.08v.16l0,0,0,0,0,0,0-.05-.06-.11-.05-.1-.06-.11-.06-.09,0-.05,0,0,0,0-.05,0v.73l-.53-.87,0,0-.05,0,0,0,0,0v.08l0,0v0l0,.08,0,.07,0,.07,0,.07,0,0,0,0,0,0,0-.05-.05-.12-.06-.12,0-.05,0-.05,0,0,0,0-.05,0h-.06l-.06,0-.07,0v-.06l0,0,0,0,0,0-.13-.09-.12-.08-.06-.06-.05-.05,0-.05,0-.07v-.09l0-.08,0-.11.07-.11.13,0,.16,0,.15,0h.62l.15,0,.15,0,.15.05.13.07.13.08.12.1.1.11.1.13.08.14v.44l0-.06,0-.06,0-.07,0-.07,0-.06,0-.05-.07-.05-.07,0,0,.07,0,.07v.07Zm.34-1.55,0,.26v.09l0,.06v0h0l-.06,0-.07,0-.1-.05-.12-.05-.28-.09-.31-.09-.33-.09-.32-.1-.14,0-.13-.05-.11-.05-.1,0-.21-.12-.3-.18-.33-.21-.35-.23-.17-.12-.16-.12-.15-.11-.12-.12-.09-.1-.07-.1,0,0,0-.05v-.07l.06-.23.07-.41.07-.5.09-.54L283,416l.06-.45,0-.31v-.12l3.8-.25v.91l0,.94,0,1.06,0,1-.05.9Zm-3.18.82-.07-.11-.07-.11-.06-.12-.07-.12-.08-.12-.09-.11-.08-.09L283,420v.43l-.08-.1-.06-.11-.05-.11-.06-.1-.07-.11-.08-.07,0,0,0,0h-.11v-.53l.12.09.13.07.16.07.15.05.32.11.32.09.16.06.13.06.13.07.1.1,0,0,.05.05,0,.06,0,.07,0,.06v.27l0,0h0l0,0v0l0-.06,0,0h-.11V421l-.05-.12,0-.11-.07-.09-.08-.11-.07-.09-.07-.1-.08-.08-.07-.08Zm-1.3-.67-.15-.09L282,420l-.1-.11-.1-.09-.08-.11-.06-.11-.05-.1,0-.12-.05-.25,0-.26,0-.29,0-.32.14.1.13.07.14.08.15.09.14.08.15.09.13.1.13.12h-.38l-.07,0-.07,0,0,0v.14ZM281,417.51l-.32-.25-.38-.27-.39-.29-.37-.26-.17-.09-.15-.09-.13-.06-.09,0,0,0,0,0-.05,0-.06-.05-.11-.13-.12-.17-.13-.2-.14-.22-.13-.25-.14-.26-.26-.54-.23-.52-.19-.45-.12-.34-.05-.24-.06-.26-.06-.27-.05-.27-.08-.55-.06-.51-.05-.46,0-.37,0-.24v-.09l5.79,5.07v.13l0,.35,0,.48-.06.58-.07.61-.07.55,0,.25,0,.22,0,.16,0,.12-.84-.48-.09-.06Zm.08.86v.19l0,.11,0,.11-.13-.09-.12-.08-.12-.11-.12-.1-.24-.26-.22-.28-.2-.28-.22-.31-.19-.28-.19-.29.12.11.15.11.14.1.16.1.33.2.33.2.14.12.13.12.06.06,0,.07.05.07.05.07,0,.08,0,.09,0,.08Zm-2.34-10.3v.62l0,.09.12.17.15.23.19.24.19.24.16.22.11.14,0,.06v0l.06,0,.07.07.08.08.07.08,0,.06,0,0v0h0l-.09-.06-.17-.1-.19-.16-.21-.19-.23-.18-.19-.17-.15-.14-.1-.09-.09-.08-.13-.12-.17-.14-.19-.17-.2-.15-.18-.14-.16-.12-.13-.08,0,0-.06,0H277v-.32l0-.06,0,0,.06,0,.07-.06.1,0,.1,0,.11,0,.11,0,.09,0h.14l0,0V408l0,.07,0,0h0l0,0h.27l0,0V408l0-.11,0-.13,0-.16,0-.13.05-.12,0-.08,0,0,0,0h.05l0,0,0,.06,0,.06,0,.06v.61Zm0-5.7v.06l0,.05,0,0,.05,0,.06,0h.16l.1,0h.09l.1,0,.09,0,0,0,0,0,0,0,0,0,0,0v-.68h.24l0,.14v.57l0,.05,0,0,.05,0,.07,0h.18l.07,0h.16l.07,0,.08,0,0-.06,0,0v-.17l0-.05v-.06l0,0,0-.12,0-.11v-.15l0,0,0,0h.15l0,.19v.28l0,.06v.05l0,.05,0,0,0,0,0,0,.1,0,.09,0,.11,0h.77l.07,0,.05-.06,0-.06,0-.06v-.53l0-.06,0,0,0,0h.16l0,.07,0,.07V402l0,.14,0,.14,0,.14,0,.15v.15l0,.07,0,.07-4-.09-.1-1.07h.19v.65Zm3.24-.26,0,.1v.11l0,0,0,0,0,0h-.23l-.07,0-.1,0v-.48l0-.15v-.07l0-.06,0-.06,0,0-.06,0-.07,0-.07,0H281l1-2.28.37,2.37h-.22l-.05,0h0l0,0,0,0,0,0,0,.09,0,.09V402Zm-.49-2.62-.08.19-.09.18-.09.16-.2.36-.2.34-.11.18-.08.18-.09.18-.07.19,0,.19,0,.2,0,.2v.07l0-.15,0-.07,0-.09,0-.07-.05-.08,0-.06-.06-.06-.06-.06-.07,0-.08,0-.08,0h-.25l-.06,0-.05,0,0,.05,0,0,0,.06v.57l-.19-.58,2.37-2.28Zm.64,13.51v-.32l0-.07,0-.07.09.09.06.08.06.08,0,.1,0,.1v.55l0,.22v.43l-.07,0-.06-.05-.07-.05-.06-.06-.06-.07,0-.06-.05-.07-.05-.06.05-.06,0-.06,0-.07,0-.07V413Zm-1.4-2.26,0-7.25.16,0,.18,0,.17,0,.15,0,.32,0h.88l.15,8.45Zm.26,1.51v-.15l0-.15,0-.14v-.13H281l.09,0,.08,0,.07.06.06.07.05.09v.18l-.11.91h-.13l0,0-.06,0,0-.05-.05-.06-.05,0,0,0,0-.06.05-.06,0-.07,0-.06v-.29Zm-.87-.19,0,.1-.15-.07-.12-.07,0,0,0,0,0,0,0,0,0-.09v-.08l0-.08,0-.1.08-.19.05-.2,0-.11v-.1l0-.05v-.06l0-.05,0-.06.13.06.09.06.07.06,0,.09,0,.08v.18l0,.09,0,.21-.05.21V412Zm-.95-3.5v-5.23l.13.07.13.05.13.05.12,0,.12,0h.49l.13,0,.09,0h0l-.17,6.68Zm-.59,1.53,0-.12v-.23h.07l.06,0,.06,0,.06,0,.05,0,0,0,0,.05,0,.06,0,.05v.32l0,.14v.72l-1.11-1,.53.33.06,0,0,0,0,0,0-.05,0-.05v-.29Zm-1.47-.59.07-.08,0-.09,0-.09.05-.12,0-.11v-.38l.11.05.08.05.07.07.05.07,0,.08v.51l0,.21V410l0,.1-.79-.68Zm7.53-6.25.07,9.36h0v.05h0v-.06l0-.05,0,0-.06,0-.08,0-.12,0-.06,0h-.07l-.06,0h0l-.1,0-.08,0-.06.05-.05.05,0,0,0,0v-.09l0,0,0,0-.07,0h-.5l-.2-9.05Zm-1.38-.34s.09-1.18.36-1.24.51,1.09.51,1.09Zm3.22,3.26.09-1h.24l.1,1Zm.33,8.35h-.58l0-.13,0-.15,0-.18v-.18l0-.19v-.57h.39Zm-.24-7v.21l0,.54,0,.78v.9l0,.9,0,.8v.57l0,.25v0h-.51l-.08.53-.36,0-.11-.44-.32-.17-.09-5.19h.2l.05,0,.05,0,0,0,0,.07.06.08.07.09.09.08.09.08.07.06,0,.05h0Zm-1.11,5.66v1.3l-1.07.11.12,0,.1,0,.08-.05.07-.06.05-.08.05-.08,0-.1,0-.09v-.68l0-.21Zm-.81-10.46s-.21-1,.06-1.05.41.88.41.88Zm-1.12,10.83v-.37l.63-.14-.1,1.44h-.15l-.09,0-.09,0-.1,0-.09,0h-.2l0-.06,0-.07,0-.07,0-.09,0-.08v-.67Zm3.34-8.68h-.19l-.11,0-.07,0h-.06l0,0-.05,0-.08.07-.06.09-.05.1,0,.11,0,.12v.86l0,.11,0,.09.07,0,.06.05.05,0,.06,0,0,.05.05,0,.05,0,.06,0-.53.53v-.2l0-.11,0-.09,0-.1,0-.09-.06-.09-.07-.09-.63.24v-3.62h.2l.09,0,.09,0,.07-.06.06-.06v-1.66l-.26-.17-.26-.18-.25-.2-.25-.21-.22-.22-.23-.23-.22-.23-.22-.24-.2-.25-.2-.25-.19-.26-.19-.25-.35-.52-.34-.51h-.18l-.08,0,0,0,0,.06,0,.06,0,.07v.07l0,.17,0,.16,0,.07,0,.07,0,.06-.06,0-.42.38-.4.38-.39.39-.4.38-.21.19-.2.18-.2.18-.2.16-.21.16-.22.15-.21.13-.23.13,0,.12V402l0,.29v.44l0,.14,0,.15.06.11,0,.06.05.06,0,.06.06.05.06.05.06,0,.08,0,.09,0v3.67l-.11-.44-.08,0-.08,0-.08.05-.07.05-.07.07-.05.06-.05.08,0,.07-.05.08,0,.09v.3l0,.08v0l-.05-.31,0-.05,0,0-1.16.34v-.54l0-.54,0-.53.08-.52.08-.52.11-.53.11-.51.15-.49.16-.51.17-.49.2-.49.2-.48.23-.48.24-.46.25-.46.28-.45.28-.44.3-.43.32-.42.33-.42.33-.4.36-.39.36-.38.38-.37.39-.37.41-.34.41-.33.43-.32.44-.32.45-.3.45-.28.47-.26.18,0,.16-.05.18-.07.17-.06.32-.15.32-.17.33-.16.33-.13.17-.06.17-.06.18,0,.19,0-.07.12-.07.1-.07.1-.08.08-.09.07-.09.07-.1.06-.1,0-.21.09-.22.09-.25.08-.25.11,0,.14v.84l0,.32,0,.15,0,.14,0,.06,0,0,0,.06.05.05.05,0,.06,0,.07,0,.07,0h.38l.09,9.9,0-.16,0-.15,0-.08,0-.09,0-.07,0-.07-.05-.06-.05-.06-.06,0-.07,0Zm5.53-10.32,0-.15,0-.14a.33.33,0,0,1,0-.12s.12-.05.12-.05l.09,0h.28l0,0,0,0,0,0,0,.05,0,.06v.32l0,.14,0,.13,0,.06,0,.06.05.06,0,.05.06,0,.07,0,.08,0,.1,0h.11l.12,0,.27,0,0,0,.31-.94s.09-.17.15-.18.17.1.17.1l0,.06,0,.06,0,.07,0,.16v.93l-.44,0h-.9l-1,0h-1l-1,0-1-.05-1-.07-.46,0-.44,0-.42-.05-.39-.06V394l.49.1,0,.12,0,.1v.11l0,.09,0,.09,0,.08,0,.07.06.07.06.06.06.05.08.05.09,0,.09,0h.64l0-.12,0-.12v-.6l0-.13.09,0,.09,0h.16l.06,0,.06,0,0,0,.05.05.06.11.05.13,0,.14,0,.14,0,.14.06.13,0,.06,0,.06.05.05.05.05.06,0,.07,0h.26l.12,0,.11,0,.15-.05.23-1.06h.09l.07,0,.06,0,.06,0,0,0,.05,0,0,.05,0,.06.06.12.05.14,0,.14,0,.13.05.13.06.12,0,.05.05.05.05,0,0,0,.06,0h.34l.1,0,.12-.05.13-.05.08-.05.06,0,.06-.05,0-.06,0-.06,0-.07v-.14Zm4.09.15v.14l0,.14,0,.13v.11a.33.33,0,0,1-.06.08.65.65,0,0,1-.34,0,.77.77,0,0,1-.25-.14.11.11,0,0,1,0-.06l0,0,0-.06,0-.06.09-.19,0-.07,0-.09,0,0,0-.09,0-.12s0-.32.11-.39.14,0,.14,0v.75Zm-.14,1,.6,0,.42,0,.15,0,.07,9.18-3-2.5-.16-6.44.28,0,.85-.06Zm-.17,9.73,0-.06-.05-.06-.07-.05-.09-.08-.19-.11-.15-.1-.11-.06-.09,0h-.08l0,0,0,.07,0,.11v.46l0,.17v.08l0,.07,0,.08,0,0,0,.05,0,.05-.05,0H295l-.06,0-.05,0h-.06v-.44l0-.07,0-.07,0-.07-.09-.16-.11-.13-.12-.11-.13-.09,0,0-.08,0-.06,0h-.2l-.06,0-.06,0-.05.05,0,.06,0,.06,0,.06v.25l0,.1,0,.09,0,.06h0v.09l0,0,0,0h-.12l-.07,0-.06-.05,0-.05v-.58l0-.1,0,0,0,0,0,0,0,0-.13,0h-.43l-.08,0-.09,0-.06,0-.06,0,0,0-.05,0,0,.05,0,.05v.44l0,.1,0,.07-.05,0,0,0h-.05v-.12l0-.12-.05-.15,0-.16-.08-.15,0-.07-.06-.06-.05-.05-.07-.05-.13-.07-.12-.05-.11,0H291l0,0,0,0,0,0v.75l0,.08,0,0,0,0h-.13l-.05,0,0,0,0-.05-.06-.11,0-.13-.05-.15-.05-.15,0-.13-.07-.11-.05,0-.05,0-.06,0-.06,0-.07,0h-.08l-.07,0h-.07l-.07,0-.06,0-.07,0-.05,0-.06.06,0,0,0,.06,0,.07-.06.21,0,.15v.27H289l0,0,0,0,0-.05-.08-.12-.05-.13-.08-.16-.07-.13-.06-.11-.05-.09-.08-.06-.08,0-.08,0-.1,0H288l2.46-2.22.06-.05.15-.13.24-.19.29-.21.31-.21.3-.19.14-.07.14-.06.12,0h.2l.11,0,.1,0,.1,0,.2.1.2.12.18.13.17.14.15.12.13.1.17.12.22.17.26.2.3.21.31.24.28.21.26.22.22.16.16.15.15.13.12.12.12.1.1.1.09.09.1.08.08.08.08.07,0,0,0,.05v.08l0,.06,0,.06,0,.09,0,0v.13l0,.07,0,.17,0,.17v.14l0,.06,0,.05-.05,0,0,0h-.09l-.09,0-.1,0-.06,0,0,0,0,0v-.33Zm-.11.91-.47,0,0,0-.05,0,0-.06,0-.07v-.07l0-.08v-.33l0-.16,0-.17.08-.13.16.12s.06.12.06.12l.05.16,0,.13V406l.07.16Zm-3.6-.6v-.32l0-.08,0-.06,0,0,0,0h.13l.06,0,.06,0,.08,0,0,.08,0,.07v.16l0,.18v.33l0,.07,0,.06.05.05.06,0,.08,0h.43l.09,0,.09-.06.08-.07.06-.09,0-.12,0-.06v-.14l0-.1,0-.09,0-.08v-.15l0,0,0-.06,0-.05.07,0,.07.05.07.06.06.09.06.08,0,.09.05.11.05.1,0,.1,0,.1v.26l0,.07,0,.06,0,.05-2.16-.1,0,0,.05,0,.05,0,0,0,0,0v0l0,0v-.05l0-.11v-.12Zm-.92.64-.2,0-.2,0-.23,0h-.18l.05,0,.08-.08.08-.1.06-.11.05-.12,0-.13,0-.13,0-.14v-.38l.07,0,.05,0,0,.06,0,.06,0,.14,0,.17,0,.17,0,.16v.08l0,.09,0,.07Zm-1.33.07h0Zm-.17,0h-.31l-.47-.05h0l.06-.06,0-.06,0-.08,0-.08,0-.19,0-.2v-.1l0-.09,0-.09,0-.07.05-.06.06,0,.08,0h.1l.19,1.16Zm-2.23-.3,0-.11,0-.13v-.4l0-.25.16-.12h0l0,0,0,0,0,0,0,.1,0,.1.07.25.07.26.05.13,0,.12,0,.05,0,.05h0l-.37-.05-.44-.07Zm0-1.68-.08-8.7h.11l.32,0,.48,0,.62,0,.7,0,.62,0-.05,6.11ZM290.9,396l.57,0h.74l.78,0,.87,0,.29,0v6l-.57-.48-.12-.1-.11-.1-.12-.08-.1-.07-.12-.05-.11-.05-.11,0-.1,0-.11,0h-.31l-.19,0-.16,0-.17.07-.14.07-.13.07-.12.08-.15.11-.05.06-.24.22Zm5.92,10.33,0-.05,0-.06,0-.06v-.57l0-.14s0-.13,0-.13.07.05.07.05l.18.17.16.47.05.26s-.55.18-.61.1.05,0,.05,0m-9.63.59.08,0,.08,0h.09l1.08,0,.42.07.43.05.41,0,.41,0h1.6l.79,0,.81,0h.4l.4,0h.42l.42,0h0l0,0h.56l.23,0,.3,0h.36l.36,0,.36,0,.3-.05.26,0,.17-.06.15-.06.13-.07.1-.06.09-.06.07-.05.07-.05.06,0h0v0l0,.07,0,.09-.06.11,0,.09,0,.09,0,.07,0,0-.05,0-.07,0-.08,0-.23,0-.25.05-.26,0-.26.06-.21.05-.17,0h-.08l-.13,0-.15,0h-5l-.86,0-.87,0-.87-.05L288,407l-.91-.1Zm11.23-1.74a.12.12,0,0,1,.14,0c.15.16.1.86.1.86h-.14s-.24-.7-.1-.86m4.93-3.52v.06l0,.07V402l0,.07,0,.06-.07,0-.06-.06,0-.07-.05-.1-.07-.18-.07-.2,0-.08-.05-.08-.07-.08-.07,0h0l-.05,0h-.11l-.13,0-.14,0L302,402l0-.12,0-.12,0-.12v-.45l0-.11.05-.22.07-.21.1-.22.1-.21.22-.43.24-.42.1-.22.1-.21.09-.21.07-.22.77,2.61-.08,0-.08,0-.1,0-.09,0-.08.06-.06.06v.05l0,0v.17Zm-.94-2.6-.16.38-.17.39-.16.39-.1.18-.1.18-.11.15-.13.16-.13.13-.15.12-.09,0-.09,0-.08,0-.11,0-.1.63h-.14l0-.12v-.47l0-.12,0-.11,0-.1.1-.21.12-.21.13-.19.16-.19.34-.38.37-.37.17-.18.17-.2.17-.18.15-.21Zm-1.77,3.3.12,0,.12,0,.15-.05,0-.08,0-.08v-.51l0-.1h.23v.69l0,.06,0,0,.05,0,.06,0h.51l.06,0h.06l.05,0,0,0,0,0,0,0,0-.06v-.2l0-.1v-.23h.24v.53l0,.08,0,.09,0,.07.05.07,0,.05.08,0,.07,0h.16l.11,0,.08,0h.25l.05,0,0,0,0,0,0-.08,0-.09v-.66l0-.05v0l0,0,0,0h0l.05,0H304l.06.18,0,.17,0,.16,0,.16v.07l0,.06,0,.07,0,.06,0,0,.06,0,.06.05.07,0-.52,0-.55,0-.57,0-.58,0h-.29l-.29,0h-.29l-.3,0-.3,0-.28,0-.29-.06-.28-.09.09-1.05.08.15,0,.19.08.19.09.17.06.07.06.07.07,0,.09,0Zm4,8.64v.26l0,.09,0,0,0,0,0,0h0l-.17.05-.14,0-.13.07-.11.09-.09.08-.07.1-.06.08,0,.09-.07.17,0,.14v.14l-.09,0h-.1l-.09,0-.1,0-.09,0-.1,0,.06.05,0,.05v.81l0,.08,0,.06.05.07.06.06-.06.05-.06.07-.05.06-.06.07L303,414l-.07.06-.06,0-.07,0v-.43l0-.23,0-.22v-.11l0-.1v-.11l0-.1.05-.09.07-.12.09-.1-.08,0h0l-.08.05-.16.11-.12.1-.07.08,0,0-.14-9.83.15,0h.5l.35,0,.36,0,.32,0,.26,0,.18,0h.06l.16,8V411Zm-.33,1.81-.43.31.06-.91.09-.28.19-.08,0,.1,0,.1v.76Zm-2.48,1.84h-.43l0-1h.3l0,.09,0,.11v.77Zm-.61-1.23-.42.42-.2-10.74,1.29.17.06,10.15Zm-.84-6.77,0,.07,0,.09,0,.11v.66l-.08,0-.06,0-.08,0,0,0-.05-.06,0-.06v-1h.18l.06,0,.05.05.05.06,0,.07Zm-.1,1.41.12,5.32v.27l-.16-.35h-.49l-.2.32h-.28l-.32-.29-.24-.12-.29-5.67Zm0,6.59h-.43l.05-1h.28l.05.09,0,.11v.77Zm-.7-.44v.07l0,.07h-.24v-.44l.06,0,0,0,.05.05.05.05,0,.06Zm-.8.44h-.19v-1h.19Zm-3.48,1.82-.08-1.58v-7h.75l.26,0,.21,0,.21,0,.21,0,.2,0,.18,0,.14,0,.1,0H298V408l0,.7,0,1,0,1.19,0,1.23,0,1.16,0,.94,0,.6,0,.56.06.79.05,1,0,1v.5l0,.46V420l0,.33,0,.26,0,.11,0,.07,0,.06,0,0-.12.06-.11.06-.09.06-.1.06-.08,0-.07.05-.09,0-.07,0-.09,0-.12.05-.12.06-.13,0-.12.06-.09,0-.07,0h0l-.64-.27-.8,0v-.17Zm-4.57-3.74,0-4.75h0l.5,0h1.57l.19,0,.38,0h1.43l.11,4.78,0-.09,0-.06-.11-.15-.16-.24-.19-.27-.21-.3-.23-.28-.21-.25-.18-.18-.07-.05-.08-.05-.1,0-.12,0-.12,0h-.41l-.14,0-.15,0-.14,0-.14.05-.13,0-.12.07-.12.07-.09.08-.12.15-.15.27-.19.34-.21.39-.19.39Zm10.39,7.2h0l-.07,0h-.43l-.19,0-.21,0-.23.05-.11,0-.09,0-.08,0-.09.05-.06.05-.06.06-.05.06,0,.05-.07.11,0,.08,0,.08v0l-.3-.06-.25-5.68h.13l.16,0,.2,0,.25,0,.28,0,.33,0,.35,0h.46l.27,0,.26,0,.25,0,.2,0,.13,0H302l.18,4.16Zm2.44-.73-.08,0-.1,0-.2,0h-.67l-.06-4.47.13-.08.21-.17.29-.23.3-.27.32-.27.28-.23.22-.18.12-.07.12-.07.21-.15.26-.18.3-.23.29-.24.28-.21.21-.19.14-.12.19-.18.33-.28.43-.38.47-.4.47-.39.39-.35.28-.23.1-.09,0,.16-.13.43-.18.66-.21.78-.25.85-.24.87-.21.79-.19.65-.05.15-.06.16-.06.17-.08.16-.19.37-.21.38-.24.39-.25.39-.26.41-.27.38-.5.71-.44.58-.29.39-.12.14h-.17l-.08,0-.11,0-.11-.05-.14-.08-.07,0ZM305,402.8l.17,0,.15,0h.14l.14,0h.11l.11,0,.1,0,.15,0,.12-.05.06-.05h0l.13,6.74h0l0,0,0,.05,0,.06,0,.07-.05.09,0,.11,0,.13,0,.13,0,.14,0,.13,0,.13,0,.11,0,.07,0,0,0,0h-.06l-.09,0-.09,0-.08,0h-.5l-.1,0h-.08l-.09-7.86Zm.11-1.58c.24-.07.52,1.07.52,1.07l-.67.15s-.06-1.16.15-1.22m.89.07s0-.09.1-.1.29.81.29.81l-.38.19v-.36l0-.17v-.23s0-.07,0-.09v0m1.84,6.27v-.23l.07,0,.07,0,.06,0,.07,0,.06,0,.07,0,.06,0,.07,0,0,.08v.1l0,0,0,0,0,0-.05,0h0l-.1.05-.11,0-.05,0,0,0,0,0,0,0-.22-.12-.24-.13-.11-.07-.12-.07-.11-.07-.11-.09-.08-.08-.08-.1-.06-.1-.05-.11v-.33l0-.07,0-.07,0-.09,0,.07,0,.09,0,.09,0,.1.06.19.06.19,0,.09,0,.08.06.09.07.07.08.06.09,0,.11,0,.13,0,.06,0h0l.06,0,.05,0,0-.05v-.11Zm-.34,1,0,0-.05.06-.08.09-.1.11-.12.11-.1.09-.06,0-.05,0-.06,0h-.06v-.15l0-.18,0-.2V408l.11,0,.13,0,.13,0,.12,0,.06,0,.06,0,0,0,0,.05,0,0,0,.06v.15Zm-.77,1.09V410l0,.12,0,.11.05.11.06.08.07.08-.58.58v-.4l0-.21V410l0-.09,0-.09.06-.08.06-.06.09-.06Zm-1.13,2v.18l-.05,0-.05.05-.05.06,0,.05-.06,0-.05,0h-.1l0,0-.29-.81v-.1l0-.05v0l0-.08.06-.06.07-.06.09,0h.15v.12l0,.1.05.11,0,.11.06.1.05.14v.07Zm2.07-1.49,0-.86v-.2l0-.06,0-.07,0-.06,0-.05,0,0,.05-.05.05,0,.05,0,.06,0h.13l.11.05v.12l0,.12v.34l0,.05,0,.05.05,0,.06,0,.41-.29Zm.07-3.2-.24.43-.07-.14-.06-.18-.07-.19-.07-.19-.05-.08-.05-.09-.05-.07-.07-.09-.08-.06-.09,0-.09-.05-.12,0,0-.27v-.77l0-.49v-1l0-.23,0-.24.05-.21.07-.23.08-.21.11-.21v-.75l0-.15v-.14l0-.15-.05-.13-.05-.12-.06-.11-.08-.11-.09-.08-.11-.09-.13-.06-.14,0-.21-.18-.19-.19-.2-.2-.19-.19-.37-.4-.36-.42-.34-.41L304,398l-.33-.4-.34-.39h-.1l-.1,0-.07,0,0,0,0,.06,0,.08,0,.07v.08l0,.17,0,.16,0,.08,0,.06-.06.06-.1,0-.19.19-.18.19-.16.19-.17.2-.33.39-.32.39-.17.19-.16.19-.18.19-.18.18-.19.18-.19.16-.21.17-.21.14-.06.2,0,.23,0,.23v.51l0,.12,0,.12,0,.12,0,.1.06.11.07.1h.38l.06,3.09-.06,0-.06,0-.05,0-.06,0-.06,0-.07,0h-.13l-.06.07,0,.08,0,.09,0,.08,0,.18v.94l-.87-.23.11-.1L299,407l.08-.1.08-.12.06-.11.06-.12.05-.13,0-.13,0-.15v-.67l0-.14,0-.12-.05-.09-.05-.07,0-.06-.08,0-.05,0-.08,0-.07,0-.08,0h-.31l-.07,0-.07,0-.06.05-.06,0,0,.09,0,.11v.67l0-1.27,0-1.23,0-1.23,0-1.23,0-1.25v-2.5l0-1.29h.2l.1,0,.07,0,.07,0,.06,0,.06-.05,0,0,0-.05,0-.06,0-.06,0-.08,0-.14,0-.15v-.33l0-.35v-.49l0-.15-.09-.06-.11,0-.1,0-.11-.05-.21-.06-.22-.07-.1,0-.1-.05-.11,0-.08-.06-.09-.07-.08-.08-.08-.1-.06-.1.51.13.5.14.5.18.5.2.48.21.48.24.46.26.46.28.46.3.44.31.43.34.43.35.41.37.4.37.38.4.38.4.37.41.34.44.33.44.32.45.31.45.3.47.27.48.25.47.25.49.21.5.21.5.18.49.17.5.15.5.12.51.11.5,0,.29,0,.29,0,.29,0,.3,0,.3,0,.29,0,.3,0,.31Zm-9.61-13,.05,0,0,.05,0,.06,0,.06,0,.14v.82l-.06-.05,0-.05,0-.06,0,0,0-.08v-.39l0-.17v-.31Zm14.78,14.44,0,.69,0,.69-.06.69-.08.67-.09.68-.14.67-.14.67-.15.66-.19.67-.2.65-.23.64-.25.63L311,417l-.29.62-.3.59-.33.58-.36.58-.36.56-.4.53-.4.54-.37.42-.37.43-.38.41-.39.4-.4.39-.4.37-.41.37-.42.34-.43.34-.42.32-.44.31-.45.31-.45.28-.45.28-.46.26-.48.25-.47.23-.49.22-.48.21-.5.19-.5.19-.51.16-.51.16-.52.13-.52.13-.52.11-.54.1-.54.09-.55.07-.54,0-.56,0-.56,0H291.6l-.66-.05-.67-.07-.65-.09-.66-.12-.65-.13-.66-.15-.65-.19-.64-.2-.62-.21-.64-.25-.62-.28-.62-.28-.6-.31-.59-.32-.6-.34-.56-.37-.57-.39-.55-.41-.53-.41-.52-.44-.51-.46-.49-.47-.47-.5-.46-.5-.44-.54-.42-.54-.4-.56-.37-.57-.35-.59-.34-.61-.29-.51-.29-.52-.26-.54-.23-.55-.23-.57-.21-.58-.19-.58-.18-.6-.15-.61-.15-.6-.11-.63-.11-.62-.08-.64-.07-.62-.05-.64,0-.63v-1.28l0-.64,0-.63.06-.63.07-.63.09-.63.12-.61.13-.61.16-.6.16-.59.19-.59.2-.56.23-.56.24-.55.26-.53.32-.62.34-.59.36-.59.38-.58.41-.57.42-.56.45-.53.46-.53L278,394l.5-.5L279,393l.53-.46.55-.45.55-.43.57-.41.58-.39.6-.38.6-.35.62-.33.61-.31.63-.28.64-.27.65-.24.65-.21.66-.19.66-.17.66-.14.67-.11.67-.08.67-.06.67,0h.68l.09.58-1.55,1.74-1.16,1.15-.88.32-.89.32-.44.17-.45.16-.45.18-.44.19-.45.2-.43.2-.43.23-.44.23-.43.25-.41.26-.42.28-.4.3-.45.37-.44.39-.42.41-.42.4-.39.41-.38.43-.37.44-.35.45-.33.45-.32.47-.31.48-.29.47-.27.5-.25.5-.23.5-.23.52-.2.52-.19.52-.17.53-.14.55-.14.54-.11.56-.09.57-.08.57-.06.57-.05.58v.58l0,.59,0,.59,0,.61.06.6.07.61.09.54.1.54.13.53.15.53.16.52.19.54.22.52.22.51.24.52.26.5.28.5.3.49.31.49.33.47.34.47.36.45.37.43.39.43.39.42.41.4.43.39.43.38.45.36.46.33.46.33.47.3.49.28.5.28.49.25.51.21.51.2.53.19.52.2.53.18.53.15.54.13.54.12.56.1.54.07.56.05.56,0H293l.56,0,.56-.05.57-.06.55-.08.55-.11.55-.12.55-.13.54-.15.54-.17.53-.19.52-.2.51-.21.51-.23.5-.25.49-.26.48-.27.47-.28.45-.32.45-.3.42-.34.42-.33.41-.38.39-.38.38-.4.37-.4.36-.42.34-.43.32-.43.31-.45.29-.45.29-.47.27-.47.25-.49.22-.49.23-.5.2-.5.19-.52.18-.51.15-.53.14-.54.12-.53.11-.55.08-.54.08-.56.05-.56,0-.57v-1.7l0-.58-.05-.57-.07-.59-.08-.59-.11-.56-.13-.57-.16-.57-.17-.57-.21-.56-.22-.56-.25-.54-.27-.53-.29-.54-.32-.52-.32-.51-.35-.51-.37-.48-.38-.49-.4-.46-.42-.46-.42-.44-.44-.43-.46-.4-.48-.39-.47-.38-.5-.37-.5-.33-.52-.32-.52-.31-.52-.27-.55-.26-.54-.24-.55-.21-.56-.19-.55-.17-.57-.14-1-.29-2.89-3.14.09-.58h.75l.73,0,.75.08.72.1.74.14.71.15.72.19.7.23.7.23.68.28.67.29.68.32.65.35.64.36.63.4.61.41.59.44.59.46.56.48.56.49.53.53.53.53.49.56.48.56.46.6.44.6.41.62.39.64.37.64.36.66.32.68.29.69.24.61.2.64.19.64.17.65.15.66.12.66.11.66.08.68.07.67,0,.69,0,.69Z" transform="translate(-221.98 -386.83)"/></g></svg>