<svg id="Lager_1" data-name="Lager 1" xmlns="http://www.w3.org/2000/svg" viewBox="0 0 772.75 23.38"><defs><style>.cls-1{fill:#021d49;}</style></defs><title>smtm</title><path class="cls-1" d="M789.76,306.23l-4.86-9.4c2.83-.71,4.12-2.44,4.12-5.06,0-3.24-2.2-5.38-6.1-5.38h-6.71v19.84h-3.4v-1.48h-10v-8.08h6.85v-1.49h-6.85v-7.31h9.51v-1.48H761v19.84h-3.4v-1.48h-10v-8.08h6.84v-1.49h-6.84v-7.31h9.51v-1.48H745.73v19.84h-8a5.05,5.05,0,0,0,4-5c0-2.86-1.12-4.24-6.7-6.33-3.66-1.37-4-2.33-4-3.68,0-2.33,1.59-3.65,3.9-3.65a4.84,4.84,0,0,1,4.78,3.73l1.57-.46a6.27,6.27,0,0,0-6.35-4.76c-3.68,0-5.72,2.2-5.72,5.14,0,6.57,10.75,4.48,10.75,9.81a3.68,3.68,0,0,1-4,4c-3.13,0-4.89-1.32-5.66-4.34l-1.68.52c.85,2.8,2.35,4.43,4.73,5H720.46c3.13-.7,4.7-2.84,4.7-6.49V286.39h-1.81v13.52c0,3.79-1.84,5.11-5.36,5.11s-5.36-1.32-5.36-5.11V286.39h-1.81v13.35c0,3.65,1.57,5.79,4.7,6.49H705.6V286.39h-3.18l-5.5,16.82h-.06l-5.46-16.82h-3.19v19.84H677.13l-5.63-19.87h-4.73l-5.72,19.87h-1.58l-6.54-12.39,5.64-7.45H654.2l-6.63,8.82v-8.82h-3.79v19.84h-7.71c2.88-.66,4.52-2.59,4.52-5.83,0-6.43-10.22-5.71-10.22-9.12,0-1.54,1.18-2.2,2.83-2.2a3.66,3.66,0,0,1,3.55,2.58l3.46-1.07a7.23,7.23,0,0,0-7-4.48c-3.43,0-6.4,2-6.4,5.55,0,6.11,10.22,5.34,10.22,9.24,0,1.92-1.46,2.64-3.35,2.64-2.23,0-3.41-1.24-4.32-3.11l-3.13,1.38a7.56,7.56,0,0,0,5.31,4.42h-8.35V286.39h-3.79v19.84h-3.11l-4.37-8.85a4.91,4.91,0,0,0,3.62-5.11c0-3.27-1.84-5.88-6.35-5.88h-7.91v19.84h-9.12c4-.93,6.08-4.41,6.08-9.92,0-6.49-2.91-10.2-8.33-10.2s-8.33,3.71-8.33,10.2c0,5.51,2.13,9,6.08,9.92H575.23V289.55h5.19v-3.19H566.24v3.19h5.19v16.68H559.92c2.88-.66,4.53-2.59,4.53-5.83,0-6.43-10.23-5.71-10.23-9.12,0-1.54,1.18-2.2,2.83-2.2a3.66,3.66,0,0,1,3.55,2.58l3.46-1.07a7.23,7.23,0,0,0-7-4.48c-3.43,0-6.4,2-6.4,5.55,0,6.11,10.22,5.34,10.22,9.24,0,1.92-1.45,2.64-3.35,2.64-2.23,0-3.41-1.24-4.32-3.11l-3.13,1.38a7.56,7.56,0,0,0,5.31,4.42H547V286.39h-3.79v19.84h-4.39V286.39h-3.79v7.91h-7.65v-7.91h-3.79v19.84h-7.79V289.55H521v-3.19H506.85v3.19H512v16.68h-6.66L501,297.38a4.91,4.91,0,0,0,3.63-5.11c0-3.27-1.84-5.88-6.35-5.88h-7.91v19.84h-9.12c3.95-.93,6.07-4.41,6.07-9.92,0-6.49-2.91-10.2-8.32-10.2s-8.33,3.71-8.33,10.2c0,5.51,2.12,9,6.07,9.92H458.41v-8h3.47c4.28,0,7-1.78,7-5.9s-2.72-5.91-7-5.91h-7.26v19.84h-7.57c2.88-.66,4.53-2.59,4.53-5.83,0-6.43-10.23-5.71-10.23-9.12,0-1.54,1.18-2.2,2.83-2.2a3.66,3.66,0,0,1,3.55,2.58l3.46-1.07a7.23,7.23,0,0,0-7-4.48c-3.43,0-6.4,2-6.4,5.55,0,6.11,10.22,5.34,10.22,9.24,0,1.92-1.45,2.64-3.35,2.64-2.23,0-3.41-1.24-4.31-3.11l-3.14,1.38a7.56,7.56,0,0,0,5.31,4.42h-8.16V286.39h-3.57v13.52h-.06l-7.8-13.52h-4v19.84H416.5l-5.64-19.87h-4.73l-5.71,19.87h-1.93l-4.37-8.85a4.92,4.92,0,0,0,3.63-5.11c0-3.27-1.85-5.88-6.35-5.88h-7.92v19.84h-7.7V289.55H381v-3.19H366.79v3.19H372v16.68H355.53V286.39h-1.82v8.79H343v-8.79h-1.81v19.84h-8.35c2.71-.71,4.06-2.86,4.67-5.74l-1.71-.31c-.66,2.59-1.81,4.84-5,4.84-4.12,0-5.85-3.85-5.85-8.71s1.73-8.71,5.66-8.71c2.39,0,4,1.7,4.83,4.61l1.68-.35c-.85-3.25-2.8-5.75-6.35-5.75-4.81,0-7.64,4.07-7.64,10.2,0,5.24,2.08,8.95,5.69,9.92H314.25c3.74-1,5.86-4.9,5.86-9.92,0-5.85-2.86-10.2-7.83-10.2s-7.84,4.35-7.84,10.2c0,5,2.12,8.91,5.86,9.92H294.8l-5.64-19.87h-4.72l-5.72,19.87h-2.48V286.39h-5.39L267,300.24H267l-3.82-13.85H257.8v19.84h-4.33V286.39h-3.79v19.84h-8V289.55h5.19v-3.19H232.72v3.19h5.2v16.68h-8V286.39h-3.79v19.84h-3.12l-4.37-8.85a4.91,4.91,0,0,0,3.63-5.11c0-3.27-1.84-5.88-6.35-5.88h-7.91v19.84h-2.43L200,286.36h-4.73l-5.71,19.87h-2.48V286.39h-5.39l-3.85,13.85h-.05L174,286.39h-5.34v19.84H153.08a5.05,5.05,0,0,0,4-5c0-2.86-1.13-4.24-6.7-6.33-3.66-1.37-4-2.33-4-3.68,0-2.33,1.59-3.65,3.9-3.65a4.84,4.84,0,0,1,4.78,3.73l1.57-.46a6.27,6.27,0,0,0-6.35-4.76c-3.68,0-5.72,2.2-5.72,5.14,0,6.57,10.75,4.48,10.75,9.81a3.69,3.69,0,0,1-4,4c-3.13,0-4.89-1.32-5.66-4.34l-1.68.52c.85,2.8,2.35,4.43,4.73,5H140.4V286.39h-1.82v16.54h-.05l-9.43-16.54h-3v19.84h-3.4v-1.48h-10v-8.08h6.85v-1.49h-6.85v-7.31h9.51v-1.48H110.81v19.84h-9.36V287.87h5.88v-1.48H93.75v1.48h5.88v18.36H94.1l-6.27-19.84H85.06l-6.35,19.84H73.23V287.87h5.88v-1.48H65.54v1.48h5.88v18.36H59.68a5.05,5.05,0,0,0,4-5c0-2.86-1.13-4.24-6.71-6.33-3.66-1.37-4-2.33-4-3.68,0-2.33,1.59-3.65,3.9-3.65a4.84,4.84,0,0,1,4.78,3.73l1.57-.46a6.27,6.27,0,0,0-6.35-4.76c-3.68,0-5.71,2.2-5.71,5.14,0,6.57,10.74,4.48,10.74,9.81a3.68,3.68,0,0,1-4,4c-3.13,0-4.89-1.32-5.66-4.34l-1.67.52c.84,2.8,2.34,4.43,4.73,5H34.63v3.26H807.38v-3.26Zm-204.39-9.92c0-4.65,1.43-7,4.53-7s4.53,2.36,4.53,7-1.42,7-4.53,7S585.31,301,585.37,296.31Zm-110.9,0c0-4.65,1.43-7,4.54-7s4.53,2.36,4.53,7-1.43,7-4.53,7S474.42,301,474.47,296.31Zm-16.06-6.84h3c2.86,0,3.66,1.07,3.66,2.83s-.8,2.83-3.66,2.83h-3Zm-152.15,6.84c0-5.58,2.36-8.71,6-8.71s6,3.13,6,8.71-2.37,8.71-6,8.71S306.26,301.89,306.26,296.31ZM778,287.87h4.89c2.86,0,4.29,1.46,4.29,3.9s-1.66,3.91-4.29,3.91H778Zm0,9.29h5.13l4.62,9.07H778Zm-74.29-9.29h0v18.36h-6Zm-13.72,0h.06l6,18.36h-6Zm-20.86,2.31h.06l2.22,8.63h-4.61ZM666,301.94h6.27l1.09,4.29h-8.54Zm-18.43-1.67,2.78-3.47,4.92,9.43h-7.7Zm-42.51-10.8h3.46c2.09,0,3.22.93,3.22,2.8s-.91,2.8-3.87,2.8h-2.81Zm0,8.68h3.27l3.74,8.08h-7Zm-77.65-.44h7.65v8.52h-7.65Zm-33.24-8.24h3.46c2.09,0,3.22.93,3.22,2.8s-.91,2.8-3.88,2.8h-2.8Zm0,8.68h3.27l3.74,8.08h-7Zm-71.64-6h.06l8.11,14.13h-8.17Zm-14-1.92h.05l2.23,8.63h-4.62Zm-3.17,11.76h6.27l1.1,4.29h-8.55Zm-18.09-12.47h3.47c2.09,0,3.21.93,3.21,2.8s-.9,2.8-3.87,2.8h-2.81Zm0,8.68h3.27l3.74,8.08h-7ZM343,296.67h10.72v9.56H343Zm-56.16-6.49h.05l2.23,8.63h-4.62Zm-3.16,11.76h6.26l1.1,4.29h-8.54Zm-10.78-11.32h.05v15.61h-4.5Zm-11.79,0h0l4.4,15.61H261.1Zm-49.26-1.15h3.46c2.09,0,3.22.93,3.22,2.8s-.91,2.8-3.88,2.8h-2.8Zm0,8.68h3.27l3.74,8.08h-7Zm-14.19-8h.06l2.22,8.63h-4.61Zm-3.16,11.76h6.27l1.1,4.29h-8.55Zm-10.78-11.32h.06v15.61h-4.51Zm-11.79,0H172l4.39,15.61h-4.45Zm-44.06-2.75h.06l10.61,18.36H127.86Zm-41.46,0h.06l3.3,10.39H83.13Zm-3.73,11.87h7.5l2,6.49H80.63Z" transform="translate(-34.63 -286.11)"/></svg>