<?xml version="1.0" encoding="UTF-8"?>
<!-- Generator: Adobe Illustrator 16.0.0, SVG Export Plug-In . SVG Version: 6.00 Build 0)  -->
<!DOCTYPE svg PUBLIC "-//W3C//DTD SVG 1.1//EN" "http://www.w3.org/Graphics/SVG/1.1/DTD/svg11.dtd">
<svg version="1.1" id="Layer_1" xmlns="http://www.w3.org/2000/svg" xmlns:xlink="http://www.w3.org/1999/xlink" x="0px" y="0px" width="356.5px" height="128.5px" viewBox="0 0 356.5 128.5" enable-background="new 0 0 356.5 128.5" xml:space="preserve">
<g>
	<g>
		<g>
			<polyline fill="#6C2979" points="302.241,66.013 282.37,82.687 282.37,110.506 302.241,127.18 322.112,110.506 322.112,82.687      302.241,66.013    "/>
		</g>
	</g>
	<g>
		<polyline fill="#198B31" points="302.241,66.013 326.616,74.885 350.708,60.974 355.214,35.429 330.837,26.557 306.745,40.467     302.241,66.013   "/>
	</g>
	<g>
		<g>
			<polyline fill="#8AB241" points="306.745,40.467 302.241,14.922 278.147,1.011 253.772,9.883 258.278,35.429 282.37,49.339      306.745,40.467    "/>
			<path fill="#21221F" d="M24.418,75.158c-2.459,0.371-7.519,0.557-9.886,0.557c-8.354,0-12.671-3.156-12.671-13.414V41.786     c0-0.465,0.326-0.929,0.835-0.929h2.6c0.464,0,0.788,0.417,0.788,0.929v20.515c0,8.076,2.786,9.701,8.54,9.701     c1.997,0,5.71-0.187,6.87-0.278V41.786c0-0.465,0.325-0.929,0.836-0.929h2.552c0.511,0,0.836,0.417,0.836,0.929v31.886     C25.718,74.833,25.347,75.02,24.418,75.158"/>
		</g>
	</g>
	<g>
		<path fill="#21221F" d="M40.845,75.669c-1.438,0-3.62-0.187-5.432-0.511v8.4c0,0.465-0.37,0.883-0.881,0.883h-2.367    c-0.464,0-0.835-0.373-0.835-0.883V51.625c0-0.603,0.14-0.881,0.975-1.067c2.459-0.604,5.709-1.068,8.54-1.068    c6.916,0,10.118,4.502,10.118,11.466v3.341C50.963,71.584,47.621,75.669,40.845,75.669 M46.879,60.956    c0-4.874-1.438-8.03-6.034-8.03c-1.948,0-4.131,0.232-5.432,0.464v18.38c1.532,0.279,3.946,0.464,5.432,0.464    c4.548,0,6.034-2.972,6.034-7.937V60.956z"/>
		<path fill="#21221F" d="M64.792,75.669c-1.438,0-3.62-0.187-5.43-0.511v8.4c0,0.465-0.372,0.883-0.882,0.883h-2.367    c-0.464,0-0.835-0.373-0.835-0.883V51.625c0-0.603,0.14-0.881,0.975-1.067c2.459-0.604,5.709-1.068,8.54-1.068    c6.916,0,10.118,4.502,10.118,11.466v3.341C74.91,71.584,71.569,75.669,64.792,75.669 M70.826,60.956    c0-4.874-1.439-8.03-6.034-8.03c-1.948,0-4.13,0.232-5.43,0.464v18.38c1.532,0.279,3.945,0.464,5.43,0.464    c4.548,0,6.034-2.972,6.034-7.937V60.956z"/>
		<path fill="#21221F" d="M97.836,75.343h-2.229c-0.51,0-0.929-0.417-0.929-0.928V59.144c0-4.641-1.949-6.081-4.966-6.081    c-1.438,0-4.363,0.372-6.405,1.3v20.051c0,0.465-0.417,0.928-0.929,0.928h-2.273c-0.464,0-0.881-0.417-0.881-0.928V41.367    c0-0.51,0.37-0.927,0.881-0.927h2.32c0.511,0,0.882,0.417,0.882,0.927v9.562c2.228-0.975,5.106-1.44,7.102-1.44    c4.92,0,8.354,2.832,8.354,9.654v15.271C98.764,74.926,98.346,75.343,97.836,75.343"/>
		<path fill="#21221F" d="M120.761,75.343h-2.135c-0.511,0-0.929-0.417-0.929-0.928v-1.021c-2.228,1.3-4.548,2.275-7.147,2.275    c-3.946,0-7.565-1.718-7.565-7.52v-1.274c0-5.015,2.924-7.52,11.185-7.52h3.436v-1.14c0-3.898-1.346-5.244-4.966-5.244    c-3.018,0-5.246,0.186-7.102,0.371c-0.094,0-0.14,0-0.232,0c-0.419,0-0.836-0.14-0.836-0.743v-1.624    c0-0.511,0.325-0.789,0.975-0.882c1.903-0.324,4.039-0.604,7.195-0.604c6.451,0,9.05,3.25,9.05,8.726v16.2    C121.689,74.926,121.271,75.343,120.761,75.343 M117.605,62.278h-3.436c-5.616,0-7.102,1.254-7.102,4.548v1.277    c0,3.34,1.578,4.223,4.271,4.223c2.135,0,4.038-0.649,6.266-1.857V62.278z"/>
		<path fill="#21221F" d="M145.45,75.343h-2.227c-0.51,0-0.93-0.417-0.93-0.928V59.144c0-4.688-1.576-6.126-5.105-6.126    c-1.949,0-4.13,0.743-6.266,1.81v19.587c0,0.465-0.417,0.928-0.928,0.928h-2.274c-0.465,0-0.882-0.417-0.882-0.928V50.744    c0-0.511,0.371-0.928,0.882-0.928h2.319c0.512,0,0.883,0.417,0.883,0.928v0.881c2.553-1.438,4.641-2.135,7.38-2.135    c5.569,0,8.077,3.482,8.077,9.654v15.271C146.38,74.926,145.962,75.343,145.45,75.343"/>
		<path fill="#21221F" d="M169.353,74.88c-2.879,0.558-5.711,0.789-8.542,0.789c-6.916,0-10.118-4.503-10.118-11.465v-3.342    c0-7.287,3.342-11.372,10.118-11.372c1.438,0,3.621,0.14,5.43,0.465v-8.633c0-0.464,0.372-0.881,0.883-0.881h2.367    c0.464,0,0.835,0.372,0.835,0.881v32.489C170.325,74.415,170.186,74.74,169.353,74.88 M166.24,53.389    c-1.53-0.278-3.944-0.326-5.43-0.326c-4.549,0-6.033,2.833-6.033,7.798v3.342c0,5.058,1.438,7.891,6.033,7.891    c1.578,0,3.853-0.14,5.43-0.279V53.389z"/>
		<path fill="#21221F" d="M179.187,75.343h-2.412c-0.466,0-0.836-0.417-0.836-0.928V41.321c0-0.464,0.324-0.881,0.836-0.881h2.412    c0.465,0,0.836,0.372,0.836,0.881v33.094C180.022,74.88,179.698,75.343,179.187,75.343"/>
		<path fill="#21221F" d="M189.397,45.731h-2.367c-0.511,0-0.929-0.419-0.929-0.929v-3.436c0-0.51,0.418-0.927,0.929-0.927h2.367    c0.51,0,0.928,0.417,0.928,0.927v3.436C190.325,45.312,189.907,45.731,189.397,45.731 M189.304,75.343h-2.227    c-0.512,0-0.93-0.417-0.93-0.928V50.744c0-0.511,0.418-0.928,0.93-0.928h2.227c0.51,0,0.93,0.417,0.93,0.928v23.671    C190.233,74.926,189.813,75.343,189.304,75.343z"/>
		<path fill="#21221F" d="M214.552,75.343h-2.229c-0.51,0-0.928-0.417-0.928-0.928V59.144c0-4.688-1.578-6.126-5.105-6.126    c-1.949,0-4.131,0.743-6.267,1.81v19.587c0,0.465-0.417,0.928-0.928,0.928h-2.273c-0.466,0-0.883-0.417-0.883-0.928V50.744    c0-0.511,0.372-0.928,0.883-0.928h2.319c0.512,0,0.882,0.417,0.882,0.928v0.881c2.554-1.438,4.642-2.135,7.38-2.135    c5.57,0,8.076,3.482,8.076,9.654v15.271C215.479,74.926,215.063,75.343,214.552,75.343"/>
		<path fill="#21221F" d="M230.005,84.486c-3.527,0-6.545-0.463-7.892-0.835c-0.649-0.186-0.927-0.371-0.927-0.976V81.33    c0-0.463,0.371-0.741,0.834-0.741c0.047,0,0.093,0,0.141,0c1.623,0.186,5.384,0.558,7.844,0.558c4.316,0,5.336-1.068,5.336-5.664    V75.02c-1.112,0.277-3.805,0.649-5.197,0.649c-5.803,0-10.35-2.739-10.35-11.419v-3.388c0-7.705,3.388-11.372,10.35-11.372    c2.738,0,6.127,0.557,8.309,1.068c0.835,0.186,0.975,0.417,0.975,1.067v23.672C239.427,82.305,236.316,84.486,230.005,84.486     M235.341,53.435c-1.252-0.232-3.248-0.51-5.197-0.51c-4.596,0-6.265,2.228-6.265,7.937v3.388c0,5.941,2.134,7.983,6.265,7.983    c1.301,0,3.76-0.185,5.197-0.51V53.435z"/>
	</g>
	<g>
		<g>
			<path fill="#21221F" d="M252.048,75.669c-1.717,0-5.06-0.14-7.333-0.697c-0.604-0.139-0.976-0.417-0.976-0.927v-1.627     c0-0.416,0.371-0.694,0.837-0.694c0.093,0,0.139,0,0.185,0c2.228,0.278,5.615,0.51,7.287,0.51c3.017,0,4.596-0.79,4.596-3.295     c0-1.393-0.836-2.274-3.481-3.854l-4.688-2.784c-2.83-1.717-4.734-3.714-4.734-6.637c0-4.828,3.621-6.174,8.402-6.174     c2.6,0,5.059,0.233,7.24,0.604c0.603,0.093,0.881,0.419,0.881,0.929v1.532c0,0.557-0.324,0.789-0.788,0.789     c-0.046,0-0.093,0-0.14,0c-1.624-0.14-4.594-0.371-7.193-0.371s-4.316,0.325-4.316,2.692c0,1.392,1.066,2.273,3.202,3.526     l4.595,2.739c3.853,2.275,5.105,4.27,5.105,7.009C260.728,73.672,257.246,75.669,252.048,75.669"/>
			<path fill="#21221F" d="M63.345,127.197c-3.434,0-6.59-0.51-7.657-0.789c-0.65-0.186-0.883-0.418-0.883-0.974v-1.3     c0-0.465,0.372-0.789,0.836-0.789c0.046,0,0.092,0,0.138,0c1.393,0.186,4.874,0.556,7.565,0.556c4.178,0,5.478-1.021,5.478-5.894     v-0.232c-1.114,0.324-3.666,0.557-5.152,0.557c-5.338,0-10.396-1.856-10.396-9.607V93.407c0-0.51,0.417-0.929,0.927-0.929h2.228     c0.511,0,0.929,0.419,0.929,0.929v15.317c0,4.967,2.414,6.127,6.313,6.127c1.346,0,3.713-0.279,5.058-0.604V93.407     c0-0.51,0.419-0.929,0.929-0.929h2.229c0.51,0,0.928,0.419,0.928,0.929v24.601C72.814,125.295,69.658,127.197,63.345,127.197"/>
		</g>
	</g>
	<g>
		<path fill="#21221F" d="M96.576,118.008h-2.229c-0.51,0-0.929-0.419-0.929-0.929v-15.271c0-4.688-1.577-6.127-5.105-6.127    c-1.95,0-4.131,0.742-6.266,1.811v19.587c0,0.464-0.417,0.929-0.929,0.929h-2.273c-0.464,0-0.883-0.419-0.883-0.929V93.407    c0-0.51,0.373-0.929,0.883-0.929h2.32c0.511,0,0.882,0.419,0.882,0.929v0.882c2.553-1.439,4.641-2.135,7.379-2.135    c5.57,0,8.077,3.481,8.077,9.654v15.271C97.503,117.589,97.085,118.008,96.576,118.008"/>
		<path fill="#21221F" d="M120.476,117.543c-2.878,0.557-5.71,0.789-8.542,0.789c-6.915,0-10.118-4.502-10.118-11.463v-3.343    c0-7.288,3.342-11.372,10.118-11.372c1.438,0,3.621,0.139,5.431,0.465v-8.634c0-0.465,0.37-0.883,0.882-0.883h2.366    c0.464,0,0.835,0.372,0.835,0.883v32.49C121.449,117.079,121.311,117.404,120.476,117.543 M117.366,96.054    c-1.532-0.28-3.946-0.325-5.431-0.325c-4.549,0-6.033,2.832-6.033,7.798v3.343c0,5.059,1.438,7.889,6.033,7.889    c1.578,0,3.853-0.14,5.431-0.277V96.054z"/>
	</g>
	<g>
		<g>
			<path fill="#21221F" d="M130.823,88.395h-2.365c-0.512,0-0.93-0.418-0.93-0.929v-3.435c0-0.511,0.418-0.929,0.93-0.929h2.365     c0.512,0,0.93,0.418,0.93,0.929v3.435C131.753,87.977,131.335,88.395,130.823,88.395 M130.731,118.008h-2.228     c-0.511,0-0.929-0.419-0.929-0.929V93.407c0-0.51,0.418-0.929,0.929-0.929h2.228c0.51,0,0.929,0.419,0.929,0.929v23.672     C131.66,117.589,131.241,118.008,130.731,118.008z"/>
			<path fill="#21221F" d="M146.743,127.151c-3.527,0-6.545-0.464-7.891-0.836c-0.649-0.185-0.929-0.371-0.929-0.975v-1.347     c0-0.463,0.372-0.742,0.837-0.742c0.045,0,0.092,0,0.139,0c1.625,0.188,5.383,0.557,7.844,0.557c4.316,0,5.338-1.066,5.338-5.662     v-0.465c-1.114,0.278-3.806,0.65-5.199,0.65c-5.802,0-10.35-2.739-10.35-11.418v-3.388c0-7.706,3.387-11.372,10.35-11.372     c2.74,0,6.128,0.557,8.309,1.066c0.836,0.187,0.975,0.42,0.975,1.068v23.671C156.165,124.97,153.056,127.151,146.743,127.151      M152.081,96.1c-1.254-0.232-3.25-0.51-5.199-0.51c-4.595,0-6.266,2.228-6.266,7.937v3.388c0,5.941,2.136,7.983,6.266,7.983     c1.3,0,3.761-0.186,5.199-0.511V96.1z"/>
		</g>
	</g>
	<g>
		<path fill="#21221F" d="M179.927,118.008h-2.229c-0.511,0-0.928-0.419-0.928-0.929v-15.271c0-4.643-1.949-6.08-4.967-6.08    c-1.438,0-4.363,0.371-6.406,1.299v20.052c0,0.464-0.418,0.929-0.928,0.929h-2.273c-0.465,0-0.883-0.419-0.883-0.929V84.031    c0-0.511,0.371-0.929,0.883-0.929h2.32c0.512,0,0.881,0.418,0.881,0.929v9.561c2.229-0.973,5.105-1.438,7.102-1.438    c4.92,0,8.355,2.832,8.355,9.654v15.271C180.854,117.589,180.437,118.008,179.927,118.008"/>
		<path fill="#21221F" d="M244.294,106.543h-15.549v0.649c0,5.524,2.182,7.565,6.452,7.565c2.692,0,4.858-0.325,6.921-0.684    c0.3-0.053,1.146-0.234,1.572-0.312c0.366-0.066,0.744,0.186,0.744,0.65v1.512c0,0.604-0.248,0.903-0.984,1.123    c-2.269,0.674-5.143,1.285-8.253,1.285c-5.338,0-10.536-2.506-10.536-11.14v-4.177c0-6.639,3.666-10.861,10.305-10.861    c6.775,0,10.211,4.27,10.211,10.861v2.506C245.177,106.125,244.852,106.543,244.294,106.543 M241.045,103.016    c0-5.246-1.995-7.287-6.079-7.287c-3.992,0-6.221,2.273-6.221,7.287v0.418h12.3V103.016z"/>
		<path fill="#21221F" d="M204.801,106.543h-15.549v0.649c0,5.524,2.182,7.565,6.452,7.565c2.692,0,4.859-0.325,6.921-0.684    c0.299-0.053,1.146-0.234,1.573-0.312c0.363-0.066,0.742,0.186,0.742,0.65v1.512c0,0.604-0.248,0.903-0.982,1.123    c-2.271,0.674-5.145,1.285-8.254,1.285c-5.338,0-10.536-2.506-10.536-11.14v-4.177c0-6.639,3.666-10.861,10.304-10.861    c6.777,0,10.212,4.27,10.212,10.861v2.506C205.684,106.125,205.358,106.543,204.801,106.543 M201.552,103.016    c0-5.246-1.996-7.287-6.08-7.287c-3.991,0-6.22,2.273-6.22,7.287v0.418h12.3V103.016z"/>
		<path fill="#21221F" d="M221.413,118.055c-0.881,0.139-2.783,0.277-4.454,0.277c-4.363,0-6.868-1.439-6.868-6.451v-23.95    c0-0.465,0.416-0.789,0.928-0.882l2.273-0.372c0.047,0,0.094,0,0.094,0c0.463,0,0.789,0.419,0.789,0.883v4.919h7.238    c0.512,0,0.883,0.325,0.883,0.836v1.578c0,0.465-0.371,0.836-0.883,0.836h-7.238v16.152c0,2.691,0.881,3.156,3.434,3.156h3.76    c0.65,0,0.975,0.186,0.975,0.649v1.578C222.343,117.682,222.11,117.96,221.413,118.055"/>
		<path fill="#21221F" d="M268.196,118.008h-2.229c-0.511,0-0.93-0.419-0.93-0.929v-15.271c0-4.688-1.576-6.127-5.104-6.127    c-1.95,0-4.131,0.742-6.267,1.811v19.587c0,0.464-0.417,0.929-0.929,0.929h-2.273c-0.464,0-0.882-0.419-0.882-0.929V93.407    c0-0.51,0.371-0.929,0.882-0.929h2.32c0.511,0,0.882,0.419,0.882,0.929v0.882c2.553-1.439,4.641-2.135,7.379-2.135    c5.57,0,8.077,3.481,8.077,9.654v15.271C269.123,117.589,268.706,118.008,268.196,118.008"/>
		<path fill="#21221F" d="M39.417,92.107c-2.367,0-5.951,0.674-8.495,1.838c-1.197-1.17-2.899-1.791-5.239-1.791    c-2.737,0-4.827,0.695-7.379,2.135v-0.882c0-0.511-0.37-0.929-0.883-0.929H15.1c-0.511,0-0.881,0.418-0.881,0.929v23.672    c0,0.51,0.418,0.927,0.881,0.927h2.274c0.511,0,0.929-0.463,0.929-0.927V97.492c2.135-1.067,4.316-1.811,6.266-1.811    c3.528,0,4.599,1.439,4.599,6.126v15.271c0,0.51,0.418,0.927,0.929,0.927h2.228c0.511,0,0.929-0.417,0.929-0.927v-15.271    c0-1.94-0.198-3.614-0.643-4.997c1.816-0.637,4.45-1.129,6.018-1.129c2.413,0,5.415,1.066,5.415,4.967v16.431    c0,0.51,0.417,0.927,0.927,0.927h2.228c0.512,0,0.929-0.417,0.929-0.927v-16.431C48.126,94.196,43.594,92.107,39.417,92.107"/>
	</g>
</g>
</svg>